<?xml version="1.0" standalone="no"?>
<!DOCTYPE svg PUBLIC "-//W3C//DTD SVG 1.1//EN" "http://www.w3.org/Graphics/SVG/1.1/DTD/svg11.dtd" >
<svg xmlns="http://www.w3.org/2000/svg" xmlns:xlink="http://www.w3.org/1999/xlink" version="1.1">
<metadata>
Created by FontForge 20161013 at Sat Feb 11 07:24:58 2012
 By ,,,
Copyright 2000, 2002, 2004, 2011 Adobe Systems Incorporated. All Rights Reserved.
</metadata>
<defs>
<font id="AdobeArabic-BoldItalic" horiz-adv-x="0" >
  <font-face 
    font-family="Adobe Arabic"
    font-weight="700"
    font-style="italic"
    font-stretch="normal"
    units-per-em="2048"
    panose-1="2 4 7 3 6 2 1 9 2 3"
    ascent="1368"
    descent="-680"
    x-height="661"
    cap-height="950"
    bbox="-799 -1181 3778 1792"
    underline-thickness="50"
    underline-position="-200"
    slope="9"
    unicode-range="U+0020-FEFC"
  />
<missing-glyph horiz-adv-x="728" 
d="M755 0h-728v1020h728v-1020zM639 947h-495l247 -372zM682 138v743l-247 -371zM144 73h495l-248 371zM100 881v-743l247 372z" />
    <glyph glyph-name="f_i" unicode="fi" horiz-adv-x="823" 
d="M776 191l25 -40q-66 -84 -143 -126t-121 -42q-87 0 -49 163q13 56 39 161t37 153q16 72 3 89.5t-76 17.5h-130q-4 -24 -16.5 -95t-19.5 -110t-20.5 -103.5t-27.5 -123.5q-43 -173 -95.5 -263.5t-137.5 -158.5q-97 -76 -162 -76q-40 0 -70 20.5t-29 49.5q0 24 16.5 48.5
t37.5 39.5q19 13 33 1q22 -21 54 -36t57 -15q27 0 48 34q28 38 73 314q71 442 76 474h-115l-6 14l46 56h88q16 85 57.5 163t103.5 129q122 99 250 99q84 0 124 -35.5t40 -74.5q0 -27 -20.5 -52t-55.5 -36q-66 -24 -75 18q-25 118 -86 118q-53 0 -91.5 -93t-61.5 -236h84
q153 0 268 23q32 1 38.5 -27.5t-9.5 -90.5q-14 -61 -42 -175.5t-41 -168.5q-10 -43 -9 -58t15 -15q8 0 37 19.5t59 46.5z" />
    <glyph glyph-name="f_l" unicode="fl" horiz-adv-x="832" 
d="M537 637l-32 -60l-145 -13q-1 -7 -30.5 -173.5t-54.5 -269.5q-40 -170 -91 -253.5t-140 -154.5q-95 -76 -162 -76q-40 0 -71.5 20.5t-30.5 49.5q0 24 16.5 48.5t37.5 39.5q16 11 29 1q22 -22 56.5 -38.5t60.5 -16.5q30 0 51 35q5 8 13.5 35t25 102t32.5 177
q17 102 39.5 251.5t34.5 222.5h-118l-6 14l49 59h88q31 169 146 272q53 50 129.5 84.5t134.5 34.5q31 0 65 -10t50 -23q93 33 125 33q25 0 10 -71q-100 -461 -151 -744q-8 -63 -7.5 -68.5t7.5 -23.5q10 0 41.5 18t54.5 39l25 -41q-59 -71 -135 -112.5t-123 -41.5
q-23 0 -36 14t-18 57.5t13 124.5q24 127 141 710q-15 25 -51.5 47t-76.5 22q-21 0 -39.5 -11t-32.5 -27.5t-26.5 -43.5t-21.5 -52.5t-17.5 -61t-14 -62.5t-11.5 -63h167z" />
    <glyph glyph-name="uniFC31" unicode="&#xfed3;&#xfef0;" horiz-adv-x="1027" arabic-form="isolated" 
d="M784 305q-42 -14 -112 -14q-123 0 -189.5 63.5t-66.5 169.5q0 88 52 154.5t125 66.5q51 0 99 -39.5t82 -99t60 -127.5t38.5 -126t12.5 -93q0 -41 -17 -82q70 -28 91 -68.5t21 -111.5q0 -77 -28 -146q-71 -95 -184.5 -151.5t-236.5 -56.5q-92 0 -167 31.5t-122.5 81.5
t-80 117.5t-46 135.5t-13.5 139q0 90 24 196l65 -23q-11 -63 -11 -116q0 -158 93 -257t247 -99q56 0 114 14t102.5 34t80.5 41.5t55 38t18 21.5q-1 7 -45.5 16t-132 17t-185.5 8l-10 15q27 89 47 135q239 20 239 71q0 17 -19 44zM748 446q-82 150 -175 150q-36 0 -59 -18
t-23 -39q0 -16 14.5 -31.5t43 -29.5t80.5 -23t119 -9zM396 931l72 129q83 -52 161 -117q-21 -72 -70 -123q-59 45 -163 111z" />
    <glyph glyph-name="uniFC32" unicode="&#xfed3;&#xfef2;" horiz-adv-x="1027" arabic-form="isolated" 
d="M353 -549l79 123q83 -56 158 -125q-28 -61 -76 -121q-86 71 -161 123zM587 -533l78 123q88 -59 158 -125q-28 -61 -76 -121q-90 75 -160 123zM396 931l72 129q83 -52 161 -117q-21 -72 -70 -123q-59 45 -163 111zM784 305q-42 -14 -112 -14q-123 0 -189.5 63.5
t-66.5 169.5q0 88 52 154.5t125 66.5q51 0 99 -39.5t82 -99t60 -127.5t38.5 -126t12.5 -93q0 -41 -17 -82q70 -28 91 -68.5t21 -111.5q0 -77 -28 -146q-71 -95 -184.5 -151.5t-236.5 -56.5q-92 0 -167 31.5t-122.5 81.5t-80 117.5t-46 135.5t-13.5 139q0 90 24 196l65 -23
q-11 -63 -11 -116q0 -158 93 -257t247 -99q56 0 114 14t102.5 34t80.5 41.5t55 38t18 21.5q-1 7 -45.5 16t-132 17t-185.5 8l-10 15q27 89 47 135q239 20 239 71q0 17 -19 44zM748 446q-82 150 -175 150q-36 0 -59 -18t-23 -39q0 -16 14.5 -31.5t43 -29.5t80.5 -23t119 -9z
" />
    <glyph glyph-name="uniFC43" unicode="&#xfedf;&#xfef0;" horiz-adv-x="1014" arabic-form="isolated" 
d="M673 1029l13 -8q7 -47 43.5 -109.5t108.5 -157.5l-79 -68q31 -151 56 -309q5 -33 5 -59q0 -65 -23 -141q94 -19 129.5 -66t35.5 -136q0 -60 -19 -128q-70 -102 -183.5 -161t-246.5 -59q-98 0 -177.5 41.5t-128.5 111.5t-75 157.5t-26 183.5q0 114 25 207l59 -24
q-11 -68 -11 -123q0 -154 93 -251t234 -97q87 0 192 38t175 102q-76 54 -336 57l-12 15l43 147q89 14 130 39q26 16 26 41q0 11 -7 55q-23 142 -90 407q-4 18 -17 61.5t-16 65.5q-3 18 -3 33q0 36 15 60q28 43 67 75z" />
    <glyph glyph-name="uniFC44" unicode="&#xfedf;&#xfef2;" horiz-adv-x="1014" arabic-form="isolated" 
d="M357 -569l78 123q83 -56 158 -125q-28 -61 -76 -121q-84 70 -160 123zM590 -553l79 123q89 -61 157 -125q-27 -58 -75 -121q-95 78 -161 123zM673 1029l13 -8q7 -47 43.5 -109.5t108.5 -157.5l-79 -68q31 -151 56 -309q5 -33 5 -59q0 -65 -23 -141q94 -19 129.5 -66
t35.5 -136q0 -60 -19 -128q-70 -102 -183.5 -161t-246.5 -59q-98 0 -177.5 41.5t-128.5 111.5t-75 157.5t-26 183.5q0 114 25 207l59 -24q-11 -68 -11 -123q0 -154 93 -251t234 -97q87 0 192 38t175 102q-76 54 -336 57l-12 15l43 147q89 14 130 39q26 16 26 41q0 11 -7 55
q-23 142 -90 407q-4 18 -17 61.5t-16 65.5q-3 18 -3 33q0 36 15 60q28 43 67 75z" />
    <glyph glyph-name="uniFC64" unicode="&#xfe8c;&#xfeae;" horiz-adv-x="914" arabic-form="final" 
d="M909 200l32 -200h-15q-37 0 -67.5 6.5t-53 15.5t-43 29.5t-33.5 37t-29.5 50.5t-26 57t-27.5 69l-12 31h-3q-35 -73 -104 -89q26 -92 26 -166q0 -80 -28 -144q-70 -162 -183 -162q-101 0 -288 101l15 52q55 -19 95 -19q62 0 120 30t102 84q75 88 81 147q-6 38 -163 156
q13 107 27 175l11 2q5 -4 21 -16t23 -17t21.5 -14.5t23.5 -14t22 -10.5t25 -8t24 -2q36 0 61 18.5t35.5 40.5t23.5 55t21 46l22 -2q4 -10 43 -117t67 -151q45 -71 120 -71h14zM650 778h-13l-32 30q-14 14 -35 14q-26 0 -44 -10.5t-18 -22.5q0 -21 39.5 -38t99.5 -17
q47 0 100 3l6 -9q-10 -38 -29 -81q-167 -22 -237 -72l-14 12q12 39 27 75q-75 32 -75 92q0 51 47 101q53 53 115 53q35 0 58 -18.5t23 -48.5q0 -29 -18 -63z" />
    <glyph glyph-name="uniFC67" unicode="&#xfe8c;&#xfee6;" horiz-adv-x="1120" arabic-form="final" 
d="M1115 200l32 -200h-15q-29 0 -54.5 5t-45.5 12t-39 22.5t-32 27.5t-28 36t-24 39.5t-22 46t-20 48t-20 53.5l-9 20l-5 1q-24 -71 -90 -91q45 -111 45 -234q0 -68 -19 -118q-47 -80 -129 -124t-167 -44q-165 0 -267.5 127t-102.5 315q0 75 20 153l56 -21q-4 -32 -4 -69
q0 -130 75 -216.5t201 -86.5q81 0 157.5 42t99.5 97q-29 86 -74.5 141.5t-113.5 107.5q9 107 20 181l11 2q36 -27 58 -41.5t52.5 -27.5t55.5 -13q40 0 60.5 22.5t38 69.5t31.5 68l19 -2q9 -20 28.5 -76t41 -107.5t42.5 -84.5q52 -81 123 -81h14zM205 644l73 132
q95 -59 164 -119q-21 -75 -72 -126q-62 49 -165 113zM871 773h-13l-32 30q-14 14 -35 14q-26 0 -44 -10.5t-18 -22.5q0 -21 39.5 -38t99.5 -17q48 0 100 3l6 -9q-10 -38 -29 -81q-167 -22 -237 -72l-14 12q12 39 27 75q-75 32 -75 92q0 51 47 101q53 53 115 53
q35 0 58 -18.5t23 -48.5q0 -28 -18 -63z" />
    <glyph glyph-name="uniFC6A" unicode="&#xfe92;&#xfeae;" horiz-adv-x="914" arabic-form="final" 
d="M634 -298l71 129q83 -51 162 -117q-21 -73 -71 -123q-56 44 -162 111zM909 200l32 -200h-15q-37 0 -67.5 6.5t-53 15.5t-43 29.5t-33.5 37t-29.5 50.5t-26 57t-27.5 69l-12 31h-3q-35 -73 -104 -89q26 -92 26 -166q0 -80 -28 -144q-70 -162 -183 -162q-101 0 -288 101
l15 52q55 -19 95 -19q62 0 120 30t102 84q75 88 81 147q-6 38 -163 156q13 107 27 175l11 2q5 -4 21 -16t23 -17t21.5 -14.5t23.5 -14t22 -10.5t25 -8t24 -2q36 0 61 18.5t35.5 40.5t23.5 55t21 46l22 -2q4 -10 43 -117t67 -151q45 -71 120 -71h14z" />
    <glyph glyph-name="uniFC70" unicode="&#xfe98;&#xfeae;" horiz-adv-x="914" arabic-form="final" 
d="M563 714l84 107q78 -61 134 -124q-30 -58 -82 -102q-60 56 -136 119zM354 705l84 107q77 -60 134 -124q-29 -55 -82 -102q-58 53 -136 119zM909 200l32 -200h-15q-37 0 -67.5 6.5t-53 15.5t-43 29.5t-33.5 37t-29.5 50.5t-26 57t-27.5 69l-12 31h-3q-35 -73 -104 -89
q26 -92 26 -166q0 -80 -28 -144q-70 -162 -183 -162q-101 0 -288 101l15 52q55 -19 95 -19q62 0 120 30t102 84q75 88 81 147q-6 38 -163 156q13 107 27 175l11 2q5 -4 21 -16t23 -17t21.5 -14.5t23.5 -14t22 -10.5t25 -8t24 -2q36 0 61 18.5t35.5 40.5t23.5 55t21 46l22 -2
q4 -10 43 -117t67 -151q45 -71 120 -71h14z" />
    <glyph glyph-name="uniFC86" unicode="&#xfee0;&#xfef0;" horiz-adv-x="1227" arabic-form="final" 
d="M958 271h-6q-19 -86 -76 -125q44 -29 59.5 -71.5t15.5 -101.5q0 -60 -19 -128q-71 -103 -179 -161t-240 -58q-99 0 -178.5 42t-128 112.5t-74.5 158t-26 183.5q0 106 25 204l60 -24q-12 -72 -12 -120q0 -155 92.5 -253t234.5 -98q86 0 186 38t170 102q-76 54 -336 57
l-11 15l42 147q207 32 295 105q37 31 50 51t13 51q0 53 -38 235.5t-68 293.5q51 71 92 111l15 -9q51 -207 105 -553l16 -101q27 -174 185 -174l32 -200h-14q-105 0 -176.5 62.5t-105.5 208.5z" />
    <glyph glyph-name="uniFC87" unicode="&#xfee0;&#xfef2;" horiz-adv-x="1227" arabic-form="final" 
d="M336 -566l79 123q84 -57 157 -125q-27 -58 -75 -121q-95 78 -161 123zM570 -550l78 123q83 -56 158 -125q-28 -61 -76 -121q-84 70 -160 123zM958 271h-6q-19 -86 -76 -125q44 -29 59.5 -71.5t15.5 -101.5q0 -60 -19 -128q-71 -103 -179 -161t-240 -58q-99 0 -178.5 42
t-128 112.5t-74.5 158t-26 183.5q0 106 25 204l60 -24q-12 -72 -12 -120q0 -155 92.5 -253t234.5 -98q86 0 186 38t170 102q-76 54 -336 57l-11 15l42 147q207 32 295 105q37 31 50 51t13 51q0 53 -38 235.5t-68 293.5q51 71 92 111l15 -9q51 -207 105 -553l16 -101
q27 -174 185 -174l32 -200h-14q-105 0 -176.5 62.5t-105.5 208.5z" />
    <glyph glyph-name="uniFCCC" unicode="&#xfedf;&#xfee4;" horiz-adv-x="709" arabic-form="initial" 
d="M249 74h-3q-79 -74 -205 -74h-14q-49 0 -70 41t-21 84q0 75 60 75h14q135 0 203 40q-20 95 -97 473q-2 12 -21.5 80t-19.5 101q0 36 15 60q28 43 67 75l13 -8q7 -47 43.5 -109.5t108.5 -157.5l-80 -69q45 -268 72 -384q57 24 110 24q88 0 159.5 -77t71.5 -192
q0 -48 -14.5 -90t-54 -74.5t-98.5 -32.5q-71 0 -136 55.5t-103 159.5zM346 151q28 -60 79.5 -97.5t104.5 -37.5q29 0 40 16q-17 65 -62.5 98.5t-93.5 33.5q-35 0 -68 -13z" />
    <glyph glyph-name="uniFCFB" unicode="&#xfeb3;&#xfef0;" horiz-adv-x="1698" arabic-form="isolated" 
d="M1133 200q45 0 76 32q8 8 13.5 16.5t10 19t7 17t4 20.5t2.5 19.5t2.5 23.5t1.5 23q32 26 67 47l10 -7q-4 -23 -4 -49q0 -86 45 -126q38 -33 87 -33q39 0 46 19q-35 109 -64 173q58 78 91 117l15 -6q62 -189 62 -262q0 -71 -34 -141q-56 -100 -130 -100q-77 0 -153 85h-2
q-70 -88 -154 -88q-134 0 -225 229q-45 64 -124 64q-68 0 -122 -37t-54 -61q0 -39 125 -65q118 -22 175.5 -70.5t57.5 -142.5q0 -65 -37 -150q-162 -163 -412 -163q-174 0 -288.5 136t-114.5 342q0 106 33 213l62 -25q-17 -70 -17 -127q0 -64 19 -122.5t57.5 -107.5
t106.5 -78.5t156 -29.5q179 0 331 104l-1 3q-17 17 -122 37q-117 15 -170 66t-53 145q0 79 57 167q45 70 110 110t133 40q57 0 106 -44q25 -25 38.5 -60t30 -70t50.5 -64q45 -39 93 -39z" />
    <glyph glyph-name="uniFCFC" unicode="&#xfeb3;&#xfef2;" horiz-adv-x="1698" arabic-form="isolated" 
d="M367 -569l78 123q83 -56 158 -125q-28 -61 -76 -121q-84 70 -160 123zM600 -553l79 123q89 -61 157 -125q-27 -58 -75 -121q-95 78 -161 123zM1133 200q45 0 76 32q8 8 13.5 16.5t10 19t7 17t4 20.5t2.5 19.5t2.5 23.5t1.5 23q32 26 67 47l10 -7q-4 -23 -4 -49
q0 -86 45 -126q38 -33 87 -33q39 0 46 19q-35 109 -64 173q58 78 91 117l15 -6q62 -189 62 -262q0 -71 -34 -141q-56 -100 -130 -100q-77 0 -153 85h-2q-70 -88 -154 -88q-134 0 -225 229q-45 64 -124 64q-68 0 -122 -37t-54 -61q0 -39 125 -65q118 -22 175.5 -70.5
t57.5 -142.5q0 -65 -37 -150q-162 -163 -412 -163q-174 0 -288.5 136t-114.5 342q0 106 33 213l62 -25q-17 -70 -17 -127q0 -64 19 -122.5t57.5 -107.5t106.5 -78.5t156 -29.5q179 0 331 104l-1 3q-17 17 -122 37q-117 15 -170 66t-53 145q0 79 57 167q45 70 110 110t133 40
q57 0 106 -44q25 -25 38.5 -60t30 -70t50.5 -64q45 -39 93 -39z" />
    <glyph glyph-name="uniFCFD" unicode="&#xfeb7;&#xfef0;" horiz-adv-x="1698" arabic-form="isolated" 
d="M1216 658l77 113q78 -55 139 -118q-24 -56 -75 -107q-43 36 -141 112zM999 648l77 113q76 -55 139 -118q-24 -56 -75 -107q-56 47 -141 112zM1049 868l77 113q81 -59 139 -118q-24 -56 -75 -107q-43 36 -141 112zM1133 200q45 0 76 32q8 8 13.5 16.5t10 19t7 17t4 20.5
t2.5 19.5t2.5 23.5t1.5 23q32 26 67 47l10 -7q-4 -23 -4 -49q0 -86 45 -126q38 -33 87 -33q39 0 46 19q-35 109 -64 173q58 78 91 117l15 -6q62 -189 62 -262q0 -71 -34 -141q-56 -100 -130 -100q-77 0 -153 85h-2q-70 -88 -154 -88q-134 0 -225 229q-45 64 -124 64
q-68 0 -122 -37t-54 -61q0 -39 125 -65q118 -22 175.5 -70.5t57.5 -142.5q0 -65 -37 -150q-162 -163 -412 -163q-174 0 -288.5 136t-114.5 342q0 106 33 213l62 -25q-17 -70 -17 -127q0 -64 19 -122.5t57.5 -107.5t106.5 -78.5t156 -29.5q179 0 331 104l-1 3q-17 17 -122 37
q-117 15 -170 66t-53 145q0 79 57 167q45 70 110 110t133 40q57 0 106 -44q25 -25 38.5 -60t30 -70t50.5 -64q45 -39 93 -39z" />
    <glyph glyph-name="uniFCFE" unicode="&#xfeb7;&#xfef2;" horiz-adv-x="1698" arabic-form="isolated" 
d="M367 -569l78 123q83 -56 158 -125q-28 -61 -76 -121q-84 70 -160 123zM600 -553l79 123q89 -61 157 -125q-27 -58 -75 -121q-95 78 -161 123zM1216 658l77 113q78 -55 139 -118q-24 -56 -75 -107q-43 36 -141 112zM999 648l77 113q76 -55 139 -118q-24 -56 -75 -107
q-56 47 -141 112zM1049 868l77 113q81 -59 139 -118q-24 -56 -75 -107q-43 36 -141 112zM1133 200q45 0 76 32q8 8 13.5 16.5t10 19t7 17t4 20.5t2.5 19.5t2.5 23.5t1.5 23q32 26 67 47l10 -7q-4 -23 -4 -49q0 -86 45 -126q38 -33 87 -33q39 0 46 19q-35 109 -64 173
q58 78 91 117l15 -6q62 -189 62 -262q0 -71 -34 -141q-56 -100 -130 -100q-77 0 -153 85h-2q-70 -88 -154 -88q-134 0 -225 229q-45 64 -124 64q-68 0 -122 -37t-54 -61q0 -39 125 -65q118 -22 175.5 -70.5t57.5 -142.5q0 -65 -37 -150q-162 -163 -412 -163
q-174 0 -288.5 136t-114.5 342q0 106 33 213l62 -25q-17 -70 -17 -127q0 -64 19 -122.5t57.5 -107.5t106.5 -78.5t156 -29.5q179 0 331 104l-1 3q-17 17 -122 37q-117 15 -170 66t-53 145q0 79 57 167q45 70 110 110t133 40q57 0 106 -44q25 -25 38.5 -60t30 -70t50.5 -64
q45 -39 93 -39z" />
    <glyph glyph-name="uniFD05" unicode="&#xfebb;&#xfef0;" horiz-adv-x="1853" arabic-form="isolated" 
d="M1122 238q73 165 169 260.5t203 95.5q105 0 181 -84.5t76 -204.5q0 -103 -45 -167q-51 -69 -149.5 -103.5t-268.5 -34.5q-68 0 -144 19q-41 -63 -76 -122l-21 17q8 96 15 142q-49 29 -81.5 65.5t-46 65t-29 53.5t-44.5 39t-78 14q-68 0 -122 -37t-54 -61q0 -40 125 -66
q119 -22 176 -70t57 -142q0 -65 -37 -150q-162 -163 -412 -163q-174 0 -288.5 136t-114.5 342q0 106 33 213l62 -25q-17 -70 -17 -127q0 -64 19 -122.5t57.5 -107.5t106.5 -78.5t156 -29.5q179 0 331 104l-1 3q-17 17 -122 37q-117 15 -170 66t-53 145q0 79 57 167
q45 70 110 110t133 40q46 0 75 -16t47 -43.5t36.5 -57.5t56 -64t92.5 -58zM1200 210q72 -10 141 -10q96 0 180.5 21.5t131.5 64.5q-25 64 -69.5 99t-96.5 35q-159 0 -287 -210z" />
    <glyph glyph-name="uniFD06" unicode="&#xfebb;&#xfef2;" horiz-adv-x="1853" arabic-form="isolated" 
d="M367 -569l78 123q83 -56 158 -125q-28 -61 -76 -121q-84 70 -160 123zM600 -553l79 123q89 -61 157 -125q-27 -58 -75 -121q-95 78 -161 123zM1122 238q73 165 169 260.5t203 95.5q105 0 181 -84.5t76 -204.5q0 -103 -45 -167q-51 -69 -149.5 -103.5t-268.5 -34.5
q-68 0 -144 19q-41 -63 -76 -122l-21 17q8 96 15 142q-49 29 -81.5 65.5t-46 65t-29 53.5t-44.5 39t-78 14q-68 0 -122 -37t-54 -61q0 -40 125 -66q119 -22 176 -70t57 -142q0 -65 -37 -150q-162 -163 -412 -163q-174 0 -288.5 136t-114.5 342q0 106 33 213l62 -25
q-17 -70 -17 -127q0 -64 19 -122.5t57.5 -107.5t106.5 -78.5t156 -29.5q179 0 331 104l-1 3q-17 17 -122 37q-117 15 -170 66t-53 145q0 79 57 167q45 70 110 110t133 40q46 0 75 -16t47 -43.5t36.5 -57.5t56 -64t92.5 -58zM1200 210q72 -10 141 -10q96 0 180.5 21.5
t131.5 64.5q-25 64 -69.5 99t-96.5 35q-159 0 -287 -210z" />
    <glyph glyph-name="uniFD07" unicode="&#xfebf;&#xfef0;" horiz-adv-x="1855" arabic-form="isolated" 
d="M1199 812l71 129q83 -51 162 -117q-21 -73 -71 -123q-56 44 -162 111zM1122 238q73 165 169 260.5t203 95.5q105 0 181 -84.5t76 -204.5q0 -103 -45 -167q-51 -69 -149.5 -103.5t-268.5 -34.5q-68 0 -144 19q-41 -63 -76 -122l-21 17q8 96 15 142q-49 29 -81.5 65.5
t-46 65t-29 53.5t-44.5 39t-78 14q-68 0 -122 -37t-54 -61q0 -40 125 -66q119 -22 176 -70t57 -142q0 -65 -37 -150q-162 -163 -412 -163q-174 0 -288.5 136t-114.5 342q0 106 33 213l62 -25q-17 -70 -17 -127q0 -64 19 -122.5t57.5 -107.5t106.5 -78.5t156 -29.5
q179 0 331 104l-1 3q-17 17 -122 37q-117 15 -170 66t-53 145q0 79 57 167q45 70 110 110t133 40q46 0 75 -16t47 -43.5t36.5 -57.5t56 -64t92.5 -58zM1200 210q72 -10 141 -10q96 0 180.5 21.5t131.5 64.5q-25 64 -69.5 99t-96.5 35q-159 0 -287 -210z" />
    <glyph glyph-name="uniFD08" unicode="&#xfebf;&#xfef2;" horiz-adv-x="1855" arabic-form="isolated" 
d="M367 -569l78 123q83 -56 158 -125q-28 -61 -76 -121q-84 70 -160 123zM600 -553l79 123q89 -61 157 -125q-27 -58 -75 -121q-95 78 -161 123zM1199 812l71 129q83 -51 162 -117q-21 -73 -71 -123q-56 44 -162 111zM1122 238q73 165 169 260.5t203 95.5q105 0 181 -84.5
t76 -204.5q0 -103 -45 -167q-51 -69 -149.5 -103.5t-268.5 -34.5q-68 0 -144 19q-41 -63 -76 -122l-21 17q8 96 15 142q-49 29 -81.5 65.5t-46 65t-29 53.5t-44.5 39t-78 14q-68 0 -122 -37t-54 -61q0 -40 125 -66q119 -22 176 -70t57 -142q0 -65 -37 -150
q-162 -163 -412 -163q-174 0 -288.5 136t-114.5 342q0 106 33 213l62 -25q-17 -70 -17 -127q0 -64 19 -122.5t57.5 -107.5t106.5 -78.5t156 -29.5q179 0 331 104l-1 3q-17 17 -122 37q-117 15 -170 66t-53 145q0 79 57 167q45 70 110 110t133 40q46 0 75 -16t47 -43.5
t36.5 -57.5t56 -64t92.5 -58zM1200 210q72 -10 141 -10q96 0 180.5 21.5t131.5 64.5q-25 64 -69.5 99t-96.5 35q-159 0 -287 -210z" />
    <glyph glyph-name="uniFD0D" unicode="&#xfeb7;&#xfeae;" horiz-adv-x="1497" arabic-form="isolated" 
d="M1031 658l77 113q78 -55 139 -118q-24 -56 -75 -107q-43 36 -141 112zM814 648l77 113q76 -55 139 -118q-24 -56 -75 -107q-56 47 -141 112zM864 868l77 113q81 -59 139 -118q-24 -56 -75 -107q-43 36 -141 112zM801 383l10 -6q-3 -18 -3 -36q0 -55 31 -98t83 -43
q47 0 81 29q7 6 12 13t9 13t7 16.5t4.5 16.5t3 19t2.5 19t2 22.5t2 22.5q29 24 68 47l10 -7q-4 -23 -4 -49q0 -86 45 -126q38 -33 90 -33q39 0 46 19q-35 109 -64 173q58 78 91 117l15 -6q62 -189 62 -262q0 -71 -34 -141q-56 -100 -130 -100q-77 0 -153 85h-2
q-70 -88 -151 -88q-138 0 -187 180q-99 -29 -181 -69l4 -27q5 -28 11 -86q16 -50 16 -108q0 -83 -48 -161q-79 -127 -183 -127q-119 0 -290 109l16 50q56 -18 116 -18q54 0 122.5 34.5t111.5 87.5q63 77 60 118q-1 20 -92 100l15 177q232 97 376 123z" />
    <glyph glyph-name="uniFD0E" unicode="&#xfeb3;&#xfeae;" horiz-adv-x="1497" arabic-form="isolated" 
d="M801 383l10 -6q-3 -18 -3 -36q0 -55 31 -98t83 -43q47 0 81 29q7 6 12 13t9 13t7 16.5t4.5 16.5t3 19t2.5 19t2 22.5t2 22.5q29 24 68 47l10 -7q-4 -23 -4 -49q0 -86 45 -126q38 -33 90 -33q39 0 46 19q-35 109 -64 173q58 78 91 117l15 -6q62 -189 62 -262
q0 -71 -34 -141q-56 -100 -130 -100q-77 0 -153 85h-2q-70 -88 -151 -88q-138 0 -187 180q-99 -29 -181 -69l4 -27q5 -28 11 -86q16 -50 16 -108q0 -83 -48 -161q-79 -127 -183 -127q-119 0 -290 109l16 50q56 -18 116 -18q54 0 122.5 34.5t111.5 87.5q63 77 60 118
q-1 20 -92 100l15 177q232 97 376 123z" />
    <glyph glyph-name="uniFD0F" unicode="&#xfebb;&#xfeae;" horiz-adv-x="1681" arabic-form="isolated" 
d="M950 238q73 165 169 260.5t203 95.5q105 0 181 -84.5t76 -204.5q0 -103 -45 -167q-51 -69 -149 -103.5t-265 -34.5q-84 0 -159 29q-41 -69 -80 -138l-28 24q3 66 25 157q-78 64 -104 139q-143 -51 -202 -84l8 -51q3 -19 10.5 -59t11 -66.5t3.5 -46.5q0 -92 -56 -176
q-81 -120 -188 -120q-114 0 -284 113l16 48q53 -21 103 -21q119 0 214 84q41 36 72.5 82.5t31.5 75.5q0 25 -74 92l-12 12q7 100 21 186q134 65 356 137l8 -6q30 -119 137 -173zM1033 210q72 -10 141 -10q96 0 180.5 21.5t131.5 64.5q-25 64 -69.5 99t-96.5 35
q-159 0 -287 -210z" />
    <glyph glyph-name="uniFD10" unicode="&#xfebf;&#xfeae;" horiz-adv-x="1683" arabic-form="isolated" 
d="M979 812l71 129q83 -51 162 -117q-21 -73 -71 -123q-56 44 -162 111zM950 238q73 165 169 260.5t203 95.5q105 0 181 -84.5t76 -204.5q0 -103 -45 -167q-51 -69 -149 -103.5t-265 -34.5q-84 0 -159 29q-41 -69 -80 -138l-28 24q3 66 25 157q-78 64 -104 139
q-143 -51 -202 -84l8 -51q3 -19 10.5 -59t11 -66.5t3.5 -46.5q0 -92 -56 -176q-81 -120 -188 -120q-114 0 -284 113l16 48q53 -21 103 -21q119 0 214 84q41 36 72.5 82.5t31.5 75.5q0 25 -74 92l-12 12q7 100 21 186q134 65 356 137l8 -6q30 -119 137 -173zM1033 210
q72 -10 141 -10q96 0 180.5 21.5t131.5 64.5q-25 64 -69.5 99t-96.5 35q-159 0 -287 -210z" />
    <glyph glyph-name="uniFD17" unicode="&#xfeb4;&#xfef0;" horiz-adv-x="1776" arabic-form="final" 
d="M1771 200l32 -200h-14q-173 0 -242 93h-3q-67 -93 -157 -93q-79 0 -118 82h-3q-57 -82 -134 -82q-134 0 -225 229q-45 64 -124 64q-68 0 -122 -37t-54 -61q0 -39 125 -65q118 -22 175.5 -70.5t57.5 -142.5q0 -65 -37 -150q-162 -163 -412 -163q-174 0 -288.5 136
t-114.5 342q0 106 33 213l62 -25q-17 -70 -17 -127q0 -64 19 -122.5t57.5 -107.5t106.5 -78.5t156 -29.5q179 0 331 104l-1 3q-17 17 -122 37q-117 15 -170 66t-53 145q0 79 57 167q45 70 110 110t133 40q57 0 106 -44q25 -25 38.5 -60t30 -70t50.5 -64q45 -39 93 -39
q45 0 73 39q20 28 38 130q40 22 79 41l12 -13q-18 -68 -18 -115q0 -82 65 -82q48 0 79 41q28 38 42 153q36 26 75 47l10 -7q-12 -65 -12 -107q0 -127 181 -127h14z" />
    <glyph glyph-name="uniFD18" unicode="&#xfeb4;&#xfef2;" horiz-adv-x="1776" arabic-form="final" 
d="M367 -569l78 123q83 -56 158 -125q-28 -61 -76 -121q-84 70 -160 123zM600 -553l79 123q89 -61 157 -125q-27 -58 -75 -121q-95 78 -161 123zM1771 200l32 -200h-14q-173 0 -242 93h-3q-67 -93 -157 -93q-79 0 -118 82h-3q-57 -82 -134 -82q-134 0 -225 229
q-45 64 -124 64q-68 0 -122 -37t-54 -61q0 -39 125 -65q118 -22 175.5 -70.5t57.5 -142.5q0 -65 -37 -150q-162 -163 -412 -163q-174 0 -288.5 136t-114.5 342q0 106 33 213l62 -25q-17 -70 -17 -127q0 -64 19 -122.5t57.5 -107.5t106.5 -78.5t156 -29.5q179 0 331 104l-1 3
q-17 17 -122 37q-117 15 -170 66t-53 145q0 79 57 167q45 70 110 110t133 40q57 0 106 -44q25 -25 38.5 -60t30 -70t50.5 -64q45 -39 93 -39q45 0 73 39q20 28 38 130q40 22 79 41l12 -13q-18 -68 -18 -115q0 -82 65 -82q48 0 79 41q28 38 42 153q36 26 75 47l10 -7
q-12 -65 -12 -107q0 -127 181 -127h14z" />
    <glyph glyph-name="uniFD19" unicode="&#xfeb8;&#xfef0;" horiz-adv-x="1776" arabic-form="final" 
d="M1256 658l77 113q78 -55 139 -118q-24 -56 -75 -107q-43 36 -141 112zM1039 648l77 113q76 -55 139 -118q-24 -56 -75 -107q-56 47 -141 112zM1089 868l77 113q81 -59 139 -118q-24 -56 -75 -107q-43 36 -141 112zM1771 200l32 -200h-14q-173 0 -242 93h-3
q-67 -93 -157 -93q-79 0 -118 82h-3q-57 -82 -134 -82q-134 0 -225 229q-45 64 -124 64q-68 0 -122 -37t-54 -61q0 -39 125 -65q118 -22 175.5 -70.5t57.5 -142.5q0 -65 -37 -150q-162 -163 -412 -163q-174 0 -288.5 136t-114.5 342q0 106 33 213l62 -25q-17 -70 -17 -127
q0 -64 19 -122.5t57.5 -107.5t106.5 -78.5t156 -29.5q179 0 331 104l-1 3q-17 17 -122 37q-117 15 -170 66t-53 145q0 79 57 167q45 70 110 110t133 40q57 0 106 -44q25 -25 38.5 -60t30 -70t50.5 -64q45 -39 93 -39q45 0 73 39q20 28 38 130q40 22 79 41l12 -13
q-18 -68 -18 -115q0 -82 65 -82q48 0 79 41q28 38 42 153q36 26 75 47l10 -7q-12 -65 -12 -107q0 -127 181 -127h14z" />
    <glyph glyph-name="uniFD1A" unicode="&#xfeb8;&#xfef2;" horiz-adv-x="1776" arabic-form="final" 
d="M367 -569l78 123q83 -56 158 -125q-28 -61 -76 -121q-84 70 -160 123zM600 -553l79 123q89 -61 157 -125q-27 -58 -75 -121q-95 78 -161 123zM1256 658l77 113q78 -55 139 -118q-24 -56 -75 -107q-43 36 -141 112zM1039 648l77 113q76 -55 139 -118q-24 -56 -75 -107
q-56 47 -141 112zM1089 868l77 113q81 -59 139 -118q-24 -56 -75 -107q-43 36 -141 112zM1771 200l32 -200h-14q-173 0 -242 93h-3q-67 -93 -157 -93q-79 0 -118 82h-3q-57 -82 -134 -82q-134 0 -225 229q-45 64 -124 64q-68 0 -122 -37t-54 -61q0 -39 125 -65
q118 -22 175.5 -70.5t57.5 -142.5q0 -65 -37 -150q-162 -163 -412 -163q-174 0 -288.5 136t-114.5 342q0 106 33 213l62 -25q-17 -70 -17 -127q0 -64 19 -122.5t57.5 -107.5t106.5 -78.5t156 -29.5q179 0 331 104l-1 3q-17 17 -122 37q-117 15 -170 66t-53 145q0 79 57 167
q45 70 110 110t133 40q57 0 106 -44q25 -25 38.5 -60t30 -70t50.5 -64q45 -39 93 -39q45 0 73 39q20 28 38 130q40 22 79 41l12 -13q-18 -68 -18 -115q0 -82 65 -82q48 0 79 41q28 38 42 153q36 26 75 47l10 -7q-12 -65 -12 -107q0 -127 181 -127h14z" />
    <glyph glyph-name="uniFD21" unicode="&#xfebc;&#xfef0;" horiz-adv-x="1849" arabic-form="final" 
d="M1844 200l32 -200h-14q-164 0 -329 32q-111 -32 -245 -32q-68 0 -144 19q-41 -63 -76 -122l-21 17q8 96 15 142q-49 29 -81.5 65.5t-46 65t-29 53.5t-44.5 39t-78 14q-68 0 -122 -37t-54 -61q0 -40 125 -66q119 -22 176 -70t57 -142q0 -65 -37 -150q-162 -163 -412 -163
q-174 0 -288.5 136t-114.5 342q0 106 33 213l62 -25q-17 -70 -17 -127q0 -64 19 -122.5t57.5 -107.5t106.5 -78.5t156 -29.5q179 0 331 104l-1 3q-17 17 -122 37q-117 15 -170 66t-53 145q0 79 57 167q45 70 110 110t133 40q46 0 75 -16t47 -43t36 -57t54.5 -64t89.5 -57
q81 163 171.5 251.5t200.5 88.5q109 0 182.5 -83t73.5 -194q0 -53 -18 -103h117zM1203 213q59 -13 147 -13q115 0 200.5 25t101.5 59q-65 124 -187 124q-136 0 -262 -195z" />
    <glyph glyph-name="uniFD22" unicode="&#xfebc;&#xfef2;" horiz-adv-x="1849" arabic-form="final" 
d="M367 -569l78 123q83 -56 158 -125q-28 -61 -76 -121q-84 70 -160 123zM600 -553l79 123q89 -61 157 -125q-27 -58 -75 -121q-95 78 -161 123zM1844 200l32 -200h-14q-164 0 -329 32q-111 -32 -245 -32q-68 0 -144 19q-41 -63 -76 -122l-21 17q8 96 15 142
q-49 29 -81.5 65.5t-46 65t-29 53.5t-44.5 39t-78 14q-68 0 -122 -37t-54 -61q0 -40 125 -66q119 -22 176 -70t57 -142q0 -65 -37 -150q-162 -163 -412 -163q-174 0 -288.5 136t-114.5 342q0 106 33 213l62 -25q-17 -70 -17 -127q0 -64 19 -122.5t57.5 -107.5t106.5 -78.5
t156 -29.5q179 0 331 104l-1 3q-17 17 -122 37q-117 15 -170 66t-53 145q0 79 57 167q45 70 110 110t133 40q46 0 75 -16t47 -43t36 -57t54.5 -64t89.5 -57q81 163 171.5 251.5t200.5 88.5q109 0 182.5 -83t73.5 -194q0 -53 -18 -103h117zM1203 213q59 -13 147 -13
q115 0 200.5 25t101.5 59q-65 124 -187 124q-136 0 -262 -195z" />
    <glyph glyph-name="uniFD23" unicode="&#xfec0;&#xfef0;" horiz-adv-x="1849" arabic-form="final" 
d="M1202 792l72 129q89 -55 161 -117q-21 -72 -70 -123q-59 45 -163 111zM1844 200l32 -200h-14q-164 0 -329 32q-111 -32 -245 -32q-68 0 -144 19q-41 -63 -76 -122l-21 17q8 96 15 142q-49 29 -81.5 65.5t-46 65t-29 53.5t-44.5 39t-78 14q-68 0 -122 -37t-54 -61
q0 -40 125 -66q119 -22 176 -70t57 -142q0 -65 -37 -150q-162 -163 -412 -163q-174 0 -288.5 136t-114.5 342q0 106 33 213l62 -25q-17 -70 -17 -127q0 -64 19 -122.5t57.5 -107.5t106.5 -78.5t156 -29.5q179 0 331 104l-1 3q-17 17 -122 37q-117 15 -170 66t-53 145
q0 79 57 167q45 70 110 110t133 40q46 0 75 -16t47 -43t36 -57t54.5 -64t89.5 -57q81 163 171.5 251.5t200.5 88.5q109 0 182.5 -83t73.5 -194q0 -53 -18 -103h117zM1203 213q59 -13 147 -13q115 0 200.5 25t101.5 59q-65 124 -187 124q-136 0 -262 -195z" />
    <glyph glyph-name="uniFD24" unicode="&#xfec0;&#xfef2;" horiz-adv-x="1849" arabic-form="final" 
d="M367 -569l78 123q83 -56 158 -125q-28 -61 -76 -121q-84 70 -160 123zM600 -553l79 123q89 -61 157 -125q-27 -58 -75 -121q-95 78 -161 123zM1202 792l72 129q89 -55 161 -117q-21 -72 -70 -123q-59 45 -163 111zM1844 200l32 -200h-14q-164 0 -329 32
q-111 -32 -245 -32q-68 0 -144 19q-41 -63 -76 -122l-21 17q8 96 15 142q-49 29 -81.5 65.5t-46 65t-29 53.5t-44.5 39t-78 14q-68 0 -122 -37t-54 -61q0 -40 125 -66q119 -22 176 -70t57 -142q0 -65 -37 -150q-162 -163 -412 -163q-174 0 -288.5 136t-114.5 342
q0 106 33 213l62 -25q-17 -70 -17 -127q0 -64 19 -122.5t57.5 -107.5t106.5 -78.5t156 -29.5q179 0 331 104l-1 3q-17 17 -122 37q-117 15 -170 66t-53 145q0 79 57 167q45 70 110 110t133 40q46 0 75 -16t47 -43t36 -57t54.5 -64t89.5 -57q81 163 171.5 251.5t200.5 88.5
q109 0 182.5 -83t73.5 -194q0 -53 -18 -103h117zM1203 213q59 -13 147 -13q115 0 200.5 25t101.5 59q-65 124 -187 124q-136 0 -262 -195z" />
    <glyph glyph-name="uniFD29" unicode="&#xfeb8;&#xfeae;" horiz-adv-x="1590" arabic-form="final" 
d="M1071 658l77 113q78 -55 139 -118q-24 -56 -75 -107q-43 36 -141 112zM854 648l77 113q76 -55 139 -118q-24 -56 -75 -107q-56 47 -141 112zM904 868l77 113q81 -59 139 -118q-24 -56 -75 -107q-43 36 -141 112zM1585 200l32 -200h-14q-173 0 -242 93h-3
q-67 -93 -157 -93q-79 0 -118 82h-3q-57 -82 -146 -82q-138 0 -187 180q-99 -29 -181 -69l4 -27q5 -28 11 -86q16 -50 16 -108q0 -83 -48 -161q-79 -127 -183 -127q-119 0 -290 109l16 50q56 -18 116 -18q54 0 122.5 34.5t111.5 87.5q61 75 60 118q-3 22 -92 100l15 177
q232 97 376 123l10 -6q-3 -18 -3 -36q0 -57 32.5 -98.5t90.5 -42.5q57 0 89 39q20 31 38 130q40 22 79 41l12 -13q-18 -68 -18 -115q0 -82 65 -82q51 0 79 41q28 34 42 153q36 26 75 47l10 -7q-12 -65 -12 -107q0 -127 181 -127h14z" />
    <glyph glyph-name="uniFD2A" unicode="&#xfeb4;&#xfeae;" horiz-adv-x="1590" arabic-form="final" 
d="M1585 200l32 -200h-14q-173 0 -242 93h-3q-67 -93 -157 -93q-79 0 -118 82h-3q-57 -82 -146 -82q-138 0 -187 180q-99 -29 -181 -69l4 -27q5 -28 11 -86q16 -50 16 -108q0 -83 -48 -161q-79 -127 -183 -127q-119 0 -290 109l16 50q56 -18 116 -18q54 0 122.5 34.5
t111.5 87.5q61 75 60 118q-3 22 -92 100l15 177q232 97 376 123l10 -6q-3 -18 -3 -36q0 -57 32.5 -98.5t90.5 -42.5q57 0 89 39q20 31 38 130q40 22 79 41l12 -13q-18 -68 -18 -115q0 -82 65 -82q51 0 79 41q28 34 42 153q36 26 75 47l10 -7q-12 -65 -12 -107
q0 -127 181 -127h14z" />
    <glyph glyph-name="uniFD2B" unicode="&#xfebc;&#xfeae;" horiz-adv-x="1681" arabic-form="final" 
d="M1676 200l32 -200h-14q-164 0 -329 32q-111 -32 -245 -32q-84 0 -159 29q-41 -69 -80 -138l-28 24q3 66 25 157q-78 64 -104 139q-143 -51 -202 -84l8 -51q25 -139 25 -172q0 -92 -56 -176q-81 -120 -188 -120q-114 0 -284 113l16 48q53 -21 103 -21q119 0 214 84
q41 36 72.5 82.5t31.5 75.5q0 25 -74 92l-12 12q7 100 21 186q134 65 356 137l8 -6q30 -119 137 -173q80 163 170.5 252.5t200.5 89.5q109 0 182.5 -83t73.5 -194q0 -53 -18 -103h117zM1035 213q59 -13 147 -13q115 0 200.5 25t101.5 59q-65 124 -187 124q-136 0 -262 -195z
" />
    <glyph glyph-name="uniFD2C" unicode="&#xfec0;&#xfeae;" horiz-adv-x="1681" arabic-form="final" 
d="M992 792l72 129q89 -55 161 -117q-21 -72 -70 -123q-59 45 -163 111zM1676 200l32 -200h-14q-164 0 -329 32q-111 -32 -245 -32q-84 0 -159 29q-41 -69 -80 -138l-28 24q3 66 25 157q-78 64 -104 139q-143 -51 -202 -84l8 -51q25 -139 25 -172q0 -92 -56 -176
q-81 -120 -188 -120q-114 0 -284 113l16 48q53 -21 103 -21q119 0 214 84q41 36 72.5 82.5t31.5 75.5q0 25 -74 92l-12 12q7 100 21 186q134 65 356 137l8 -6q30 -119 137 -173q80 163 170.5 252.5t200.5 89.5q109 0 182.5 -83t73.5 -194q0 -53 -18 -103h117zM1035 213
q59 -13 147 -13q115 0 200.5 25t101.5 59q-65 124 -187 124q-136 0 -262 -195z" />
    <glyph glyph-name="uniFEF5" unicode="&#xfedf;&#xfe82;" horiz-adv-x="940" arabic-form="isolated" 
d="M-36 940h-16l-64 80q-1 7 -1 21q0 97 79 97q22 0 100 -15t130 -15q72 0 119 51l13 -7l-17 -105q-46 -49 -118 -49q-46 0 -107 8.5t-72 8.5q-16 0 -19 -4zM343 737l-37 -74q24 -29 84 -100.5t76.5 -92.5t53.5 -72t49.5 -78.5t28 -70t22.5 -86.5q29 19 44 45t15 72
q0 32 -5 61q-27 174 -56 300.5t-42.5 177t-13.5 79.5q0 68 77 134l19 -11q-2 -8 -2 -14q0 -52 151 -251l-81 -67l30 -190q17 -107 17 -193q0 -129 -38 -223q-31 -76 -90 -115t-168 -39q-143 0 -308 61l-4 25q284 66 404 125q-11 37 -104 150t-275 316q-41 46 -56 64t-37 48
t-29 52.5t-7 47.5q0 52 31 120l13 -1q49 -64 238 -200z" />
    <glyph glyph-name="uniFEF6" unicode="&#xfee0;&#xfe82;" horiz-adv-x="948" arabic-form="final" 
d="M-36 940h-16l-64 80q-1 7 -1 21q0 97 79 97q22 0 100 -15t130 -15q72 0 119 51l13 -7l-17 -105q-46 -49 -118 -49q-46 0 -107 8.5t-72 8.5q-16 0 -19 -4zM328 777l-31 -79q20 -25 70.5 -86.5t68 -84t51.5 -70t48 -77t29.5 -71t22.5 -83.5l3 -1q52 64 52 154q0 34 -5 63
q-29 181 -98 491q58 66 92 98l13 -6q32 -139 107 -608q34 -217 178 -217h14l32 -200h-14q-193 0 -258 209h-4q-5 -52 -26.5 -93.5t-51 -68t-68 -43.5t-77 -24t-78.5 -7q-111 0 -195 27l-4 19q214 79 337 176q-49 109 -313 396q-19 20 -57.5 60t-56.5 60t-36 47t-21 48
q-2 9 -2 29q0 40 14 98h14q73 -66 250 -156z" />
    <glyph glyph-name="uniFEF7" unicode="&#xfedf;&#xfe84;" horiz-adv-x="870" arabic-form="isolated" 
d="M108 1168h-13l-32 30q-14 14 -35 14q-26 0 -44 -10.5t-18 -22.5q0 -21 39.5 -38t99.5 -17q47 0 100 3l6 -9q-10 -38 -29 -81q-167 -22 -237 -72l-14 12q12 39 27 75q-75 32 -75 92q0 51 47 101q53 53 115 53q35 0 58 -18.5t23 -48.5q0 -29 -18 -63zM273 737l-37 -74
q24 -29 84 -100.5t76.5 -92.5t53.5 -72t49.5 -78.5t28 -70t22.5 -86.5q29 19 44 45t15 72q0 32 -5 61q-27 174 -56 300.5t-42.5 177t-13.5 79.5q0 68 77 134l19 -11q-2 -8 -2 -14q0 -52 151 -251l-81 -67l30 -190q17 -107 17 -193q0 -129 -38 -223q-31 -76 -90 -115
t-168 -39q-143 0 -308 61l-4 25q284 66 404 125q-11 37 -104 150t-275 316q-41 46 -56 64t-37 48t-29 52.5t-7 47.5q0 52 31 120l13 -1q49 -64 238 -200z" />
    <glyph glyph-name="uniFEF8" unicode="&#xfee0;&#xfe84;" horiz-adv-x="898" arabic-form="final" 
d="M278 777l-31 -79q20 -25 70.5 -86.5t68 -84t51.5 -70t48 -77t29.5 -71t22.5 -83.5l3 -1q52 64 52 154q0 34 -5 63q-29 181 -98 491q58 66 92 98l13 -6q32 -139 107 -608q34 -217 178 -217h14l32 -200h-14q-193 0 -258 209h-4q-5 -52 -26.5 -93.5t-51 -68t-68 -43.5
t-77 -24t-78.5 -7q-111 0 -195 27l-4 19q214 79 337 176q-49 109 -313 396q-18 19 -57 60t-56.5 60t-35.5 46.5t-21 48.5q-2 9 -2 29q0 40 14 98h13q73 -66 250 -156zM108 1168h-13l-32 30q-14 14 -35 14q-26 0 -44 -10.5t-18 -22.5q0 -21 39.5 -38t99.5 -17q47 0 100 3
l6 -9q-10 -38 -29 -81q-167 -22 -237 -72l-14 12q12 39 27 75q-75 32 -75 92q0 51 47 101q53 53 115 53q35 0 58 -18.5t23 -48.5q0 -29 -18 -63z" />
    <glyph glyph-name="uniFEF9" unicode="&#xfedf;&#xfe88;" horiz-adv-x="850" arabic-form="isolated" 
d="M373 -260h-13l-32 30q-14 14 -35 14q-26 0 -44 -10.5t-18 -22.5q0 -21 39.5 -38t99.5 -17q48 0 100 3l6 -9q-10 -38 -29 -81q-167 -22 -237 -72l-14 12q12 39 27 75q-75 32 -75 92q0 51 47 101q53 53 115 53q35 0 58 -18.5t23 -48.5q0 -29 -18 -63zM253 737l-37 -74
q24 -29 84 -100.5t76.5 -92.5t53.5 -72t49.5 -78.5t28 -70t22.5 -86.5q29 19 44 45t15 72q0 32 -5 61q-27 174 -56 300.5t-42.5 177t-13.5 79.5q0 68 77 134l19 -11q-2 -8 -2 -14q0 -52 151 -251l-81 -67l30 -190q17 -107 17 -193q0 -129 -38 -223q-31 -76 -90 -115
t-168 -39q-143 0 -308 61l-4 25q284 66 404 125q-11 37 -104 150t-275 316q-41 46 -56 64t-37 48t-29 52.5t-7 47.5q0 52 31 120l13 -1q49 -64 238 -200z" />
    <glyph glyph-name="uniFEFA" unicode="&#xfee0;&#xfe88;" horiz-adv-x="858" arabic-form="final" 
d="M238 777l-31 -79q20 -25 70.5 -86.5t68 -84t51.5 -70t48 -77t29.5 -71t22.5 -83.5l3 -1q52 64 52 154q0 34 -5 63q-29 181 -98 491q58 66 92 98l13 -6q32 -139 107 -608q34 -217 178 -217h14l32 -200h-14q-193 0 -258 209h-4q-5 -52 -26.5 -93.5t-51 -68t-68 -43.5
t-77 -24t-78.5 -7q-111 0 -195 27l-4 19q214 79 337 176q-49 109 -313 396q-18 19 -57 60t-56.5 60t-35.5 46.5t-21 48.5q-2 9 -2 29q0 40 14 98h14q71 -66 249 -156zM407 -220h-13l-32 30q-14 14 -35 14q-26 0 -44 -10.5t-18 -22.5q0 -21 39.5 -38t99.5 -17q48 0 100 3
l6 -9q-10 -38 -29 -81q-167 -22 -237 -72l-14 12q12 39 27 75q-75 32 -75 92q0 51 47 101q53 53 115 53q35 0 58 -18.5t23 -48.5q0 -29 -18 -63z" />
    <glyph glyph-name="uniFEFB" unicode="&#xfedf;&#xfe8e;" horiz-adv-x="850" arabic-form="isolated" 
d="M253 737l-37 -74q24 -29 84 -100.5t76.5 -92.5t53.5 -72t49.5 -78.5t28 -70t22.5 -86.5q29 19 44 45t15 72q0 32 -5 61q-27 174 -56 300.5t-42.5 177t-13.5 79.5q0 68 77 134l19 -11q-2 -8 -2 -14q0 -52 151 -251l-81 -67l30 -190q17 -107 17 -193q0 -129 -38 -223
q-31 -76 -90 -115t-168 -39q-143 0 -308 61l-4 25q284 66 404 125q-11 37 -104 150t-275 316q-41 46 -56 64t-37 48t-29 52.5t-7 47.5q0 52 31 120l13 -1q49 -64 238 -200z" />
    <glyph glyph-name="uniFEFC" unicode="&#xfee0;&#xfe8e;" horiz-adv-x="858" arabic-form="final" 
d="M238 777l-31 -79q20 -25 70.5 -86.5t68 -84t51.5 -70t48 -77t29.5 -71t22.5 -83.5l3 -1q52 64 52 154q0 34 -5 63q-29 181 -98 491q58 66 92 98l13 -6q32 -139 107 -608q34 -217 178 -217h14l32 -200h-14q-193 0 -258 209h-4q-5 -52 -26.5 -93.5t-51 -68t-68 -43.5
t-77 -24t-78.5 -7q-111 0 -195 27l-4 19q214 79 337 176q-49 109 -313 396q-18 19 -57 60t-56.5 60t-35.5 46.5t-21 48.5q-2 9 -2 29q0 40 14 98h14q71 -66 249 -156z" />
    <glyph glyph-name="uni06260645.init" unicode="&#xfe8b;&#xfee4;" horiz-adv-x="811" 
d="M677 356l-16 -2q-54 69 -146 69q-70 0 -121 -36.5t-68 -101.5l5 -3q47 31 105 31q81 0 144 -76.5t63 -176.5q0 -80 -39.5 -139t-114.5 -59q-78 0 -141 58t-94 155l-6 1q-55 -76 -206 -76h-15q-49 0 -70 41t-21 84q0 75 60 75h14q165 0 221 55q11 161 88.5 255t202.5 94
q77 0 120.5 -45t43.5 -120q0 -31 -9 -83zM337 135q68 -115 186 -115q15 0 24.5 6t9.5 15q0 30 -43.5 71.5t-95.5 41.5q-51 0 -81 -19zM539 848h-13l-32 30q-14 14 -35 14q-26 0 -44 -10.5t-18 -22.5q0 -21 39.5 -38t99.5 -17q48 0 100 3l6 -9q-10 -38 -29 -81
q-167 -22 -237 -72l-14 12q12 39 27 75q-75 32 -75 92q0 51 47 101q53 53 115 53q35 0 58 -18.5t23 -48.5q0 -29 -18 -63z" />
    <glyph glyph-name="uni06260649" unicode="&#xfe8b;&#xfef0;" horiz-adv-x="1028" 
d="M676 681h12q80 -115 116.5 -187.5t36.5 -142.5q0 -51 -24 -117q88 -17 124 -65t36 -132q0 -57 -21 -134q-70 -101 -184.5 -160.5t-248.5 -59.5q-80 0 -147 27.5t-114 74.5t-80 110.5t-48.5 135t-15.5 147.5q0 102 24 196l60 -24q-12 -72 -12 -120q0 -154 91.5 -247.5
t234.5 -93.5q87 0 194.5 39t177.5 103q-68 51 -339 59l-9 11l41 147q162 37 158 67q-6 35 -142 214q46 97 79 152zM669 913h-13l-32 30q-14 14 -35 14q-26 0 -44 -10.5t-18 -22.5q0 -21 39.5 -38t99.5 -17q48 0 100 3l6 -9q-10 -38 -29 -81q-167 -22 -237 -72l-14 12
q12 39 27 75q-75 32 -75 92q0 51 47 101q53 53 115 53q35 0 58 -18.5t23 -48.5q0 -28 -18 -63z" />
    <glyph glyph-name="uni0626064A" unicode="&#xfe8b;&#xfef2;" horiz-adv-x="1028" 
d="M350 -525l78 123q88 -59 158 -125q-28 -61 -76 -121q-90 75 -160 123zM583 -509l79 123q89 -61 157 -125q-27 -58 -75 -121q-95 78 -161 123zM669 913h-13l-32 30q-14 14 -35 14q-26 0 -44 -10.5t-18 -22.5q0 -21 39.5 -38t99.5 -17q48 0 100 3l6 -9q-10 -38 -29 -81
q-167 -22 -237 -72l-14 12q12 39 27 75q-75 32 -75 92q0 51 47 101q53 53 115 53q35 0 58 -18.5t23 -48.5q0 -28 -18 -63zM676 681h12q80 -115 116.5 -187.5t36.5 -142.5q0 -51 -24 -117q88 -17 124 -65t36 -132q0 -57 -21 -134q-70 -101 -184.5 -160.5t-248.5 -59.5
q-80 0 -147 27.5t-114 74.5t-80 110.5t-48.5 135t-15.5 147.5q0 102 24 196l60 -24q-12 -72 -12 -120q0 -154 91.5 -247.5t234.5 -93.5q87 0 194.5 39t177.5 103q-68 51 -339 59l-9 11l41 147q162 37 158 67q-6 35 -142 214q46 97 79 152z" />
    <glyph glyph-name="uni06280645.init" unicode="&#xfe91;&#xfee4;" horiz-adv-x="802" 
d="M543 -358l72 129q89 -55 161 -117q-21 -74 -70 -123q-59 45 -163 111zM677 356l-16 -2q-54 69 -146 69q-70 0 -121 -36.5t-68 -101.5l5 -3q47 31 105 31q81 0 144 -76.5t63 -176.5q0 -80 -39.5 -139t-114.5 -59q-78 0 -141 58t-94 155l-6 1q-55 -76 -206 -76h-15
q-49 0 -70 41t-21 84q0 75 60 75h14q165 0 221 55q11 161 88.5 255t202.5 94q77 0 120.5 -45t43.5 -120q0 -31 -9 -83zM337 135q68 -115 186 -115q15 0 24.5 6t9.5 15q0 30 -43.5 71.5t-95.5 41.5q-51 0 -81 -19z" />
    <glyph glyph-name="uni06280646.fina" unicode="&#xfe92;&#xfee6;" horiz-adv-x="1120" 
d="M881 -278l71 129q83 -51 162 -117q-23 -75 -71 -123q-63 49 -162 111zM205 644l73 132q95 -59 164 -119q-21 -75 -72 -126q-62 49 -165 113zM1115 200l32 -200h-15q-29 0 -54.5 5t-45.5 12t-39 22.5t-32 27.5t-28 36t-24 39.5t-22 46t-20 48t-20 53.5l-9 20l-5 1
q-24 -71 -90 -91q45 -111 45 -234q0 -68 -19 -118q-47 -80 -129 -124t-167 -44q-165 0 -267.5 127t-102.5 315q0 75 20 153l56 -21q-4 -32 -4 -69q0 -130 75 -216.5t201 -86.5q81 0 157.5 42t99.5 97q-29 86 -74.5 141.5t-113.5 107.5q9 107 20 181l11 2q36 -27 58 -41.5
t52.5 -27.5t55.5 -13q40 0 60.5 22.5t38 69.5t31.5 68l19 -2q9 -20 28.5 -76t41 -107.5t42.5 -84.5q52 -81 123 -81h14z" />
    <glyph glyph-name="uni06280649" unicode="&#xfe91;&#xfef0;" horiz-adv-x="1022" 
d="M772 -478l72 129q89 -55 161 -117q-21 -74 -70 -123q-59 45 -163 111zM676 681h12q80 -115 116.5 -187.5t36.5 -142.5q0 -51 -24 -117q88 -17 124 -65t36 -132q0 -57 -21 -134q-70 -101 -184.5 -160.5t-248.5 -59.5q-80 0 -147 27.5t-114 74.5t-80 110.5t-48.5 135
t-15.5 147.5q0 102 24 196l60 -24q-12 -72 -12 -120q0 -154 91.5 -247.5t234.5 -93.5q87 0 194.5 39t177.5 103q-68 51 -339 59l-9 11l41 147q162 37 158 67q-6 35 -142 214q46 97 79 152z" />
    <glyph glyph-name="uni0628064A" unicode="&#xfe91;&#xfef2;" horiz-adv-x="1022" 
d="M841 -468l71 129q83 -51 162 -117q-23 -75 -71 -123q-56 44 -162 111zM293 -545l78 123q88 -59 158 -125q-28 -61 -76 -121q-90 75 -160 123zM526 -529l79 123q83 -56 158 -125q-32 -65 -76 -121q-86 71 -161 123zM676 681h12q80 -115 116.5 -187.5t36.5 -142.5
q0 -51 -24 -117q88 -17 124 -65t36 -132q0 -57 -21 -134q-70 -101 -184.5 -160.5t-248.5 -59.5q-80 0 -147 27.5t-114 74.5t-80 110.5t-48.5 135t-15.5 147.5q0 102 24 196l60 -24q-12 -72 -12 -120q0 -154 91.5 -247.5t234.5 -93.5q87 0 194.5 39t177.5 103q-68 51 -339 59
l-9 11l41 147q162 37 158 67q-6 35 -142 214q46 97 79 152z" />
    <glyph glyph-name="uni062A0645.init" unicode="&#xfe97;&#xfee4;" horiz-adv-x="820" 
d="M444 804l84 107q73 -57 134 -124q-29 -55 -82 -102q-44 41 -136 119zM235 795l84 107q78 -62 133 -124q-30 -58 -82 -102q-54 50 -135 119zM677 356l-16 -2q-54 69 -146 69q-70 0 -121 -36.5t-68 -101.5l5 -3q47 31 105 31q81 0 144 -76.5t63 -176.5q0 -80 -39.5 -139
t-114.5 -59q-78 0 -141 58t-94 155l-6 1q-55 -76 -206 -76h-15q-49 0 -70 41t-21 84q0 75 60 75h14q165 0 221 55q11 161 88.5 255t202.5 94q77 0 120.5 -45t43.5 -120q0 -31 -9 -83zM337 135q68 -115 186 -115q15 0 24.5 6t9.5 15q0 30 -43.5 71.5t-95.5 41.5
q-51 0 -81 -19z" />
    <glyph glyph-name="uni062A0646.fina" unicode="&#xfe98;&#xfee6;" horiz-adv-x="1120" 
d="M773 719l84 107q78 -62 133 -124q-30 -58 -82 -102q-54 50 -135 119zM563 710l84 107q73 -57 134 -124q-29 -55 -82 -102q-58 53 -136 119zM205 644l73 132q95 -59 164 -119q-21 -75 -72 -126q-62 49 -165 113zM1115 200l32 -200h-15q-29 0 -54.5 5t-45.5 12t-39 22.5
t-32 27.5t-28 36t-24 39.5t-22 46t-20 48t-20 53.5l-9 20l-5 1q-24 -71 -90 -91q45 -111 45 -234q0 -68 -19 -118q-47 -80 -129 -124t-167 -44q-165 0 -267.5 127t-102.5 315q0 75 20 153l56 -21q-4 -32 -4 -69q0 -130 75 -216.5t201 -86.5q81 0 157.5 42t99.5 97
q-29 86 -74.5 141.5t-113.5 107.5q9 107 20 181l11 2q36 -27 58 -41.5t52.5 -27.5t55.5 -13q40 0 60.5 22.5t38 69.5t31.5 68l19 -2q9 -20 28.5 -76t41 -107.5t42.5 -84.5q52 -81 123 -81h14z" />
    <glyph glyph-name="uni062A0649" unicode="&#xfe97;&#xfef0;" horiz-adv-x="1028" 
d="M568 873l84 107q73 -57 134 -124q-29 -55 -82 -102q-44 41 -136 119zM359 864l84 107q78 -62 133 -124q-30 -57 -81 -102q-58 53 -136 119zM676 681h12q80 -115 116.5 -187.5t36.5 -142.5q0 -51 -24 -117q88 -17 124 -65t36 -132q0 -57 -21 -134q-70 -101 -184.5 -160.5
t-248.5 -59.5q-80 0 -147 27.5t-114 74.5t-80 110.5t-48.5 135t-15.5 147.5q0 102 24 196l60 -24q-12 -72 -12 -120q0 -154 91.5 -247.5t234.5 -93.5q87 0 194.5 39t177.5 103q-68 51 -339 59l-9 11l41 147q162 37 158 67q-6 35 -142 214q46 97 79 152z" />
    <glyph glyph-name="uni062A064A" unicode="&#xfe97;&#xfef2;" horiz-adv-x="1028" 
d="M568 873l84 107q73 -57 134 -124q-29 -55 -82 -102q-44 41 -136 119zM359 864l84 107q78 -62 133 -124q-30 -57 -81 -102q-58 53 -136 119zM350 -525l78 123q88 -59 158 -125q-28 -61 -76 -121q-90 75 -160 123zM583 -509l79 123q89 -61 157 -125q-27 -58 -75 -121
q-95 78 -161 123zM676 681h12q80 -115 116.5 -187.5t36.5 -142.5q0 -51 -24 -117q88 -17 124 -65t36 -132q0 -57 -21 -134q-70 -101 -184.5 -160.5t-248.5 -59.5q-80 0 -147 27.5t-114 74.5t-80 110.5t-48.5 135t-15.5 147.5q0 102 24 196l60 -24q-12 -72 -12 -120
q0 -154 91.5 -247.5t234.5 -93.5q87 0 194.5 39t177.5 103q-68 51 -339 59l-9 11l41 147q162 37 158 67q-6 35 -142 214q46 97 79 152z" />
    <glyph glyph-name="uni062B0631.fina" unicode="&#xfe9c;&#xfeae;" horiz-adv-x="914" 
d="M562 714l84 107q78 -61 134 -124q-30 -58 -82 -102q-60 56 -136 119zM353 705l84 107q77 -60 134 -124q-29 -55 -82 -102q-58 53 -136 119zM403 921l84 107q78 -62 133 -124q-30 -58 -82 -102q-54 50 -135 119zM909 200l32 -200h-15q-37 0 -67.5 6.5t-53 15.5t-43 29.5
t-33.5 37t-29.5 50.5t-26 57t-27.5 69l-12 31h-3q-35 -73 -104 -89q26 -92 26 -166q0 -80 -28 -144q-70 -162 -183 -162q-101 0 -288 101l15 52q55 -19 95 -19q62 0 120 30t102 84q75 88 81 147q-6 38 -163 156q13 107 27 175l11 2q5 -4 21 -16t23 -17t21.5 -14.5t23.5 -14
t22 -10.5t25 -8t24 -2q36 0 61 18.5t35.5 40.5t23.5 55t21 46l22 -2q4 -10 43 -117t67 -151q45 -71 120 -71h14z" />
    <glyph glyph-name="uni062B0645.init" unicode="&#xfe9b;&#xfee4;" horiz-adv-x="820" 
d="M451 784l84 107q78 -61 134 -124q-29 -55 -82 -102q-60 56 -136 119zM242 775l84 107q78 -62 133 -124q-30 -57 -81 -102q-58 53 -136 119zM292 991l84 107q78 -62 133 -124q-30 -58 -82 -102q-54 50 -135 119zM677 356l-16 -2q-54 69 -146 69q-70 0 -121 -36.5
t-68 -101.5l5 -3q47 31 105 31q81 0 144 -76.5t63 -176.5q0 -80 -39.5 -139t-114.5 -59q-78 0 -141 58t-94 155l-6 1q-55 -76 -206 -76h-15q-49 0 -70 41t-21 84q0 75 60 75h14q165 0 221 55q11 161 88.5 255t202.5 94q77 0 120.5 -45t43.5 -120q0 -31 -9 -83zM337 135
q68 -115 186 -115q15 0 24.5 6t9.5 15q0 30 -43.5 71.5t-95.5 41.5q-51 0 -81 -19z" />
    <glyph glyph-name="uni062B0646.fina" unicode="&#xfe9c;&#xfee6;" horiz-adv-x="1120" 
d="M772 714l84 107q78 -61 134 -124q-30 -58 -82 -102q-60 56 -136 119zM563 705l84 107q77 -60 134 -124q-29 -55 -82 -102q-58 53 -136 119zM613 921l84 107q78 -62 133 -124q-30 -58 -82 -102q-54 50 -135 119zM205 644l73 132q95 -59 164 -119q-21 -75 -72 -126
q-62 49 -165 113zM1115 200l32 -200h-15q-29 0 -54.5 5t-45.5 12t-39 22.5t-32 27.5t-28 36t-24 39.5t-22 46t-20 48t-20 53.5l-9 20l-5 1q-24 -71 -90 -91q45 -111 45 -234q0 -68 -19 -118q-47 -80 -129 -124t-167 -44q-165 0 -267.5 127t-102.5 315q0 75 20 153l56 -21
q-4 -32 -4 -69q0 -130 75 -216.5t201 -86.5q81 0 157.5 42t99.5 97q-29 86 -74.5 141.5t-113.5 107.5q9 107 20 181l11 2q36 -27 58 -41.5t52.5 -27.5t55.5 -13q40 0 60.5 22.5t38 69.5t31.5 68l19 -2q9 -20 28.5 -76t41 -107.5t42.5 -84.5q52 -81 123 -81h14z" />
    <glyph glyph-name="uni062B0649" unicode="&#xfe9b;&#xfef0;" horiz-adv-x="1028" 
d="M590 829l84 107q73 -57 134 -124q-29 -55 -82 -102q-44 41 -136 119zM381 820l84 107q78 -62 133 -124q-30 -58 -82 -102q-54 50 -135 119zM430 1036l84 107q78 -61 134 -124q-30 -58 -82 -102q-60 56 -136 119zM679 661h12q80 -115 116.5 -187.5t36.5 -142.5
q0 -51 -24 -117q88 -17 124 -65t36 -132q0 -57 -21 -134q-70 -101 -184.5 -160.5t-248.5 -59.5q-80 0 -147 27.5t-114 74.5t-80 110.5t-48.5 135t-15.5 147.5q0 102 24 196l60 -24q-12 -72 -12 -120q0 -154 91.5 -247.5t234.5 -93.5q87 0 194.5 39t177.5 103q-68 51 -339 59
l-9 11l41 147q162 37 158 67q-6 35 -142 214q46 97 79 152z" />
    <glyph glyph-name="uni062B064A" unicode="&#xfe9b;&#xfef2;" horiz-adv-x="1028" 
d="M353 -545l78 123q88 -59 158 -125q-28 -61 -76 -121q-90 75 -160 123zM586 -529l79 123q83 -56 158 -125q-32 -65 -76 -121q-86 71 -161 123zM590 829l84 107q73 -57 134 -124q-29 -55 -82 -102q-44 41 -136 119zM381 820l84 107q78 -62 133 -124q-30 -58 -82 -102
q-54 50 -135 119zM430 1036l84 107q78 -61 134 -124q-30 -58 -82 -102q-60 56 -136 119zM679 661h12q80 -115 116.5 -187.5t36.5 -142.5q0 -51 -24 -117q88 -17 124 -65t36 -132q0 -57 -21 -134q-70 -101 -184.5 -160.5t-248.5 -59.5q-80 0 -147 27.5t-114 74.5t-80 110.5
t-48.5 135t-15.5 147.5q0 102 24 196l60 -24q-12 -72 -12 -120q0 -154 91.5 -247.5t234.5 -93.5q87 0 194.5 39t177.5 103q-68 51 -339 59l-9 11l41 147q162 37 158 67q-6 35 -142 214q46 97 79 152z" />
    <glyph glyph-name="uni06430649" unicode="&#xfedb;&#xfef0;" horiz-adv-x="1103" 
d="M674 708l-22 -76q137 -107 199.5 -185.5t62.5 -167.5q0 -67 -23 -131q104 -36 104 -179q0 -56 -18 -125q-77 -103 -197.5 -167t-246.5 -64q-109 0 -193.5 44.5t-133 118t-72.5 158.5t-24 176q0 103 26 206l66 -25q-18 -72 -18 -133q0 -146 92.5 -244t238.5 -98
q95 0 197.5 38.5t189.5 113.5l-1 4q-67 43 -350 46l-9 6q19 89 42 160q101 8 172.5 31t67.5 45q-7 43 -130 152.5t-286 203.5q-2 5 -9 23t-9.5 24.5t-8 22t-7.5 24t-5 21t-4 24t-1 22.5q0 67 66 104q127 72 501 204l8 -10q-20 -67 -58 -164q-201 -65 -426 -163v-5z" />
    <glyph glyph-name="uni06430649.fina" unicode="&#xfedc;&#xfef0;" horiz-adv-x="1340" 
d="M776 675l-30 -82q103 -70 200.5 -153t147 -129t108.5 -78.5t119 -32.5h14l32 -200h-14q-60 0 -109.5 15t-88.5 44t-67 57t-66.5 70t-65.5 67h-4q-12 -75 -36 -105q79 -52 79 -175q0 -54 -19 -128q-77 -102 -196 -165t-245 -63q-88 0 -160 29.5t-120 78t-81 113.5
t-47.5 134t-14.5 141q0 102 28 207l65 -25q-18 -66 -18 -134q0 -146 92 -243.5t238 -97.5q201 0 388 147l-1 2q-84 48 -347 48l-8 8l43 152q250 38 257 94q-44 105 -337 340q-33 86 -33 143q0 77 60 114q133 83 555 216l10 -7q-29 -88 -59 -159q-316 -98 -469 -180v-4
q113 -36 200 -59z" />
    <glyph glyph-name="uni0643064A" unicode="&#xfedb;&#xfef2;" horiz-adv-x="1103" 
d="M357 -569l78 123q83 -56 158 -125q-28 -61 -76 -121q-84 70 -160 123zM590 -553l79 123q89 -61 157 -125q-27 -58 -75 -121q-95 78 -161 123zM674 708l-22 -76q137 -107 199.5 -185.5t62.5 -167.5q0 -67 -23 -131q104 -36 104 -179q0 -56 -18 -125q-77 -103 -197.5 -167
t-246.5 -64q-109 0 -193.5 44.5t-133 118t-72.5 158.5t-24 176q0 103 26 206l66 -25q-18 -72 -18 -133q0 -146 92.5 -244t238.5 -98q95 0 197.5 38.5t189.5 113.5l-1 4q-67 43 -350 46l-9 6q19 89 42 160q101 8 172.5 31t67.5 45q-7 43 -130 152.5t-286 203.5q-2 5 -9 23
t-9.5 24.5t-8 22t-7.5 24t-5 21t-4 24t-1 22.5q0 67 66 104q127 72 501 204l8 -10q-20 -67 -58 -164q-201 -65 -426 -163v-5z" />
    <glyph glyph-name="uni0643064A.fina" unicode="&#xfedc;&#xfef2;" horiz-adv-x="1340" 
d="M357 -569l78 123q83 -56 158 -125q-28 -61 -76 -121q-84 70 -160 123zM590 -553l79 123q89 -61 157 -125q-27 -58 -75 -121q-95 78 -161 123zM776 675l-30 -82q103 -70 200.5 -153t147 -129t108.5 -78.5t119 -32.5h14l32 -200h-14q-60 0 -109.5 15t-88.5 44t-67 57
t-66.5 70t-65.5 67h-4q-12 -75 -36 -105q79 -52 79 -175q0 -54 -19 -128q-77 -102 -196 -165t-245 -63q-88 0 -160 29.5t-120 78t-81 113.5t-47.5 134t-14.5 141q0 102 28 207l65 -25q-18 -66 -18 -134q0 -146 92 -243.5t238 -97.5q201 0 388 147l-1 2q-84 48 -347 48l-8 8
l43 152q250 38 257 94q-44 105 -337 340q-33 86 -33 143q0 77 60 114q133 83 555 216l10 -7q-29 -88 -59 -159q-316 -98 -469 -180v-4q113 -36 200 -59z" />
    <glyph glyph-name="uni06440671" unicode="&#xfedf;&#xfb51;" horiz-adv-x="900" 
d="M-89 983l-18 11l-16 97q25 69 49 69q12 0 44 -15q40 66 76 98.5t86 32.5q41 0 80 -37t39 -101q0 -21 -4.5 -41.5t-16.5 -44.5t-39.5 -39t-66.5 -15q-40 0 -78.5 8.5t-62.5 17.5t-28 9q-10 0 -44 -50zM16 1124q67 -25 115 -25q58 0 68 27q-10 30 -31 46.5t-48 16.5
q-60 0 -104 -65zM303 737l-37 -74q24 -29 84 -100.5t76.5 -92.5t53.5 -72t49.5 -78.5t28 -70t22.5 -86.5q29 19 44 45t15 72q0 32 -5 61q-27 174 -56 300.5t-42.5 177t-13.5 79.5q0 68 77 134l19 -11q-2 -8 -2 -14q0 -52 151 -251l-81 -67l30 -190q17 -107 17 -193
q0 -129 -38 -223q-31 -76 -90 -115t-168 -39q-143 0 -308 61l-4 25q284 66 404 125q-11 37 -104 150t-275 316q-41 46 -56 64t-37 48t-29 52.5t-7 47.5q0 52 31 120l13 -1q49 -64 238 -200z" />
    <glyph glyph-name="uni06440671.fina" unicode="&#xfee0;&#xfb51;" horiz-adv-x="888" 
d="M268 777l-31 -79q20 -25 70.5 -86.5t68 -84t51.5 -70t48 -77t29.5 -71t22.5 -83.5l3 -1q52 64 52 154q0 34 -5 63q-29 181 -98 491q58 66 92 98l13 -6q32 -139 107 -608q34 -217 178 -217h14l32 -200h-14q-193 0 -258 209h-4q-5 -52 -26.5 -93.5t-51 -68t-68 -43.5
t-77 -24t-78.5 -7q-111 0 -195 27l-4 19q214 79 337 176q-49 109 -313 396q-18 19 -57 60t-56.5 60t-35.5 46.5t-21 48.5q-2 9 -2 29q0 40 14 98h14q71 -66 249 -156zM-88 983l-18 11l-16 97q25 69 49 69q12 0 44 -15q40 66 76 98.5t86 32.5q41 0 80 -37t39 -101
q0 -21 -4.5 -41.5t-16.5 -44.5t-39.5 -39t-66.5 -15q-40 0 -78.5 8.5t-62.5 17.5t-28 9q-10 0 -44 -50zM17 1124q67 -25 115 -25q58 0 68 27q-10 30 -31 46.5t-48 16.5q-60 0 -104 -65z" />
    <glyph glyph-name="uni06440645" unicode="&#xfedf;&#xfee2;" horiz-adv-x="840" 
d="M243 1089l13 -8q14 -84 153 -267l-80 -67q46 -266 67 -345q44 10 106 10q104 0 183 -75t79 -197q0 -88 -44 -154t-127 -66q-70 0 -149.5 72t-113.5 208q-49 -17 -86 -50.5t-37 -54.5q0 -40 122.5 -296t129.5 -301q4 -25 4 -73q0 -46 -3 -106h-25q-25 74 -84.5 190
t-111.5 210.5t-93 196.5t-41 163q0 92 42 164q47 83 147 130q-75 353 -91 412q-5 22 -16.5 57t-18 61t-6.5 51q0 36 15 60q26 41 66 75zM440 232q31 -68 77 -106.5t99 -38.5q47 0 65 29q-16 53 -68 87.5t-114 34.5q-40 0 -59 -6z" />
    <glyph glyph-name="uni06450627.fina" unicode="&#xfee4;&#xfe8e;" horiz-adv-x="1064" 
d="M580 546h25q126 -145 260 -273q46 -39 83.5 -55.5t96.5 -17.5h14l32 -200h-14q-139 0 -202 77h-3q3 -23 3 -42q0 -75 -36.5 -124t-88.5 -49q-67 0 -135 58.5t-105 155.5h-3q-53 -76 -143 -76q-109 0 -175 63t-89 201q-65 369 -140 654q43 55 97 111l15 -7
q41 -155 89 -448q7 -44 18 -119.5t18 -120.5q11 -74 46.5 -104t105.5 -30t105 51q10 13 53 127t73 168zM594 352q-28 -53 -28 -104q0 -74 57 -133.5t117 -59.5q19 0 31 13.5t12 36.5q0 33 -25.5 72.5t-52.5 67t-89 86.5z" />
    <glyph glyph-name="uni06450622.fina" unicode="&#xfee4;&#xfe82;" horiz-adv-x="1139" 
d="M-51 1032h-16l-64 80q-1 7 -1 20q0 98 80 98q22 0 99.5 -15t129.5 -15q74 0 119 51l13 -7l-17 -105q-45 -49 -117 -49q-46 0 -107.5 8.5t-72.5 8.5q-17 0 -18 -4zM655 546h25q126 -145 260 -273q46 -39 83.5 -55.5t96.5 -17.5h14l32 -200h-14q-139 0 -202 77h-3
q3 -23 3 -42q0 -75 -36.5 -124t-88.5 -49q-67 0 -135 58.5t-105 155.5h-3q-53 -76 -143 -76q-109 0 -175 63t-89 201q-65 369 -140 654q43 55 97 111l15 -7q41 -155 89 -448q7 -44 18 -119.5t18 -120.5q11 -74 46.5 -104t105.5 -30t105 51q10 13 53 127t73 168zM669 352
q-28 -53 -28 -104q0 -74 57 -133.5t117 -59.5q19 0 31 13.5t12 36.5q0 33 -25.5 72.5t-52.5 67t-89 86.5z" />
    <glyph glyph-name="uni06450623.fina" unicode="&#xfee4;&#xfe84;" horiz-adv-x="1114" 
d="M100 1218h-13l-32 30q-14 14 -35 14q-26 0 -44 -10.5t-18 -22.5q0 -21 39.5 -38t99.5 -17q47 0 100 3l6 -9q-10 -38 -29 -81q-167 -22 -237 -72l-14 12q12 39 27 75q-75 32 -75 92q0 51 47 101q53 53 115 53q35 0 58 -18.5t23 -48.5q0 -29 -18 -63zM630 546h25
q126 -145 260 -273q46 -39 83.5 -55.5t96.5 -17.5h14l32 -200h-14q-139 0 -202 77h-3q3 -23 3 -42q0 -75 -36.5 -124t-88.5 -49q-67 0 -135 58.5t-105 155.5h-3q-53 -76 -143 -76q-109 0 -175 63t-89 201q-65 369 -140 654q43 55 97 111l15 -7q41 -155 89 -448
q7 -44 18 -119.5t18 -120.5q11 -74 46.5 -104t105.5 -30t105 51q10 13 53 127t73 168zM644 352q-28 -53 -28 -104q0 -74 57 -133.5t117 -59.5q19 0 31 13.5t12 36.5q0 33 -25.5 72.5t-52.5 67t-89 86.5z" />
    <glyph glyph-name="uni06450625.fina" unicode="&#xfee4;&#xfe88;" horiz-adv-x="1061" 
d="M577 546h25q126 -145 260 -273q46 -39 83.5 -55.5t96.5 -17.5h14l32 -200h-14q-139 0 -202 77h-3q3 -23 3 -42q0 -75 -36.5 -124t-88.5 -49q-67 0 -135 58.5t-105 155.5h-3q-53 -76 -143 -76q-109 0 -175 63t-89 201q-65 369 -140 654q43 55 97 111l15 -7
q41 -155 89 -448q7 -44 18 -119.5t18 -120.5q11 -74 46.5 -104t105.5 -30t105 51q10 13 53 127t73 168zM591 352q-28 -53 -28 -104q0 -74 57 -133.5t117 -59.5q19 0 31 13.5t12 36.5q0 33 -25.5 72.5t-52.5 67t-89 86.5zM321 -180h-13l-32 30q-14 14 -35 14q-26 0 -44 -10.5
t-18 -22.5q0 -21 39.5 -38t99.5 -17q48 0 100 3l6 -9q-10 -38 -29 -81q-167 -22 -237 -72l-14 12q12 39 27 75q-75 32 -75 92q0 51 47 101q53 53 115 53q35 0 58 -18.5t23 -48.5q0 -29 -18 -63z" />
    <glyph glyph-name="uni06460631" unicode="&#xfee8;&#xfeae;" horiz-adv-x="914" 
d="M451 734l72 129q85 -52 161 -117q-21 -74 -70 -123q-59 45 -163 111zM909 200l32 -200h-15q-37 0 -67.5 6.5t-53 15.5t-43 29.5t-33.5 37t-29.5 50.5t-26 57t-27.5 69l-12 31h-3q-35 -73 -104 -89q26 -92 26 -166q0 -80 -28 -144q-70 -162 -183 -162q-101 0 -288 101
l15 52q55 -19 95 -19q62 0 120 30t102 84q75 88 81 147q-6 38 -163 156q13 107 27 175l11 2q5 -4 21 -16t23 -17t21.5 -14.5t23.5 -14t22 -10.5t25 -8t24 -2q36 0 61 18.5t35.5 40.5t23.5 55t21 46l22 -2q4 -10 43 -117t67 -151q45 -71 120 -71h14z" />
    <glyph glyph-name="uni06460645.init" unicode="&#xfee7;&#xfee4;" horiz-adv-x="810" 
d="M322 801l71 129q83 -51 162 -117q-23 -75 -71 -123q-56 44 -162 111zM677 356l-16 -2q-54 69 -146 69q-70 0 -121 -36.5t-68 -101.5l5 -3q47 31 105 31q81 0 144 -76.5t63 -176.5q0 -80 -39.5 -139t-114.5 -59q-78 0 -141 58t-94 155l-6 1q-55 -76 -206 -76h-15
q-49 0 -70 41t-21 84q0 75 60 75h14q165 0 221 55q11 161 88.5 255t202.5 94q77 0 120.5 -45t43.5 -120q0 -31 -9 -83zM337 135q68 -115 186 -115q15 0 24.5 6t9.5 15q0 30 -43.5 71.5t-95.5 41.5q-51 0 -81 -19z" />
    <glyph glyph-name="uni06460649" unicode="&#xfee7;&#xfef0;" horiz-adv-x="1028" 
d="M458 878l74 132q82 -50 164 -119q-22 -77 -72 -126q-67 51 -166 113zM676 681h12q80 -115 116.5 -187.5t36.5 -142.5q0 -51 -24 -117q88 -17 124 -65t36 -132q0 -57 -21 -134q-70 -101 -184.5 -160.5t-248.5 -59.5q-80 0 -147 27.5t-114 74.5t-80 110.5t-48.5 135
t-15.5 147.5q0 102 24 196l60 -24q-12 -72 -12 -120q0 -154 91.5 -247.5t234.5 -93.5q87 0 194.5 39t177.5 103q-68 51 -339 59l-9 11l41 147q162 37 158 67q-6 35 -142 214q46 97 79 152z" />
    <glyph glyph-name="uni0646064A" unicode="&#xfee7;&#xfef2;" horiz-adv-x="1028" 
d="M350 -525l78 123q88 -59 158 -125q-28 -61 -76 -121q-90 75 -160 123zM583 -509l79 123q89 -61 157 -125q-27 -58 -75 -121q-95 78 -161 123zM458 878l74 132q82 -50 164 -119q-22 -77 -72 -126q-67 51 -166 113zM676 681h12q80 -115 116.5 -187.5t36.5 -142.5
q0 -51 -24 -117q88 -17 124 -65t36 -132q0 -57 -21 -134q-70 -101 -184.5 -160.5t-248.5 -59.5q-80 0 -147 27.5t-114 74.5t-80 110.5t-48.5 135t-15.5 147.5q0 102 24 196l60 -24q-12 -72 -12 -120q0 -154 91.5 -247.5t234.5 -93.5q87 0 194.5 39t177.5 103q-68 51 -339 59
l-9 11l41 147q162 37 158 67q-6 35 -142 214q46 97 79 152z" />
    <glyph glyph-name="uni064A0631.fina" unicode="&#xfef4;&#xfeae;" horiz-adv-x="914" 
d="M740 -305l84 107q78 -62 133 -124q-27 -55 -81 -102q-58 53 -136 119zM530 -314l84 107q73 -57 134 -124q-29 -55 -82 -102q-44 41 -136 119zM909 200l32 -200h-15q-37 0 -67.5 6.5t-53 15.5t-43 29.5t-33.5 37t-29.5 50.5t-26 57t-27.5 69l-12 31h-3q-35 -73 -104 -89
q26 -92 26 -166q0 -80 -28 -144q-70 -162 -183 -162q-101 0 -288 101l15 52q55 -19 95 -19q62 0 120 30t102 84q75 88 81 147q-6 38 -163 156q13 107 27 175l11 2q5 -4 21 -16t23 -17t21.5 -14.5t23.5 -14t22 -10.5t25 -8t24 -2q36 0 61 18.5t35.5 40.5t23.5 55t21 46l22 -2
q4 -10 43 -117t67 -151q45 -71 120 -71h14z" />
    <glyph glyph-name="uni064A0645.init" unicode="&#xfef3;&#xfee4;" horiz-adv-x="819" 
d="M603 -325l84 107q73 -57 134 -124q-29 -55 -82 -102q-58 53 -136 119zM393 -334l84 107q78 -61 134 -124q-29 -55 -82 -102q-60 56 -136 119zM677 356l-16 -2q-54 69 -146 69q-70 0 -121 -36.5t-68 -101.5l5 -3q47 31 105 31q81 0 144 -76.5t63 -176.5q0 -80 -39.5 -139
t-114.5 -59q-78 0 -141 58t-94 155l-6 1q-55 -76 -206 -76h-15q-49 0 -70 41t-21 84q0 75 60 75h14q165 0 221 55q11 161 88.5 255t202.5 94q77 0 120.5 -45t43.5 -120q0 -31 -9 -83zM337 135q68 -115 186 -115q15 0 24.5 6t9.5 15q0 30 -43.5 71.5t-95.5 41.5
q-51 0 -81 -19z" />
    <glyph glyph-name="uni064A0646.fina" unicode="&#xfef4;&#xfee6;" horiz-adv-x="1120" 
d="M962 -321l84 107q78 -61 134 -124q-29 -55 -82 -102q-60 56 -136 119zM753 -330l84 107q78 -62 133 -124q-30 -57 -81 -102q-58 53 -136 119zM205 644l73 132q95 -59 164 -119q-21 -75 -72 -126q-62 49 -165 113zM1115 200l32 -200h-15q-29 0 -54.5 5t-45.5 12t-39 22.5
t-32 27.5t-28 36t-24 39.5t-22 46t-20 48t-20 53.5l-9 20l-5 1q-24 -71 -90 -91q45 -111 45 -234q0 -68 -19 -118q-47 -80 -129 -124t-167 -44q-165 0 -267.5 127t-102.5 315q0 75 20 153l56 -21q-4 -32 -4 -69q0 -130 75 -216.5t201 -86.5q81 0 157.5 42t99.5 97
q-29 86 -74.5 141.5t-113.5 107.5q9 107 20 181l11 2q36 -27 58 -41.5t52.5 -27.5t55.5 -13q40 0 60.5 22.5t38 69.5t31.5 68l19 -2q9 -20 28.5 -76t41 -107.5t42.5 -84.5q52 -81 123 -81h14z" />
    <glyph glyph-name="T_h" unicode="Th" horiz-adv-x="1599" 
d="M1540 181l23 -44q-73 -73 -143.5 -113.5t-112.5 -40.5q-82 0 -47 152l76 319q16 72 -13 72q-34 0 -105 -70t-127 -156q-31 -125 -55 -285q-65 -7 -177 -32l-8 13q101 462 173 878q-156 13 -264 13h-54l-139 -699q-8 -38 -9.5 -57.5t1.5 -36t19.5 -23.5t38.5 -11.5
t65 -8.5l-12 -51h-465l12 51q88 7 111 28t42 109l153 699h-69q-92 0 -130 -9.5t-62 -34.5q-43 -48 -86 -135h-55q39 116 76 278h42q9 -24 22.5 -30t45.5 -6h640q55 0 73 5.5t23 21.5l3 13q22 7 63.5 21.5t65.5 21.5t35 7q15 0 17.5 -11t-3.5 -43q-80 -402 -116 -574h3
q53 68 113 122.5t107 83.5q70 43 126 43q98 0 55 -192l-63 -287q-13 -57 3 -57q10 0 38 17.5t50 38.5z" />
    <glyph glyph-name="f_b" unicode="fb" horiz-adv-x="1184" 
d="M537 637l-30 -60l-147 -12q-4 -24 -20.5 -122t-29 -165t-30.5 -143q-41 -175 -91.5 -266t-133.5 -157q-91 -75 -161 -75q-36 0 -66 21.5t-29 50.5q0 47 52 84q17 12 30 2q22 -21 54 -36t56 -15q32 0 47 32q25 57 64 292q13 84 38 250.5t38 246.5h-120l-7 13l48 59h95
q22 99 53.5 162.5t93.5 119.5q48 44 117 76.5t122 32.5q79 0 124 -36q96 36 135 36q23 0 12 -55q-24 -103 -61.5 -279.5t-46.5 -217.5h3q78 93 156 139t138 46q59 0 91.5 -48t32.5 -135q0 -118 -59.5 -231t-162.5 -183q-122 -81 -244 -81q-104 0 -156 71q-39 55 -10 198
q37 196 126 634q-63 70 -135 70q-33 0 -55 -18t-47 -90.5t-47 -210.5h163zM928 546h-2q-70 0 -198 -175q-12 -35 -24 -112q-9 -64 -7.5 -103.5t16.5 -61t30.5 -29t34.5 -7.5q31 0 62 22q45 33 88.5 144t43.5 229q0 42 -13.5 67.5t-30.5 25.5z" />
    <glyph glyph-name="f_f_b" unicode="ffb" horiz-adv-x="1592" 
d="M945 637l-30 -60l-146 -12q-24 -165 -64 -370q-34 -177 -92 -280t-154 -171q-100 -72 -197 -72q-102 0 -167 75q-117 -110 -198 -110q-35 0 -63.5 17.5t-28.5 43.5q1 19 13.5 43t24.5 35q26 26 42 16q62 -44 103 -44q34 0 50 31q32 53 73 323q9 63 32 222t35 241h-124
l-7 13l46 59h99q20 80 51 137t92 112q51 46 125 80.5t144 34.5q52 0 95 -19.5t64 -47.5q51 44 112.5 69t113.5 25q34 0 69 -10.5t53 -25.5q93 36 134 36q26 0 12 -55q-24 -103 -61.5 -279.5t-46.5 -217.5h3q165 185 294 185q58 0 91 -49t33 -133q0 -117 -59 -231t-162 -184
q-123 -81 -245 -81q-104 0 -156 71q-39 55 -10 198q68 350 127 626q-62 83 -133 83q-35 -2 -57 -21t-47.5 -92t-46.5 -211h164zM1337 542h-1q-75 0 -200 -171q-12 -33 -25 -112q-8 -64 -6.5 -103.5t16 -61.5t29.5 -29.5t33 -7.5q31 0 62 23q46 33 90 143.5t44 228.5
q0 44 -12 67t-30 23zM373 637h224q17 75 35.5 120.5t49.5 85.5q-51 85 -149 85q-39 0 -65.5 -21t-51.5 -87t-43 -183zM586 565h-226q-34 -223 -72 -412q-42 -199 -120 -319q26 -31 70.5 -55t92.5 -24q50 0 80 24t49 81q35 89 59 249q14 97 29 198.5t23 159.5t15 98z" />
    <glyph glyph-name="f_f" unicode="ff" horiz-adv-x="851" 
d="M93 637h98q39 160 132 243q51 44 127 78.5t147 34.5q58 0 100 -18.5t60 -42.5q121 96 216 96q47 0 76 -23.5t27 -48.5q-1 -20 -13 -42t-32 -36q-28 -23 -54 0q-66 64 -102 64q-10 1 -16.5 -2.5t-16.5 -19.5t-18.5 -47.5t-20.5 -91t-25 -144.5h182l-34 -59l-158 -13
q-48 -297 -67 -395q-34 -169 -86.5 -258.5t-154.5 -163.5q-100 -76 -198 -76q-106 0 -176 69q-36 -33 -93 -68.5t-105 -35.5q-35 0 -63 18t-27 46q1 17 15 41t27 35q24 28 42 16q67 -46 105 -46q32 0 48 30q23 39 70 332q14 88 38 235t36 221h-125l-7 13zM370 637h226
q27 134 84 206q-62 82 -153 82q-42 0 -68 -22.5t-48 -84.5t-41 -181zM586 565h-226q-46 -267 -75 -409q-21 -106 -48 -180.5t-72 -140.5q23 -29 73.5 -52t99.5 -23q91 0 119 83q29 55 63 284q13 89 27.5 183.5t23 152t15.5 102.5z" />
    <glyph glyph-name="f_h" unicode="fh" horiz-adv-x="1224" 
d="M1170 181l21 -44q-71 -73 -142 -113.5t-114 -40.5q-80 0 -45 152l74 318q17 71 -11 71q-36 0 -103.5 -70t-129.5 -164q-26 -103 -56 -275q-65 -7 -176 -32l-7 13q77 359 177 890q-58 75 -134 75q-35 -2 -57 -21t-47.5 -92t-46.5 -211h164l-32 -60l-144 -12
q-48 -289 -84 -435q-40 -171 -91 -261t-134 -157q-92 -75 -161 -75q-36 0 -66 21.5t-29 50.5q0 24 16.5 48.5t37.5 38.5q16 12 29 2q23 -22 55.5 -39t55.5 -17q31 0 46 32q24 48 65 302q18 111 41.5 269t33.5 220h-119l-6 13l48 59h90q24 100 56 165.5t93 120.5
q50 44 120 77t123 33q34 0 69 -11t55 -27q91 38 135 38q9 0 12.5 -6.5t3 -17t-3.5 -29.5l-116 -572h2q108 138 223 211q71 42 124 42q98 0 57 -192l-64 -287q-8 -41 1 -58q10 0 39.5 18t51.5 39z" />
    <glyph glyph-name="f_f_h" unicode="ffh" horiz-adv-x="1634" 
d="M1579 181l22 -44q-72 -73 -143 -113.5t-114 -40.5q-80 0 -45 152l75 318q16 71 -12 71q-37 0 -104.5 -68t-128.5 -160q-19 -76 -55 -281q-66 -7 -177 -32l-7 13q66 302 176 885q-62 82 -134 82q-35 -2 -57.5 -21t-48.5 -93t-47 -212h166l-30 -57l-144 -12
q-42 -247 -67 -373q-36 -176 -92.5 -279.5t-148.5 -171.5q-95 -72 -198 -72q-43 0 -90 18t-82 58q-38 -37 -96 -74t-106 -37q-35 0 -63.5 17.5t-28.5 43.5q1 19 14.5 43.5t26.5 35.5q27 27 42 16q64 -44 106 -44q35 0 51 31q27 49 69 329q32 224 71 459h-125l-6 13l45 56h99
q20 80 51 137t92 112q53 47 125 81t150 34q97 0 161 -60q46 39 105.5 63t112.5 24q35 0 70 -10.5t54 -25.5q90 36 134 36q24 0 13 -52l-117 -570h3q113 144 225 212q68 43 125 43q97 0 55 -192l-64 -287q-9 -42 2 -58q9 0 38.5 18t51.5 39zM373 637h224q16 72 35.5 118.5
t53.5 93.5q-61 80 -149 80q-41 0 -68.5 -21.5t-53 -87.5t-42.5 -183zM587 568h-227q-40 -254 -75 -415q-43 -201 -116 -318q25 -30 72 -54t100 -24q88 0 122 103q27 69 54 249q69 453 70 459z" />
    <glyph glyph-name="f_f_i" unicode="ffi" horiz-adv-x="1224" 
d="M1178 189l22 -45q-69 -76 -145 -118.5t-114 -42.5q-26 0 -40.5 12.5t-19.5 49t12 101.5q11 48 35.5 153t37.5 161q15 72 2 88.5t-77 16.5h-122q-30 -191 -70 -392q-23 -116 -56 -196.5t-75 -132t-105 -97.5q-99 -75 -199 -75q-42 0 -89.5 17.5t-82.5 57.5
q-116 -110 -200 -110q-35 0 -63.5 18t-28.5 43q2 20 15 43.5t25 34.5q23 28 42 16q63 -45 99 -45q35 0 51 29q27 46 71 333q16 112 43.5 269.5t32.5 186.5h-125l-7 13l46 59h99q17 74 47.5 130t89.5 110q50 45 124.5 80.5t146.5 35.5q105 0 160 -59q45 42 108.5 68t124.5 26
q92 0 133 -38t41 -78q0 -55 -83 -86q-61 -24 -67 13q-30 125 -91 125q-29 0 -52 -23t-40 -69.5t-29 -101.5t-24 -133h80q158 0 269 24q58 0 29 -119q-11 -46 -40 -166t-47 -197q-13 -52 6 -52q11 0 42.5 18.5t57.5 43.5zM371 637h228q14 67 30 111.5t48 91.5q-61 85 -150 85
q-58 0 -92.5 -61t-63.5 -227zM586 565h-228q-33 -193 -77 -412q-43 -204 -113 -318q26 -32 73.5 -56t97.5 -24q88 0 123 98q27 68 52 242q23 147 45 292.5t27 177.5z" />
    <glyph glyph-name="f_j" unicode="fj" horiz-adv-x="801" 
d="M102 637h87q17 85 59 163t104 129q121 99 244 99q88 0 129 -35.5t41 -74.5q0 -28 -19 -52.5t-57 -35.5q-66 -24 -75 18q-25 118 -86 118q-53 0 -92 -93t-63 -236h80q153 0 268 23q32 2 38.5 -26t-5.5 -89q-25 -136 -91 -452q-45 -226 -208 -339q-66 -46 -102 -62.5
t-64 -16.5q-29 0 -52.5 16.5t-23.5 43.5q0 22 18 47.5t39 41.5q13 11 26 1q55 -43 95 -43q19 0 31.5 20t25.5 77q35 148 113 589q13 65 -0.5 81t-76.5 16h-124q-52 -292 -86 -431q-29 -122 -64 -202.5t-72 -125.5t-97 -93q-95 -76 -161 -76q-40 0 -70 20.5t-29 49.5
q0 24 15.5 48t36.5 38q16 12 29 2q24 -22 56 -37.5t56 -15.5q33 0 53 35q25 40 71 316q14 90 39.5 242t37.5 230h-115l-6 15z" />
    <glyph glyph-name="f_f_j" unicode="ffj" horiz-adv-x="1212" 
d="M98 637h99q16 74 46.5 130t90.5 110q48 45 124 80.5t148 35.5q103 0 160 -59q45 42 108 68t124 26q49 0 85 -12.5t54.5 -31.5t27 -37t8.5 -35q0 -62 -82 -86q-61 -24 -68 12q-29 126 -88 126q-104 0 -148 -327h80q154 0 269 24q29 0 35 -29t-4 -78q-3 -17 -34.5 -180.5
t-56.5 -283.5q-24 -109 -71.5 -192t-134.5 -144q-115 -80 -174 -80q-29 0 -49.5 14t-20.5 41q0 22 18 49.5t38 42.5q12 11 26 0q57 -41 93 -41q20 0 33 20t25 76q21 89 114 587q13 68 0 85t-77 17h-123q-31 -195 -71 -392q-35 -171 -88 -264.5t-146 -161.5
q-101 -75 -201 -75q-102 0 -174 75q-38 -38 -92.5 -74t-102.5 -36q-36 0 -64 18t-28 43q2 20 15 43.5t25 34.5q23 28 42 16q66 -47 106 -47q28 0 44 31q28 56 73 333q7 44 73 456h-126l-6 13zM377 637h225q20 111 83 203q-61 82 -150 82q-61 0 -96 -60t-62 -225zM591 565
h-228q-42 -258 -73 -412q-42 -210 -122 -319q30 -32 77.5 -55.5t96.5 -23.5q42 0 70.5 22.5t46.5 75.5q26 58 55 239q26 153 50.5 307t26.5 166z" />
    <glyph glyph-name="f_k" unicode="fk" horiz-adv-x="1154" 
d="M721 370h3q61 75 114 127q57 55 86.5 81.5t77 54.5t83.5 28q32 0 54.5 -16t22.5 -41q0 -40 -36 -80q-19 -19 -29 -11q-34 16 -74 16q-36 0 -75.5 -22t-67.5 -55q22 -67 60 -152q44 -106 67 -147t43 -41q31 0 80 53l28 -41q-55 -74 -108.5 -107.5t-92.5 -33.5
q-69 0 -115 104q-54 129 -93 244q-30 -31 -45 -57q-27 -122 -47 -261q-95 -10 -169 -30l-12 7q104 494 179 883q-51 84 -128 84q-27 0 -45.5 -10t-38.5 -41.5t-37 -97.5t-33 -171h164l-30 -60l-144 -12q-59 -321 -83 -430q-27 -119 -61.5 -200t-72.5 -129.5t-94 -93.5
q-92 -75 -163 -75q-37 0 -66.5 21.5t-29.5 50.5q0 25 16.5 49.5t39.5 37.5q17 12 29 2q23 -22 54 -37.5t53 -15.5q36 0 51 34q25 51 65 297q14 85 38.5 247.5t38.5 241.5h-120l-7 13l48 59h92q24 100 55.5 163t94.5 118q51 46 119.5 78t127.5 32q71 0 116 -36q96 36 134 36
q24 0 14 -45q-23 -109 -66.5 -313t-64.5 -300z" />
    <glyph glyph-name="f_f_k" unicode="ffk" horiz-adv-x="1566" 
d="M1129 370h3q59 73 113 127q81 81 138 122.5t110 41.5q32 0 54.5 -16t22.5 -41q0 -40 -36 -80q-18 -19 -29 -11q-34 16 -75 16q-36 0 -75.5 -21t-66.5 -54q20 -64 59 -154q47 -110 69 -150.5t42 -40.5q29 0 79 54l29 -39q-55 -74 -108.5 -107.5t-92.5 -33.5
q-69 0 -115 104q-54 129 -93 244q-28 -30 -46 -57q-26 -124 -46 -261q-95 -10 -169 -30l-12 7q118 568 179 885q-53 88 -131 88q-26 -2 -44 -13t-37.5 -43t-36.5 -98.5t-33 -171.5h164l-32 -60l-144 -12q-31 -197 -67 -370q-35 -177 -91.5 -279t-151.5 -171
q-102 -73 -198 -73q-104 0 -166 75q-39 -37 -97.5 -73.5t-106.5 -36.5q-35 0 -63.5 17.5t-28.5 43.5q1 18 15 42t27 36q27 27 42 16q66 -47 105 -47q35 0 51 31q26 48 69 333q22 156 70 456h-126l-5 13l46 59h98q20 78 52 136t92 114q53 49 129 81.5t148 32.5q95 0 159 -60
q41 38 104 62.5t113 24.5q35 0 70 -10.5t53 -25.5q96 36 137 36q13 0 15.5 -11t-3.5 -34q-23 -109 -66.5 -313t-64.5 -300zM373 637h224q16 75 35 122.5t53 94.5q-54 77 -142 77q-46 0 -75 -22.5t-52.5 -87t-42.5 -184.5zM586 565h-226q-56 -319 -76 -412
q-44 -207 -115 -319q26 -31 69.5 -55t93.5 -24q94 0 128 99q31 80 57 255q65 433 69 456z" />
    <glyph glyph-name="f_f_l" unicode="ffl" horiz-adv-x="1240" 
d="M945 637l-32 -60l-145 -13q-4 -26 -14.5 -96t-23.5 -147.5t-29 -157.5q-33 -164 -87 -256t-148 -160q-104 -75 -194 -75q-110 0 -177 79q-32 -36 -96 -75t-113 -39q-34 0 -62.5 17.5t-28.5 43.5q1 19 12 40t24 32q28 28 42 16q69 -47 110 -47q33 0 52 32q27 51 71 338
q16 110 41 262t32 194h-125l-7 13l46 59h99q18 75 49.5 134t89.5 112q46 44 121 77t154 33q92 0 153 -58q49 38 115 65.5t128 27.5q75 0 117 -36q95 36 126 36q28 0 12 -71q-52 -235 -154 -778q-11 -58 5 -58q9 0 37.5 17t54.5 38l24 -36q-65 -73 -139 -115t-115 -42
q-79 0 -47 176q56 292 146 730q-18 28 -51.5 51.5t-73.5 23.5t-69.5 -29t-48 -89t-25.5 -93t-17 -98l-3 -18h164zM370 637h233q28 132 77 201q-28 41 -68.5 64.5t-81.5 23.5q-56 0 -94.5 -61t-65.5 -228zM590 565h-232q-36 -228 -74 -416q-40 -194 -112 -306
q25 -33 77.5 -59t101.5 -26q78 0 112 91q28 59 56 250q54 356 71 466z" />
    <glyph glyph-name="f_t" unicode="ft" horiz-adv-x="886" 
d="M950 637l-41 -65l-144 -7l-70 -358q-18 -89 7 -89q15 0 55 25t69 52l23 -41q-46 -61 -131.5 -116t-143.5 -55q-96 0 -55 206l77 376h-235q-54 -302 -84 -430q-27 -118 -61.5 -199.5t-73 -130t-95.5 -93.5q-92 -75 -161 -75q-41 0 -70.5 20.5t-28.5 49.5q0 24 16 48.5
t37 39.5q16 11 29 1q23 -21 55.5 -36t56.5 -15q29 0 51 35q27 48 70 313q36 228 76 472h-115l-6 15l46 57h89q39 184 147 278q59 51 121.5 82t113.5 31q52 0 83.5 -25.5t30.5 -58.5q-2 -26 -20 -50t-37 -35q-20 -13 -38 5q-74 83 -105 83q-21 1 -37.5 -22t-36.5 -94
t-40 -194h238l25 112l171 107l19 -17l-46 -202h169z" />
    <glyph glyph-name="f_f_t" unicode="fft" horiz-adv-x="1292" 
d="M1356 637l-41 -66l-144 -6l-70 -358q-16 -89 7 -89q15 0 55 25t68 52l23 -41q-46 -61 -131.5 -116t-143.5 -55q-97 0 -54 206l77 376h-231q-33 -194 -70 -384q-34 -175 -90 -273t-149 -164q-99 -72 -197 -72q-105 0 -169 75q-38 -37 -95 -73.5t-104 -36.5
q-35 0 -63.5 17.5t-28.5 43.5q1 19 13.5 43t24.5 35q26 26 42 16q62 -44 103 -44q35 0 51 31q31 57 72 330q35 252 67 456h-124l-7 13l46 59h99q19 76 51.5 132.5t95.5 111.5q51 46 122 79t143 33q104 0 159 -59q48 44 105.5 69t110.5 25q52 0 83.5 -25t29.5 -58
q-1 -26 -19 -50.5t-36 -35.5q-22 -11 -39 6q-72 85 -105 85q-15 0 -28 -13t-27 -46.5t-27.5 -96.5t-26.5 -157h234l25 112l172 107l19 -17l-47 -202h169zM374 637h223q17 75 35.5 120t49.5 86q-59 79 -143 79q-44 0 -71.5 -22t-50.5 -84t-43 -179zM586 565h-226
q-37 -245 -72 -412q-37 -192 -119 -319q25 -30 72.5 -54.5t99.5 -24.5q45 0 72.5 22t46.5 83q30 76 57 249q15 97 30 198.5t23.5 159.5t15.5 98z" />
    <glyph glyph-name="uniFEEA.UYG" unicode="&#x647;" horiz-adv-x="788" arabic-form="final" 
d="M600 200h183l32 -200h-14q-27 0 -70 5q34 -66 34 -132q0 -48 -17.5 -92.5t-59.5 -77.5t-100 -33q-99 0 -196 86t-127 232q-66 -11 -98 -28t-47 -49l-25 21q30 143 74 204q10 14 26 22.5t28 11t38 6.5q15 328 97 503h16l76 -99q135 -177 152 -282q4 -28 4 -41
q0 -19 -6 -57zM334 186q177 16 177 52q0 45 -135 213h-4q-22 -120 -38 -265zM360 1q26 -63 101.5 -117t144.5 -54q45 0 45 25q0 19 -15 48t-36 52q-56 59 -138 59q-33 0 -102 -13z" />
    <glyph glyph-name="uni0672.fina" unicode="&#x672;" horiz-adv-x="507" 
d="M502 200l32 -200h-17q-233 0 -279 264q-56 336 -140 654q45 58 98 111l15 -7q41 -155 89 -448q7 -44 18 -119.5t18 -120.5q11 -74 46.5 -104t105.5 -30h14zM235 1255h-14q-41 39 -65 39q-18 0 -35.5 -5.5t-26.5 -12t-9 -10.5q0 -9 10.5 -20.5t41.5 -22.5t75 -11
q40 0 99 9l7 -9q-14 -41 -36 -89q-45 -7 -75 -15q-34 -7 -85 -45t-86 -38q-22 0 -55 17.5t-47 17.5q-18 0 -39 -13l-20 23q11 39 34 64t51 25q27 0 61 -18.5t62 -18.5l6 8q-71 42 -71 104q0 53 44 94q52 49 108 49q35 0 56.5 -22t21.5 -50q0 -23 -13 -50z" />
    <glyph glyph-name="uni0673.fina" unicode="&#x673;" horiz-adv-x="462" 
d="M457 200l32 -200h-17q-233 0 -279 264q-56 336 -140 654q45 58 98 111l15 -7q41 -155 89 -448q7 -44 18 -119.5t18 -120.5q11 -74 46.5 -104t105.5 -30h14zM447 -175h-14q-41 39 -65 39q-18 0 -35.5 -5.5t-26.5 -12t-9 -10.5q0 -9 10.5 -20.5t41.5 -22.5t75 -11
q40 0 99 9l7 -9q-14 -42 -36 -89q-45 -7 -75 -15q-34 -7 -85 -45t-86 -38q-22 0 -55 17.5t-47 17.5q-18 0 -39 -13l-20 23q11 39 34 64t51 25q27 0 61 -18.5t62 -18.5l6 8q-71 42 -71 104q0 53 44 94q52 49 108 49q35 0 56.5 -22t21.5 -50q0 -23 -13 -50z" />
    <glyph glyph-name="uni0675.fina" unicode="&#x675;" horiz-adv-x="568" 
d="M563 200l32 -200h-217q-233 0 -279 264q-58 346 -139 654q43 55 97 111l15 -7q41 -155 89 -448q7 -44 18 -119.5t18 -120.5q11 -74 46.5 -104t105.5 -30h214zM299 1218h-13l-32 30q-14 14 -35 14q-26 0 -44 -10.5t-18 -22.5q0 -21 39.5 -38t99.5 -17q48 0 100 3l6 -9
q-10 -38 -29 -81q-167 -22 -237 -72l-14 12q12 39 27 75q-75 32 -75 92q0 51 47 101q53 53 115 53q35 0 58 -18.5t23 -48.5q0 -29 -18 -63z" />
    <glyph glyph-name="uni0676.fina" unicode="&#x676;" horiz-adv-x="829" 
d="M636 786h-13l-32 30q-14 14 -35 14q-26 0 -44 -10.5t-18 -22.5q0 -21 39.5 -38t99.5 -17q47 0 100 3l6 -9q-10 -38 -29 -81q-167 -22 -237 -72l-14 12q12 39 27 75q-75 32 -75 92q0 51 47 101q53 53 115 53q35 0 58 -18.5t23 -48.5q0 -29 -18 -63zM623 200h201l32 -200
h-208q-7 -93 -40 -174.5t-92.5 -136t-134.5 -54.5q-131 0 -311 111l14 53q70 -28 127 -28q114 0 234 102q78 71 96 127h-28q-165 0 -263 70t-98 218q0 82 49 152q61 89 146 89q161 0 276 -329zM522 200q-88 166 -197 166q-41 0 -65.5 -22.5t-24.5 -45.5q0 -45 73.5 -73
t174.5 -28q21 0 39 3z" />
    <glyph glyph-name="uni0677.fina" unicode="&#x677;" horiz-adv-x="869" 
d="M676 786h-13l-32 30q-14 14 -35 14q-26 0 -44 -10.5t-18 -22.5q0 -21 39.5 -38t99.5 -17q47 0 100 3l6 -9q-10 -38 -29 -81q-167 -22 -237 -72l-14 12q12 39 27 75q-75 32 -75 92q0 51 47 101q53 53 115 53q35 0 58 -18.5t23 -48.5q0 -29 -18 -63zM345 749
q-21 -54 -51 -93q-18 10 -30 10q-53 -57 -173 -111q-56 11 -113 33l-6 10q155 63 212 98q-128 29 -128 125q0 51 38 96q45 43 99 43q56 0 88 -61t28 -136q17 -3 36 -14zM253 779q-9 43 -34 74t-57 31q-45 0 -45 -26q0 -16 11 -29t33.5 -22.5t41.5 -15t50 -12.5zM623 200h241
l32 -200h-248q-7 -93 -40 -174.5t-92.5 -136t-134.5 -54.5q-131 0 -311 111l14 53q70 -28 127 -28q114 0 234 102q78 71 96 127h-28q-165 0 -263 70t-98 218q0 82 49 152q61 89 146 89q161 0 276 -329zM522 200q-88 166 -197 166q-41 0 -65.5 -22.5t-24.5 -45.5
q0 -45 73.5 -73t174.5 -28q21 0 39 3z" />
    <glyph glyph-name="uni0678.init" unicode="&#x678;" horiz-adv-x="624" 
d="M404 827h-13l-32 30q-14 14 -35 14q-26 0 -44 -10.5t-18 -22.5q0 -21 39.5 -38t99.5 -17q47 0 100 3l6 -9q-10 -38 -29 -81q-167 -22 -237 -72l-14 12q12 39 27 75q-75 32 -75 92q0 51 47 101q53 53 115 53q35 0 58 -18.5t23 -48.5q0 -28 -18 -63zM176 599l10 -2
q45 -67 59 -89.5t39 -65.5t32 -66t13.5 -56t6.5 -70q0 -59 -17 -114q-31 -78 -82 -102q-70 -34 -196 -34h-14q-49 0 -70 41t-21 84q0 75 60 75h22q54 0 104.5 6.5t78.5 15t28 16.5q0 30 -131 205q38 89 78 156z" />
    <glyph glyph-name="uni0678.medi" unicode="&#x678;" horiz-adv-x="650" 
d="M458 687h-13l-32 30q-14 14 -35 14q-26 0 -44 -10.5t-18 -22.5q0 -21 39.5 -38t99.5 -17q47 0 100 3l6 -9q-10 -38 -29 -81q-167 -22 -237 -72l-14 12q12 39 27 75q-75 32 -75 92q0 51 47 101q53 53 115 53q35 0 58 -18.5t23 -48.5q0 -28 -18 -63zM645 200l32 -200h-195
q-78 0 -139 23t-108 86h-3q-66 -109 -191 -109h-14q-49 0 -70 41t-21 84q0 75 60 75h14q80 0 129 34q22 15 33 38.5t17 58.5t10 47q40 32 71 52l8 -6q-5 -48 -5 -70q0 -86 66 -125q50 -29 112 -29h194z" />
    <glyph glyph-name="uni0678.fina" unicode="&#x678;" horiz-adv-x="1270" 
d="M1096 640h-13l-32 30q-14 14 -35 14q-26 0 -44 -10.5t-18 -22.5q0 -21 39.5 -38t99.5 -17q47 0 100 3l6 -9q-10 -38 -29 -81q-167 -22 -237 -72l-14 12q12 39 27 75q-75 32 -75 92q0 51 47 101q53 53 115 53q35 0 58 -18.5t23 -48.5q0 -29 -18 -63zM656 200h609l32 -200
h-299q12 -38 12 -69q0 -49 -30 -125q-87 -89 -204.5 -136t-228.5 -47q-197 0 -319 134t-122 343q0 133 57 293l61 -27q-30 -108 -30 -183q0 -162 103 -257.5t250 -95.5q205 0 359 120q-60 58 -301 68l-17 18z" />
    <glyph glyph-name="uni067C.init" unicode="&#x67c;" horiz-adv-x="441" 
d="M297 91q47 -14 72 -49t25 -76q0 -54 -38 -92t-92 -38t-92 38t-38 92q0 27 6 40q-44 -6 -99 -6h-14q-49 0 -70 41t-21 84q0 75 60 75h22q54 0 104.5 6.5t78.5 15t28 16.5q0 30 -131 205q38 89 78 156l10 -2q45 -67 59 -89.5t39 -65.5t32 -66t13.5 -56t6.5 -70
q0 -59 -17 -114q-10 -25 -22 -45zM85 775l84 107q78 -62 133 -124q-30 -57 -81 -102q-58 53 -136 119zM-124 766l84 107q70 -54 133 -124q-29 -54 -81 -102q-44 41 -136 119zM194 -34q0 -29 20.5 -49.5t49.5 -20.5t49.5 20.5t20.5 49.5t-21 50t-50 21t-49 -21t-20 -50z" />
    <glyph glyph-name="uni067C.medi" unicode="&#x67c;" horiz-adv-x="581" 
d="M576 200l32 -200h-13q-78 0 -139 23t-108 86h-3q-22 -36 -51 -61q61 -39 61 -110q0 -54 -38 -92t-92 -38t-92 38t-38 92q0 33 14 62h-82q-49 0 -70 41t-21 84q0 75 60 75h127q80 0 129 34q22 15 33 38.5t17 58.5t10 47q40 32 71 52l8 -6q-5 -48 -5 -70q0 -86 66 -125
q50 -29 112 -29h12zM258 634l84 107q73 -57 134 -124q-29 -55 -82 -102q-58 53 -136 119zM49 625l84 107q78 -62 133 -124q-30 -58 -82 -102q-54 50 -135 119zM155 -62q0 -29 20.5 -49.5t49.5 -20.5t49.5 20.5t20.5 49.5t-20.5 49.5t-49.5 20.5t-49.5 -20.5t-20.5 -49.5z
" />
    <glyph glyph-name="uni067C.fina" unicode="&#x67c;" horiz-adv-x="1368" 
d="M1363 200l32 -200h-14q-152 0 -225 81h-3q-170 -81 -347 -110q32 -40 32 -92q0 -62 -44 -106t-106 -44t-106 44t-44 106q0 44 22 79q-171 12 -296 82q-93 52 -144 152t-51 218q0 85 25 172l65 -21q-7 -49 -7 -78q0 -144 125.5 -231.5t367.5 -87.5q106 0 225.5 21.5
t206.5 57.5l26 130q37 31 71 54l11 -8q-8 -51 -8 -88q0 -65 47 -98t125 -33h14zM584 760l83 125q85 -63 162 -129q-29 -55 -79 -125q-78 65 -166 129zM344 747l83 125q85 -63 162 -129q-29 -55 -79 -125q-78 65 -166 129zM608 -121q0 -33 23.5 -56.5t56.5 -23.5t56.5 23.5
t23.5 56.5t-23.5 56.5t-56.5 23.5t-56.5 -23.5t-23.5 -56.5z" />
    <glyph glyph-name="uni067D.init" unicode="&#x67d;" horiz-adv-x="451" 
d="M41 989l84 107q77 -60 134 -124q-29 -55 -82 -102q-58 53 -136 119zM-168 980l84 107q75 -58 133 -124q-30 -57 -81 -102q-44 41 -136 119zM-3 769l83 107q78 -62 133 -124q-30 -57 -81 -102q-45 41 -135 119zM176 599l10 -2q45 -67 59 -89.5t39 -65.5t32 -66t13.5 -56
t6.5 -70q0 -59 -17 -114q-31 -78 -82 -102q-70 -34 -196 -34h-14q-49 0 -70 41t-21 84q0 75 60 75h22q54 0 104.5 6.5t78.5 15t28 16.5q0 30 -131 205q38 89 78 156z" />
    <glyph glyph-name="uni067D.medi" unicode="&#x67d;" horiz-adv-x="468" 
d="M101 859l85 107q78 -62 133 -124q-30 -58 -82 -102q-60 56 -136 119zM-107 850l84 107q77 -62 133 -124q-29 -55 -82 -102q-54 50 -135 119zM56 639l84 107q73 -57 134 -124q-29 -55 -82 -102q-44 41 -136 119zM463 200l32 -200h-13q-78 0 -139 23t-108 86h-3
q-66 -109 -191 -109h-14q-49 0 -70 41t-21 84q0 75 60 75h14q80 0 129 34q22 15 33 38.5t17 58.5t10 47q40 32 71 52l8 -6q-5 -48 -5 -70q0 -86 66 -125q50 -29 112 -29h12z" />
    <glyph glyph-name="uni067D.fina" unicode="&#x67d;" horiz-adv-x="1368" 
d="M303 895l80 120q79 -57 155 -124q-24 -48 -75 -121q-79 66 -160 125zM535 907l80 121q101 -77 155 -125q-32 -59 -77 -120q-84 71 -158 124zM492 671l81 121q71 -53 156 -124q-33 -60 -77 -121q-81 69 -160 124zM1363 200l32 -200h-14q-152 0 -225 81h-3
q-265 -125 -524 -125q-215 0 -365 84q-93 52 -144 152t-51 218q0 85 25 172l65 -21q-7 -49 -7 -78q0 -144 125.5 -231.5t367.5 -87.5q106 0 225.5 21.5t206.5 57.5l26 130q37 31 71 54l11 -8q-8 -51 -8 -88q0 -65 47 -98t125 -33h14z" />
    <glyph glyph-name="uni0681.init" unicode="&#x681;" horiz-adv-x="927" 
d="M494 331l-1 5q-165 53 -262 53q-56 0 -80 -18l-30 -105h-20l-84 127q4 89 55.5 134t133.5 45q95 0 288 -69q134 -47 254 -47h74l4 -8q-25 -69 -61 -139q-56 0 -92.5 -12.5t-69.5 -47.5q-64 -67 -112.5 -107.5t-114.5 -76t-147 -50.5t-188 -15h-14q-49 0 -70 41t-21 84
q0 75 60 75h14q162 0 270.5 28.5t213.5 102.5zM313 897h-13l-32 30q-14 14 -35 14q-26 0 -44 -10.5t-18 -22.5q0 -21 39.5 -38t99.5 -17q48 0 100 3l6 -9q-10 -38 -29 -81q-167 -22 -237 -72l-14 12q12 39 27 75q-75 32 -75 92q0 51 47 101q53 53 115 53q35 0 58 -18.5
t23 -48.5q0 -28 -18 -63z" />
    <glyph glyph-name="uni0681.medi" unicode="&#x681;" horiz-adv-x="902" 
d="M494 331l-1 5q-165 53 -262 53q-56 0 -80 -18l-30 -105h-20l-84 127q4 89 55.5 134t133.5 45q95 0 288 -69q134 -47 254 -47h74l4 -8q-25 -69 -61 -139q-56 0 -93 -12.5t-70 -47.5q-64 -67 -112.5 -107.5t-114 -76t-146.5 -50.5t-188 -15h-14q-49 0 -70 41t-21 84
q0 75 60 75h14q162 0 270.5 28.5t213.5 102.5zM642 241l48 44l6 -5q7 -27 24 -44t45 -24.5t53.5 -9.5t64.5 -2h14l32 -200h-14q-138 0 -190 41q-61 53 -75 141q-8 50 -8 59zM313 897h-13l-32 30q-14 14 -35 14q-26 0 -44 -10.5t-18 -22.5q0 -21 39.5 -38t99.5 -17
q48 0 100 3l6 -9q-10 -38 -29 -81q-167 -22 -237 -72l-14 12q12 39 27 75q-75 32 -75 92q0 51 47 101q53 53 115 53q35 0 58 -18.5t23 -48.5q0 -28 -18 -63z" />
    <glyph glyph-name="uni0681.fina" unicode="&#x681;" horiz-adv-x="973" 
d="M670 231l52 42q18 -47 67 -60t141 -13h38l32 -200h-14q-55 0 -86.5 2t-69.5 9t-59.5 21.5t-43.5 40t-35 64.5t-22 94zM393 897h-13l-32 30q-14 14 -35 14q-26 0 -44 -10.5t-18 -22.5q0 -21 39.5 -38t99.5 -17q48 0 100 3l6 -9q-10 -38 -29 -81q-167 -22 -237 -72l-14 12
q12 39 27 75q-75 32 -75 92q0 51 47 101q53 53 115 53q35 0 58 -18.5t23 -48.5q0 -28 -18 -63zM457 353l-1 3q-133 37 -195 37q-54 0 -82 -17l-29 -137h-19l-87 137q10 200 187 200q73 0 164.5 -30t182 -60t161.5 -30h114l9 -14l-51 -131q-252 -50 -407 -147.5t-155 -209.5
q0 -84 71 -153t194.5 -108t273.5 -39q134 0 246 27l15 -24q-104 -110 -183 -166q-43 -31 -173 -31q-248 0 -395 131t-147 350q0 141 86 250.5t220 161.5z" />
    <glyph glyph-name="uni0682.init" unicode="&#x682;" horiz-adv-x="927" 
d="M494 331l-1 5q-165 53 -262 53q-56 0 -80 -18l-30 -105h-20l-84 127q4 89 55.5 134t133.5 45q95 0 288 -69q134 -47 254 -47h74l4 -8q-25 -69 -61 -139q-56 0 -92.5 -12.5t-69.5 -47.5q-64 -67 -112.5 -107.5t-114.5 -76t-147 -50.5t-188 -15h-14q-49 0 -70 41t-21 84
q0 75 60 75h14q162 0 270.5 28.5t213.5 102.5zM174 753l68 123q78 -47 153 -111q-20 -71 -66 -117q-69 52 -155 105zM108 983l67 123q78 -46 154 -111q-22 -74 -67 -117q-59 46 -154 105z" />
    <glyph glyph-name="uni0682.medi" unicode="&#x682;" horiz-adv-x="902" 
d="M494 331l-1 5q-165 53 -262 53q-56 0 -80 -18l-30 -105h-20l-84 127q4 89 55.5 134t133.5 45q95 0 288 -69q134 -47 254 -47h74l4 -8q-25 -69 -61 -139q-56 0 -93 -12.5t-70 -47.5q-64 -67 -112.5 -107.5t-114 -76t-146.5 -50.5t-188 -15h-14q-49 0 -70 41t-21 84
q0 75 60 75h14q162 0 270.5 28.5t213.5 102.5zM642 241l48 44l6 -5q7 -27 24 -44t45 -24.5t53.5 -9.5t64.5 -2h14l32 -200h-14q-138 0 -190 41q-61 53 -75 141q-8 50 -8 59zM174 753l68 123q78 -47 153 -111q-20 -71 -66 -117q-69 52 -155 105zM108 983l67 123
q78 -46 154 -111q-22 -74 -67 -117q-59 46 -154 105z" />
    <glyph glyph-name="uni0682.fina" unicode="&#x682;" horiz-adv-x="973" 
d="M243 763l67 123q78 -46 154 -111q-22 -72 -67 -117q-59 46 -154 105zM176 993l68 123q78 -47 153 -111q-20 -71 -66 -117q-69 52 -155 105zM670 231l52 42q18 -47 67 -60t141 -13h38l32 -200h-14q-55 0 -86.5 2t-69.5 9t-59.5 21.5t-43.5 40t-35 64.5t-22 94zM457 353
l-1 3q-133 37 -195 37q-54 0 -82 -17l-29 -137h-19l-87 137q10 200 187 200q73 0 164.5 -30t182 -60t161.5 -30h114l9 -14l-51 -131q-252 -50 -407 -147.5t-155 -209.5q0 -84 71 -153t194.5 -108t273.5 -39q134 0 246 27l15 -24q-104 -110 -183 -166q-43 -31 -173 -31
q-248 0 -395 131t-147 350q0 141 86 250.5t220 161.5z" />
    <glyph glyph-name="uni0685.init" unicode="&#x685;" horiz-adv-x="927" 
d="M494 331l-1 5q-165 53 -262 53q-56 0 -80 -18l-30 -105h-20l-84 127q4 89 55.5 134t133.5 45q95 0 288 -69q134 -47 254 -47h74l4 -8q-25 -69 -61 -139q-56 0 -92.5 -12.5t-69.5 -47.5q-64 -67 -112.5 -107.5t-114.5 -76t-147 -50.5t-188 -15h-14q-49 0 -70 41t-21 84
q0 75 60 75h14q162 0 270.5 28.5t213.5 102.5zM278 808l77 113q78 -56 138 -118q-21 -53 -75 -107q-29 25 -140 112zM60 798l77 113q81 -59 139 -118q-24 -56 -75 -107q-43 36 -141 112zM110 1018l77 113q78 -55 139 -118q-24 -56 -75 -107q-43 36 -141 112z" />
    <glyph glyph-name="uni0685.medi" unicode="&#x685;" horiz-adv-x="902" 
d="M494 331l-1 5q-165 53 -262 53q-56 0 -80 -18l-30 -105h-20l-84 127q4 89 55.5 134t133.5 45q95 0 288 -69q134 -47 254 -47h74l4 -8q-25 -69 -61 -139q-56 0 -93 -12.5t-70 -47.5q-64 -67 -112.5 -107.5t-114 -76t-146.5 -50.5t-188 -15h-14q-49 0 -70 41t-21 84
q0 75 60 75h14q162 0 270.5 28.5t213.5 102.5zM642 241l48 44l6 -5q7 -27 24 -44t45 -24.5t53.5 -9.5t64.5 -2h14l32 -200h-14q-138 0 -190 41q-61 53 -75 141q-8 50 -8 59zM278 808l77 113q78 -56 138 -118q-21 -53 -75 -107q-29 25 -140 112zM60 798l77 113
q81 -59 139 -118q-24 -56 -75 -107q-43 36 -141 112zM110 1018l77 113q78 -55 139 -118q-24 -56 -75 -107q-43 36 -141 112z" />
    <glyph glyph-name="uni0685.fina" unicode="&#x685;" horiz-adv-x="973" 
d="M348 808l77 113q78 -56 138 -118q-21 -53 -75 -107q-29 25 -140 112zM130 798l77 113q81 -59 139 -118q-24 -56 -75 -107q-43 36 -141 112zM180 1018l77 113q78 -55 139 -118q-24 -56 -75 -107q-43 36 -141 112zM670 231l52 42q18 -47 67 -60t141 -13h38l32 -200h-14
q-55 0 -86.5 2t-69.5 9t-59.5 21.5t-43.5 40t-35 64.5t-22 94zM457 353l-1 3q-133 37 -195 37q-54 0 -82 -17l-29 -137h-19l-87 137q10 200 187 200q73 0 164.5 -30t182 -60t161.5 -30h114l9 -14l-51 -131q-252 -50 -407 -147.5t-155 -209.5q0 -84 71 -153t194.5 -108
t273.5 -39q134 0 246 27l15 -24q-104 -110 -183 -166q-43 -31 -173 -31q-248 0 -395 131t-147 350q0 141 86 250.5t220 161.5z" />
    <glyph glyph-name="uni0689.fina" unicode="&#x689;" horiz-adv-x="774" 
d="M769 200l32 -200h-14q-81 0 -141.5 38.5t-101.5 129.5h-3q-10 -71 -40 -97q-4 -4 -12 -10q69 -46 69 -121q0 -58 -41 -99t-99 -41t-99 41t-41 99q0 34 13 60q-171 3 -207 233q-6 29 -12 85l64 6q27 -124 147 -124q65 0 141 35q54 25 54 58q0 28 -43 131.5t-97 210.5
q28 70 70 137l18 -5q68 -158 150 -401q55 -166 179 -166h14zM343 -59q0 -31 22 -53t53 -22t53 22t22 53t-22 53t-53 22t-53 -22t-22 -53z" />
    <glyph glyph-name="uni068A.fina" unicode="&#x68a;" horiz-adv-x="774" 
d="M314 -292l73 132q76 -45 165 -119q-21 -75 -72 -126q-75 57 -166 113zM769 200l32 -200h-14q-81 0 -141.5 38.5t-101.5 129.5h-3q-10 -71 -40 -97q-77 -71 -203 -71q-177 0 -214 233q-6 29 -12 85l64 6q27 -124 147 -124q65 0 141 35q54 25 54 58q0 28 -43 131.5
t-97 210.5q28 70 70 137l18 -5q68 -158 150 -401q55 -166 179 -166h14z" />
    <glyph glyph-name="uni068B.fina" unicode="&#x68b;" horiz-adv-x="774" 
d="M314 -292l73 132q76 -45 165 -119q-21 -75 -72 -126q-75 57 -166 113zM211 825l-130 95l7 20q52 -5 102 -5q3 13 3 30q0 16 -5 48q-11 75 -25 121q-2 9 -10 33.5t-10 37.5q-1 3 -1 10q0 38 55 81l7 -3q9 -37 66 -114l-37 -42q8 -51 8 -85q0 -13 -1 -17l2 -3
q56 100 135 100q50 0 84.5 -44.5t34.5 -98.5q0 -88 -55 -126t-173 -38h-57zM241 933q148 3 202 46q-28 50 -83 50q-64 0 -119 -96zM769 200l32 -200h-14q-81 0 -141.5 38.5t-101.5 129.5h-3q-10 -71 -40 -97q-77 -71 -203 -71q-177 0 -214 233q-6 29 -12 85l64 6
q27 -124 147 -124q65 0 141 35q54 25 54 58q0 28 -43 131.5t-97 210.5q28 70 70 137l18 -5q68 -158 150 -401q55 -166 179 -166h14z" />
    <glyph glyph-name="uni068F.fina" unicode="&#x68f;" horiz-adv-x="774" 
d="M234 1159l84 107q77 -60 134 -124q-29 -55 -82 -102q-58 53 -136 119zM25 1150l83 107q78 -61 134 -124q-29 -55 -82 -102q-54 50 -135 119zM189 939l84 107q78 -62 133 -124q-30 -57 -81 -102q-58 53 -136 119zM769 200l32 -200h-14q-81 0 -141.5 38.5t-101.5 129.5h-3
q-10 -71 -40 -97q-77 -71 -203 -71q-177 0 -214 233q-6 29 -12 85l64 6q27 -124 147 -124q65 0 141 35q54 25 54 58q0 28 -43 131.5t-97 210.5q28 70 70 137l18 -5q68 -158 150 -401q55 -166 179 -166h14z" />
    <glyph glyph-name="uni0690.fina" unicode="&#x690;" horiz-adv-x="774" 
d="M328 934l84 107q78 -62 133 -124q-30 -58 -82 -102q-54 50 -135 119zM115 925l84 107q73 -57 134 -124q-29 -55 -82 -102q-58 53 -136 119zM256 1162l85 107q78 -62 133 -124q-30 -58 -82 -102q-60 56 -136 119zM44 1153l84 107q77 -60 134 -124q-29 -55 -82 -102
q-58 53 -136 119zM769 200l32 -200h-14q-81 0 -141.5 38.5t-101.5 129.5h-3q-10 -71 -40 -97q-77 -71 -203 -71q-177 0 -214 233q-6 29 -12 85l64 6q27 -124 147 -124q65 0 141 35q54 25 54 58q0 28 -43 131.5t-97 210.5q28 70 70 137l18 -5q68 -158 150 -401
q55 -166 179 -166h14z" />
    <glyph glyph-name="uni0692.fina" unicode="&#x692;" horiz-adv-x="656" 
d="M408 809h6q25 -43 40 -84q-96 -114 -119 -210l-26 -11q-39 72 -203 200l19 100h14q139 -121 168 -169h3q7 64 98 174zM651 200l32 -200h-17q-45 0 -108 19q6 -41 6 -73q0 -76 -35 -153q-68 -145 -179 -145q-116 0 -281 99l14 50q52 -17 92 -17q120 0 204 92q82 88 87 191
q-77 82 -141 185q27 96 48 148h15q59 -98 115 -147t134 -49h14z" />
    <glyph glyph-name="uni0693.fina" unicode="&#x693;" horiz-adv-x="686" 
d="M681 200l32 -200h-47q-45 0 -108 19q5 -26 5 -64q0 -52 -12 -91q8 1 22 1q62 0 102 -42.5t40 -97.5q0 -58 -41 -99t-99 -41q-47 0 -84 28.5t-50 71.5q-46 -33 -91 -33q-117 0 -282 99l14 50q52 -17 93 -17q119 0 203 92q83 87 88 187q-77 82 -141 185q27 96 48 148h15
q59 -98 115 -147t134 -49h44zM500 -275q0 -31 22 -53t53 -22t53 22t22 53t-22 53t-53 22t-53 -22t-22 -53z" />
    <glyph glyph-name="uni0694.fina" unicode="&#x694;" horiz-adv-x="656" 
d="M471 -488l71 129q83 -51 162 -117q-21 -73 -71 -123q-56 44 -162 111zM651 200l32 -200h-17q-45 0 -108 19q6 -41 6 -73q0 -76 -35 -153q-68 -145 -179 -145q-116 0 -281 99l14 50q52 -17 92 -17q120 0 204 92q82 88 87 191q-77 82 -141 185q27 96 48 148h15
q59 -98 115 -147t134 -49h14z" />
    <glyph glyph-name="uni0695.fina" unicode="&#x695;" horiz-adv-x="656" 
d="M579 -411h6q25 -47 39 -84q-96 -114 -119 -210l-26 -11q-38 72 -203 200l19 100h14q139 -121 168 -169h3q7 64 99 174zM651 200l32 -200h-17q-45 0 -108 19q6 -41 6 -73q0 -76 -35 -153q-68 -145 -179 -145q-116 0 -281 99l14 50q52 -17 92 -17q120 0 204 92
q82 88 87 191q-77 82 -141 185q27 96 48 148h15q59 -98 115 -147t134 -49h14z" />
    <glyph glyph-name="uni0696.fina" unicode="&#x696;" horiz-adv-x="656" 
d="M471 -488l71 129q83 -51 162 -117q-21 -73 -71 -123q-56 44 -162 111zM84 28l69 125q78 -48 156 -113q-19 -70 -68 -119q-68 52 -157 107zM651 200l32 -200h-17q-45 0 -108 19q6 -41 6 -73q0 -76 -35 -153q-68 -145 -179 -145q-116 0 -281 99l14 50q52 -17 92 -17
q120 0 204 92q82 88 87 191q-77 82 -141 185q27 96 48 148h15q59 -98 115 -147t134 -49h14z" />
    <glyph glyph-name="uni0697.fina" unicode="&#x697;" horiz-adv-x="656" 
d="M277 624l84 107q78 -62 133 -124q-30 -57 -81 -102q-58 53 -136 119zM67 615l84 107q73 -57 134 -124q-29 -55 -82 -102q-58 53 -136 119zM651 200l32 -200h-17q-45 0 -108 19q6 -41 6 -73q0 -76 -35 -153q-68 -145 -179 -145q-116 0 -281 99l14 50q52 -17 92 -17
q120 0 204 92q82 88 87 191q-77 82 -141 185q27 96 48 148h15q59 -98 115 -147t134 -49h14z" />
    <glyph glyph-name="uni0699.fina" unicode="&#x699;" horiz-adv-x="656" 
d="M291 594l84 107q78 -61 134 -124q-30 -58 -82 -102q-60 56 -136 119zM79 585l84 107q77 -60 134 -124q-29 -55 -82 -102q-58 53 -136 119zM220 822l84 107q78 -61 134 -124q-29 -55 -82 -102q-44 41 -136 119zM9 813l83 107q78 -62 133 -124q-30 -57 -81 -102
q-45 41 -135 119zM651 200l32 -200h-17q-45 0 -108 19q6 -41 6 -73q0 -76 -35 -153q-68 -145 -179 -145q-116 0 -281 99l14 50q52 -17 92 -17q120 0 204 92q82 88 87 191q-77 82 -141 185q27 96 48 148h15q59 -98 115 -147t134 -49h14z" />
    <glyph glyph-name="uni069A.init" unicode="&#x69a;" horiz-adv-x="921" 
d="M451 -298l71 129q83 -51 162 -117q-21 -73 -71 -123q-56 44 -162 111zM304 692l71 129q83 -51 162 -117q-21 -73 -71 -123q-56 44 -162 111zM751 512l15 -6q45 -133 59 -228q3 -17 3 -34q0 -71 -34 -141q-56 -100 -130 -100q-77 0 -153 85h-2q-70 -88 -151 -88
q-93 0 -120 79h-3q-69 -79 -194 -79h-14q-49 0 -70 41t-21 84q0 75 60 75h14q132 0 178 54q11 12 21.5 28.5t23.5 41t17 31.5q38 21 84 38l9 -11q-42 -84 -42 -125q0 -25 17.5 -42t37.5 -15q33 1 65 19q14 8 24.5 19t16 20t9.5 26.5t5 26t2.5 30.5t2.5 30q32 26 67 47l10 -7
q-4 -23 -4 -49q0 -86 45 -126q38 -33 79 -33q39 0 46 19q-35 109 -64 173q58 78 91 117z" />
    <glyph glyph-name="uni069A.medi" unicode="&#x69a;" horiz-adv-x="1024" 
d="M471 -298l71 129q83 -51 162 -117q-21 -73 -71 -123q-56 44 -162 111zM334 692l71 129q83 -51 162 -117q-21 -73 -71 -123q-56 44 -162 111zM1019 200l32 -200h-14q-180 0 -242 92h-4q-65 -92 -154 -92q-85 0 -125 85h-5q-37 -44 -70.5 -64.5t-80.5 -20.5q-83 0 -120 76
q-82 -76 -195 -76h-14q-49 0 -70 41t-21 84q0 75 60 75h14q118 0 171 45q9 8 18.5 20.5t15.5 23t17 30.5t18 32q44 26 81 40l12 -10q-41 -77 -41 -119q0 -30 17 -46t44 -16q54 0 89 39q14 17 22.5 37.5t15.5 48.5t13 44q34 22 75 40l9 -10q-25 -100 -25 -125
q0 -33 17.5 -53.5t43.5 -20.5q61 0 93 51q10 16 15.5 38.5t10 55.5t7.5 47q49 36 73 49l8 -7q-10 -63 -10 -98q0 -70 44 -103t141 -33h14z" />
    <glyph glyph-name="uni069A.fina" unicode="&#x69a;" horiz-adv-x="1475" 
d="M791 -5v-9q0 -127 -45 -198q-43 -66 -117 -104.5t-164 -38.5q-86 0 -156.5 36t-115.5 95.5t-69 134t-24 154.5q0 114 43 209l58 -27q-23 -78 -23 -132q0 -134 102 -210q76 -57 176 -57q102 0 185 63q71 54 72 98q-21 99 -149 255q28 85 69 165l11 -1q46 -72 97 -165
q20 -35 36.5 -49t48.5 -14q40 0 72 38q22 29 40 128q48 32 82 49l8 -7q-18 -108 -18 -135q0 -35 18 -53q19 -20 45 -20q59 0 93 52q6 10 11 21.5t9 30t5.5 27t5.5 35.5t5 33l68 46l11 -7q-9 -59 -9 -95q0 -39 13.5 -72t38.5 -43q52 -28 132 -28h14l32 -200h-14
q-84 0 -150.5 24t-91.5 72h-3q-72 -96 -153 -96q-83 0 -133 82h-4q-50 -87 -162 -87zM981 -298l71 129q83 -51 162 -117q-21 -73 -71 -123q-56 44 -162 111zM774 692l71 129q83 -51 162 -117q-21 -73 -71 -123q-56 44 -162 111z" />
    <glyph glyph-name="uni069B.init" unicode="&#x69b;" horiz-adv-x="921" 
d="M537 -285l84 107q78 -62 133 -124q-30 -58 -82 -102q-54 50 -135 119zM327 -294l84 107q73 -57 134 -124q-29 -55 -82 -102q-58 53 -136 119zM491 -505l85 107q78 -62 133 -124q-30 -58 -82 -102q-60 56 -136 119zM751 512l15 -6q45 -133 59 -228q3 -17 3 -34
q0 -71 -34 -141q-56 -100 -130 -100q-77 0 -153 85h-2q-70 -88 -151 -88q-93 0 -120 79h-3q-69 -79 -194 -79h-14q-49 0 -70 41t-21 84q0 75 60 75h14q132 0 178 54q11 12 21.5 28.5t23.5 41t17 31.5q38 21 84 38l9 -11q-42 -84 -42 -125q0 -25 17.5 -42t37.5 -15
q33 1 65 19q14 8 24.5 19t16 20t9.5 26.5t5 26t2.5 30.5t2.5 30q32 26 67 47l10 -7q-4 -23 -4 -49q0 -86 45 -126q38 -33 79 -33q39 0 46 19q-35 109 -64 173q58 78 91 117z" />
    <glyph glyph-name="uni069B.medi" unicode="&#x69b;" horiz-adv-x="1024" 
d="M587 -285l84 107q78 -62 133 -124q-30 -58 -82 -102q-54 50 -135 119zM377 -294l84 107q73 -57 134 -124q-29 -55 -82 -102q-58 53 -136 119zM541 -505l85 107q78 -62 133 -124q-30 -58 -82 -102q-60 56 -136 119zM1019 200l32 -200h-14q-180 0 -242 92h-4
q-65 -92 -154 -92q-85 0 -125 85h-5q-37 -44 -70.5 -64.5t-80.5 -20.5q-83 0 -120 76q-82 -76 -195 -76h-14q-49 0 -70 41t-21 84q0 75 60 75h14q118 0 171 45q9 8 18.5 20.5t15.5 23t17 30.5t18 32q44 26 81 40l12 -10q-41 -77 -41 -119q0 -30 17 -46t44 -16q54 0 89 39
q14 17 22.5 37.5t15.5 48.5t13 44q34 22 75 40l9 -10q-25 -100 -25 -125q0 -33 17.5 -53.5t43.5 -20.5q61 0 93 51q10 16 15.5 38.5t10 55.5t7.5 47q49 36 73 49l8 -7q-10 -63 -10 -98q0 -70 44 -103t141 -33h14z" />
    <glyph glyph-name="uni069B.fina" unicode="&#x69b;" horiz-adv-x="1475" 
d="M791 -5v-9q0 -127 -45 -198q-43 -66 -117 -104.5t-164 -38.5q-86 0 -156.5 36t-115.5 95.5t-69 134t-24 154.5q0 114 43 209l58 -27q-23 -78 -23 -132q0 -134 102 -210q76 -57 176 -57q102 0 185 63q71 54 72 98q-21 99 -149 255q28 85 69 165l11 -1q46 -72 97 -165
q20 -35 36.5 -49t48.5 -14q40 0 72 38q22 29 40 128q48 32 82 49l8 -7q-18 -108 -18 -135q0 -35 18 -53q19 -20 45 -20q59 0 93 52q6 10 11 21.5t9 30t5.5 27t5.5 35.5t5 33l68 46l11 -7q-9 -59 -9 -95q0 -39 13.5 -72t38.5 -43q52 -28 132 -28h14l32 -200h-14
q-84 0 -150.5 24t-91.5 72h-3q-72 -96 -153 -96q-83 0 -133 82h-4q-50 -87 -162 -87zM927 -294l84 107q73 -57 134 -124q-29 -55 -82 -102q-58 53 -136 119zM1091 -505l85 107q78 -62 133 -124q-30 -58 -82 -102q-60 56 -136 119zM1137 -285l84 107q78 -62 133 -124
q-30 -58 -82 -102q-54 50 -135 119z" />
    <glyph glyph-name="uni069C.init" unicode="&#x69c;" horiz-adv-x="921" 
d="M461 658l77 113q78 -55 139 -118q-24 -56 -75 -107q-43 36 -141 112zM244 648l77 113q76 -55 139 -118q-24 -56 -75 -107q-56 47 -141 112zM294 868l77 113q81 -59 139 -118q-24 -56 -75 -107q-43 36 -141 112zM557 -285l84 107q78 -62 133 -124q-30 -58 -82 -102
q-54 50 -135 119zM347 -294l84 107q73 -57 134 -124q-29 -55 -82 -102q-58 53 -136 119zM511 -505l85 107q78 -62 133 -124q-30 -58 -82 -102q-60 56 -136 119zM751 512l15 -6q45 -133 59 -228q3 -17 3 -34q0 -71 -34 -141q-56 -100 -130 -100q-77 0 -153 85h-2
q-70 -88 -151 -88q-93 0 -120 79h-3q-69 -79 -194 -79h-14q-49 0 -70 41t-21 84q0 75 60 75h14q132 0 178 54q11 12 21.5 28.5t23.5 41t17 31.5q38 21 84 38l9 -11q-42 -84 -42 -125q0 -25 17.5 -42t37.5 -15q33 1 65 19q14 8 24.5 19t16 20t9.5 26.5t5 26t2.5 30.5t2.5 30
q32 26 67 47l10 -7q-4 -23 -4 -49q0 -86 45 -126q38 -33 79 -33q39 0 46 19q-35 109 -64 173q58 78 91 117z" />
    <glyph glyph-name="uni069C.medi" unicode="&#x69c;" horiz-adv-x="1024" 
d="M504 638l78 113q78 -56 138 -118q-21 -53 -75 -107q-43 36 -141 112zM287 628l77 113q81 -59 139 -118q-24 -56 -75 -107q-43 36 -141 112zM337 848l77 113q81 -59 139 -118q-24 -56 -75 -107q-43 36 -141 112zM607 -285l84 107q78 -62 133 -124q-30 -58 -82 -102
q-54 50 -135 119zM397 -294l84 107q73 -57 134 -124q-29 -55 -82 -102q-58 53 -136 119zM561 -505l85 107q78 -62 133 -124q-30 -58 -82 -102q-60 56 -136 119zM1019 200l32 -200h-14q-180 0 -242 92h-4q-65 -92 -154 -92q-85 0 -125 85h-5q-37 -44 -70.5 -64.5t-80.5 -20.5
q-83 0 -120 76q-82 -76 -195 -76h-14q-49 0 -70 41t-21 84q0 75 60 75h14q118 0 171 45q9 8 18.5 20.5t15.5 23t17 30.5t18 32q44 26 81 40l12 -10q-41 -77 -41 -119q0 -30 17 -46t44 -16q54 0 89 39q14 17 22.5 37.5t15.5 48.5t13 44q34 22 75 40l9 -10q-25 -100 -25 -125
q0 -33 17.5 -53.5t43.5 -20.5q61 0 93 51q10 16 15.5 38.5t10 55.5t7.5 47q49 36 73 49l8 -7q-10 -63 -10 -98q0 -70 44 -103t141 -33h14z" />
    <glyph glyph-name="uni069C.fina" unicode="&#x69c;" horiz-adv-x="1475" 
d="M791 -5v-9q0 -127 -45 -198q-43 -66 -117 -104.5t-164 -38.5q-86 0 -156.5 36t-115.5 95.5t-69 134t-24 154.5q0 114 43 209l58 -27q-23 -78 -23 -132q0 -134 102 -210q76 -57 176 -57q102 0 185 63q71 54 72 98q-21 99 -149 255q28 85 69 165l11 -1q46 -72 97 -165
q20 -35 36.5 -49t48.5 -14q40 0 72 38q22 29 40 128q48 32 82 49l8 -7q-18 -108 -18 -135q0 -35 18 -53q19 -20 45 -20q59 0 93 52q6 10 11 21.5t9 30t5.5 27t5.5 35.5t5 33l68 46l11 -7q-9 -59 -9 -95q0 -39 13.5 -72t38.5 -43q52 -28 132 -28h14l32 -200h-14
q-84 0 -150.5 24t-91.5 72h-3q-72 -96 -153 -96q-83 0 -133 82h-4q-50 -87 -162 -87zM927 -294l84 107q73 -57 134 -124q-29 -55 -82 -102q-58 53 -136 119zM1091 -505l85 107q78 -62 133 -124q-30 -58 -82 -102q-60 56 -136 119zM944 638l78 113q78 -56 138 -118
q-21 -53 -75 -107q-43 36 -141 112zM727 628l77 113q81 -59 139 -118q-24 -56 -75 -107q-43 36 -141 112zM777 848l77 113q81 -59 139 -118q-24 -56 -75 -107q-43 36 -141 112zM1137 -285l84 107q78 -62 133 -124q-30 -58 -82 -102q-54 50 -135 119z" />
    <glyph glyph-name="uni069D.init" unicode="&#x69d;" horiz-adv-x="1060" 
d="M413 210q72 -10 141 -10q96 0 180.5 21.5t131.5 64.5q-25 64 -69.5 99t-96.5 35q-159 0 -287 -210zM645 -275l84 107q73 -57 134 -124q-29 -55 -82 -102q-58 53 -136 119zM435 -284l85 107q78 -62 133 -124q-30 -58 -82 -102q-60 56 -136 119zM329 238q73 165 169 260.5
t203 95.5q93 0 164.5 -66.5t89.5 -174.5q3 -23 3 -48q0 -103 -45 -167q-50 -69 -147 -103.5t-258 -34.5q-197 0 -273 101h-5q-66 -101 -190 -101h-13q-49 0 -70 41t-21 84q0 75 60 75h14q113 0 143 60q9 17 29 119q2 1 27.5 22.5t39.5 32.5l8 -5q-3 -30 -3 -55
q0 -47 19 -84.5t56 -51.5z" />
    <glyph glyph-name="uni069D.medi" unicode="&#x69d;" horiz-adv-x="1073" 
d="M627 -285l84 107q78 -62 133 -124q-30 -58 -82 -102q-54 50 -135 119zM417 -294l84 107q73 -57 134 -124q-29 -55 -82 -102q-58 53 -136 119zM249 434l8 -5q-3 -30 -3 -55q0 -46 19 -84t54 -51q172 340 370 340q92 0 167 -65t90 -159q4 -23 4 -50q0 -51 -16 -105h126
l32 -200h-14q-181 0 -344 28q-120 -28 -234 -28q-197 0 -273 101h-5q-66 -101 -190 -101h-13q-49 0 -70 41t-21 84q0 75 60 75h14q113 0 143 60q9 17 29 119q2 1 27.5 22.5t39.5 32.5zM415 214q49 -14 136 -14q117 0 212.5 28t95.5 55q0 29 -54.5 75t-125.5 46
q-142 0 -264 -190z" />
    <glyph glyph-name="uni069D.fina" unicode="&#x69d;" horiz-adv-x="1511" 
d="M1167 -285l84 107q78 -62 133 -124q-30 -58 -82 -102q-54 50 -135 119zM957 -294l84 107q73 -57 134 -124q-29 -55 -82 -102q-58 53 -136 119zM760 231h4q165 348 376 348q90 0 164 -66t89 -160q4 -30 4 -46q0 -51 -17 -107h126l32 -200h-14q-185 0 -344 28
q-96 -28 -225 -28q-74 0 -163 12q-15 -157 -75 -223q-102 -114 -259 -114q-143 0 -248 120.5t-105 305.5q0 104 41 208l59 -25q-21 -73 -21 -132q0 -127 83 -204q77 -73 177 -73q103 0 170 48t90 103q-43 150 -153 302q36 85 80 153l13 -4q64 -103 116 -246zM843 210
q72 -10 141 -10q176 0 289 56q23 13 23 26q0 32 -53.5 77t-125.5 45q-74 0 -140 -51t-134 -143z" />
    <glyph glyph-name="uni069E.init" unicode="&#x69e;" horiz-adv-x="1060" 
d="M413 210q72 -10 141 -10q96 0 180.5 21.5t131.5 64.5q-25 64 -69.5 99t-96.5 35q-159 0 -287 -210zM578 808l77 113q78 -56 138 -118q-21 -53 -75 -107q-29 25 -140 112zM360 798l77 113q81 -59 139 -118q-24 -56 -75 -107q-43 36 -141 112zM410 1018l77 113
q78 -55 139 -118q-24 -56 -75 -107q-43 36 -141 112zM329 238q73 165 169 260.5t203 95.5q93 0 164.5 -66.5t89.5 -174.5q3 -23 3 -48q0 -103 -45 -167q-50 -69 -147 -103.5t-258 -34.5q-197 0 -273 101h-5q-66 -101 -190 -101h-13q-49 0 -70 41t-21 84q0 75 60 75h14
q113 0 143 60q9 17 29 119q2 1 27.5 22.5t39.5 32.5l8 -5q-3 -30 -3 -55q0 -47 19 -84.5t56 -51.5z" />
    <glyph glyph-name="uni069E.medi" unicode="&#x69e;" horiz-adv-x="1073" 
d="M589 798l77 113q81 -59 139 -118q-24 -56 -75 -107q-43 36 -141 112zM372 788l77 113q78 -56 138 -118q-21 -53 -75 -107q-53 45 -140 112zM422 1008l77 113q76 -55 139 -118q-24 -56 -75 -107q-56 47 -141 112zM249 434l8 -5q-3 -30 -3 -55q0 -46 19 -84t54 -51
q172 340 370 340q92 0 167 -65t90 -159q4 -23 4 -50q0 -51 -16 -105h126l32 -200h-14q-181 0 -344 28q-120 -28 -234 -28q-197 0 -273 101h-5q-66 -101 -190 -101h-13q-49 0 -70 41t-21 84q0 75 60 75h14q113 0 143 60q9 17 29 119q2 1 27.5 22.5t39.5 32.5zM415 214
q49 -14 136 -14q117 0 212.5 28t95.5 55q0 29 -54.5 75t-125.5 46q-142 0 -264 -190z" />
    <glyph glyph-name="uni069E.fina" unicode="&#x69e;" horiz-adv-x="1511" 
d="M999 798l77 113q81 -59 139 -118q-24 -56 -75 -107q-43 36 -141 112zM782 788l77 113q78 -56 138 -118q-21 -53 -75 -107q-53 45 -140 112zM832 1008l77 113q76 -55 139 -118q-24 -56 -75 -107q-56 47 -141 112zM760 231h4q165 348 376 348q90 0 164 -66t89 -160
q4 -30 4 -46q0 -51 -17 -107h126l32 -200h-14q-185 0 -344 28q-96 -28 -225 -28q-74 0 -163 12q-15 -157 -75 -223q-102 -114 -259 -114q-143 0 -248 120.5t-105 305.5q0 104 41 208l59 -25q-21 -73 -21 -132q0 -127 83 -204q77 -73 177 -73q103 0 170 48t90 103
q-43 150 -153 302q36 85 80 153l13 -4q64 -103 116 -246zM843 210q72 -10 141 -10q176 0 289 56q23 13 23 26q0 32 -53.5 77t-125.5 45q-74 0 -140 -51t-134 -143z" />
    <glyph glyph-name="uni069F.init" unicode="&#x69f;" horiz-adv-x="936" 
d="M512 790l76 99q64 -47 124 -107q-22 -46 -72 -98q-71 64 -128 106zM315 777l76 99q69 -51 124 -107q-22 -46 -72 -98q-62 57 -128 106zM359 973l76 99q64 -47 124 -107q-22 -46 -72 -98q-71 64 -128 106zM195 338l5 -2q180 255 363 255q113 0 191.5 -85t78.5 -198
q0 -47 -12.5 -98t-35.5 -84q-63 -65 -231.5 -95t-512.5 -31h-14q-49 0 -70 41t-21 84q0 75 60 75h103l24 44q-1 87 -27 243q-15 102 -65 321q-1 6 -19.5 67.5t-18.5 89.5q0 54 79 129l13 -7q8 -50 41.5 -110.5t112.5 -159.5l-76 -66q30 -162 36 -203q9 -52 9 -102
q0 -59 -13 -108zM208 200q411 0 516 95q-18 43 -69 78.5t-110 35.5q-161 0 -337 -209z" />
    <glyph glyph-name="uni069F.medi" unicode="&#x69f;" horiz-adv-x="940" 
d="M504 780l75 99q66 -47 124 -107q-20 -46 -71 -98q-64 58 -128 106zM307 767l75 99q66 -47 124 -107q-20 -46 -71 -98q-64 58 -128 106zM351 963l75 99q66 -47 124 -107q-20 -46 -71 -98q-64 58 -128 106zM197 361l4 -1q171 217 329 217q136 0 224 -103q75 -88 75 -186
q0 -46 -14 -88h120l32 -200h-14q-166 0 -362 26q-182 -26 -550 -26h-14q-49 0 -70 41t-21 84q0 75 60 75h88l37 56v13q0 66 -13 145q-26 166 -51.5 280.5t-41 167t-17.5 62.5q-3 18 -3 32q0 38 17 65.5t58 69.5l16 -9q14 -85 152 -268l-76 -64q16 -83 37 -218q7 -45 7 -81
t-9 -90zM203 200q364 0 465 34q56 20 53 35q-6 31 -67.5 78.5t-141.5 47.5q-146 0 -309 -195z" />
    <glyph glyph-name="uni069F.fina" unicode="&#x69f;" horiz-adv-x="1195" 
d="M754 780l75 99q66 -47 124 -107q-20 -46 -71 -98q-64 58 -128 106zM557 767l75 99q66 -47 124 -107q-20 -46 -71 -98q-64 58 -128 106zM601 963l75 99q66 -47 124 -107q-20 -46 -71 -98q-64 58 -128 106zM452 361l4 -1q171 217 329 217q137 0 225 -103q74 -87 74 -186
q0 -46 -14 -88h120l32 -200h-14q-166 0 -362 26q-185 -26 -338 -26q-72 0 -118 4q-36 -55 -73 -119l-20 19v110l-50 8q-110 100 -209 200l4 13q132 -20 304 -35l30 56v13q0 66 -13 145q-26 166 -51.5 280.5t-41.5 167t-18 62.5q-3 18 -3 32q0 38 17.5 66t58.5 69l16 -9
q14 -85 152 -268l-76 -64q16 -83 37 -218q7 -45 7 -81t-9 -90zM458 197q355 0 465 37q56 20 53 35q-6 31 -67.5 78.5t-141.5 47.5q-141 0 -309 -198z" />
    <glyph glyph-name="uni06A0.init" unicode="&#x6a0;" horiz-adv-x="748" 
d="M202 844l84 107q77 -60 134 -124q-29 -55 -82 -102q-58 53 -136 119zM-7 835l83 107q73 -57 134 -124q-29 -55 -82 -102q-31 29 -135 119zM42 1051l84 107q73 -57 134 -124q-29 -55 -82 -102q-58 53 -136 119zM534 484l-26 -36q-87 58 -161 58q-51 0 -95.5 -12.5
t-66 -26.5t-21.5 -23q0 -15 26.5 -48.5t60.5 -61.5q77 -58 133 -58q74 0 271 75l16 -15q-21 -90 -51 -180q-51 -26 -173.5 -59.5t-150.5 -43.5q-151 -53 -255 -53h-14q-49 0 -70 41t-21 84q0 75 60 75h14q91 0 135 9v3q-99 82 -99 189q0 69 35 133q68 130 192 130
q141 0 261 -180z" />
    <glyph glyph-name="uni06A0.medi" unicode="&#x6a0;" horiz-adv-x="752" 
d="M270 794l84 107q78 -62 133 -124q-30 -57 -81 -102q-58 53 -136 119zM60 785l84 107q73 -57 134 -124q-29 -55 -82 -102q-44 41 -136 119zM110 1001l84 107q73 -57 134 -124q-29 -55 -82 -102q-58 53 -136 119zM507 243l1 -4q80 -39 225 -39h14l32 -200h-14
q-100 0 -187 26t-185 94q-81 -69 -163.5 -94.5t-188.5 -25.5h-14q-49 0 -70 41t-21 84q0 75 60 75h42q150 0 212 27l-1 4q-63 48 -141 116q-38 32 -71 32h-24l-3 3l30 163q2 0 112.5 18t203.5 18q157 0 292 -51q-4 -99 -10 -148q-27 -30 -131 -139zM530 398v5
q-82 23 -163 23q-97 0 -163 -16v-5q107 -83 184 -127q63 44 142 120z" />
    <glyph glyph-name="uni06A0.fina" unicode="&#x6a0;" horiz-adv-x="862" 
d="M340 794l84 107q78 -62 133 -124q-30 -57 -81 -102q-58 53 -136 119zM130 785l84 107q73 -57 134 -124q-29 -55 -82 -102q-44 41 -136 119zM180 1001l84 107q73 -57 134 -124q-29 -55 -82 -102q-58 53 -136 119zM458 276q87 58 163 127l-1 5q-84 21 -184 21
q-95 0 -164 -15l1 -5q153 -111 185 -133zM462 124q-122 -59 -196 -126t-74 -120q0 -95 143.5 -174t349.5 -79q130 0 271 24l14 -19q-74 -81 -206 -181q-82 -18 -160 -18q-131 0 -244 49t-185 147t-72 226q0 204 218 375q-27 22 -62.5 54.5t-53.5 48t-39.5 28t-39.5 12.5
q-22 0 -47 -7l-11 10l32 164q15 3 63 13.5t77.5 15.5t80 10.5t100.5 5.5q162 0 303 -50q0 -98 -5 -152q-64 -75 -134 -145l1 -3q47 -21 105 -27t152 -6h14l32 -200h-14q-141 0 -231 30.5t-182 93.5z" />
    <glyph glyph-name="uni06A1.init" unicode="&#x6a1;" horiz-adv-x="582" 
d="M-4 200h53q182 0 265 11t83 48q0 11 -6 19q-43 -5 -108 -5q-145 0 -220.5 60t-75.5 179q0 87 50 154q65 85 146 85q65 0 129.5 -71.5t109 -179t63.5 -224.5q6 -40 6 -73q0 -40 -10.5 -71t-27 -52.5t-48.5 -36t-64 -23t-84 -13t-98.5 -6t-117.5 -1.5h-14q-49 0 -70 41
t-21 84q0 75 60 75zM343 428q-85 166 -181 166q-45 0 -71.5 -18.5t-26.5 -42.5q0 -46 78.5 -73.5t200.5 -31.5z" />
    <glyph glyph-name="uni06A1.medi" unicode="&#x6a1;" horiz-adv-x="655" 
d="M-4 200h14q71 0 124 12q-42 105 -42 191q0 115 78 204q69 79 139 79q54 0 108 -64q96 -113 96 -265q0 -65 -24 -144q75 -11 147 -13h14l32 -200h-14q-108 0 -175.5 12t-181.5 50q-114 -62 -270 -62h-14q-49 0 -70 41t-21 84q0 75 60 75zM161 365q27 -77 153 -119
q56 17 90 46.5t34 55.5q0 41 -46 95t-93 54q-46 0 -85.5 -39.5t-52.5 -92.5z" />
    <glyph glyph-name="uni06A1.fina" unicode="&#x6a1;" horiz-adv-x="1473" 
d="M1500 0h-14q-176 0 -320 59q-288 -103 -543 -103q-267 0 -410.5 120.5t-143.5 335.5q0 91 25 176l68 -25q-10 -39 -10 -79q0 -150 129 -233t356 -86q165 0 317 35q-46 108 -46 201q0 113 80 206q69 79 139 79q54 0 108 -64q97 -115 97 -273q0 -62 -23 -135
q60 -14 145 -14h14zM979 365q28 -78 153 -121q56 17 90.5 47.5t34.5 56.5q0 41 -46.5 95t-93.5 54q-46 0 -85.5 -39.5t-52.5 -92.5z" />
    <glyph glyph-name="uni06A2.init" unicode="&#x6a2;" horiz-adv-x="582" 
d="M191 -299l71 129q83 -51 162 -117q-21 -73 -71 -123q-56 44 -162 111zM-4 200h53q182 0 265 11t83 48q0 11 -6 19q-43 -5 -108 -5q-145 0 -220.5 60t-75.5 179q0 87 50 154q65 85 146 85q65 0 129.5 -71.5t109 -179t63.5 -224.5q6 -40 6 -73q0 -40 -10.5 -71t-27 -52.5
t-48.5 -36t-64 -23t-84 -13t-98.5 -6t-117.5 -1.5h-14q-49 0 -70 41t-21 84q0 75 60 75zM343 428q-85 166 -181 166q-45 0 -71.5 -18.5t-26.5 -42.5q0 -46 78.5 -73.5t200.5 -31.5z" />
    <glyph glyph-name="uni06A2.medi" unicode="&#x6a2;" horiz-adv-x="655" 
d="M272 -309l72 129q83 -51 162 -117q-23 -75 -71 -123q-59 45 -163 111zM-4 200h14q71 0 124 12q-42 105 -42 191q0 115 78 204q69 79 139 79q54 0 108 -64q96 -113 96 -265q0 -65 -24 -144q75 -11 147 -13h14l32 -200h-14q-108 0 -175.5 12t-181.5 50q-114 -62 -270 -62
h-14q-49 0 -70 41t-21 84q0 75 60 75zM161 365q27 -77 153 -119q56 17 90 46.5t34 55.5q0 41 -46 95t-93 54q-46 0 -85.5 -39.5t-52.5 -92.5z" />
    <glyph glyph-name="uni06A2.fina" unicode="&#x6a2;" horiz-adv-x="1473" 
d="M1108 -297l73 132q82 -50 164 -119q-22 -77 -72 -126q-71 55 -165 113zM1500 0h-14q-176 0 -320 59q-288 -103 -543 -103q-267 0 -410.5 120.5t-143.5 335.5q0 91 25 176l68 -25q-10 -39 -10 -79q0 -150 129 -233t356 -86q165 0 317 35q-46 108 -46 201q0 113 80 206
q69 79 139 79q54 0 108 -64q97 -115 97 -273q0 -62 -23 -135q60 -14 145 -14h14zM979 365q28 -78 153 -121q56 17 90.5 47.5t34.5 56.5q0 41 -46.5 95t-93.5 54q-46 0 -85.5 -39.5t-52.5 -92.5z" />
    <glyph glyph-name="uni06A3.init" unicode="&#x6a3;" horiz-adv-x="582" 
d="M-1 921l70 129q83 -51 162 -117q-23 -75 -71 -123q-53 41 -161 111zM191 -299l71 129q83 -51 162 -117q-21 -73 -71 -123q-56 44 -162 111zM-4 200h53q182 0 265 11t83 48q0 11 -6 19q-43 -5 -108 -5q-145 0 -220.5 60t-75.5 179q0 87 50 154q65 85 146 85
q65 0 129.5 -71.5t109 -179t63.5 -224.5q6 -40 6 -73q0 -40 -10.5 -71t-27 -52.5t-48.5 -36t-64 -23t-84 -13t-98.5 -6t-117.5 -1.5h-14q-49 0 -70 41t-21 84q0 75 60 75zM343 428q-85 166 -181 166q-45 0 -71.5 -18.5t-26.5 -42.5q0 -46 78.5 -73.5t200.5 -31.5z" />
    <glyph glyph-name="uni06A3.medi" unicode="&#x6a3;" horiz-adv-x="655" 
d="M113 879l72 129q85 -52 161 -117q-21 -74 -70 -123q-59 45 -163 111zM272 -309l72 129q83 -51 162 -117q-23 -75 -71 -123q-59 45 -163 111zM-4 200h14q71 0 124 12q-42 105 -42 191q0 115 78 204q69 79 139 79q54 0 108 -64q96 -113 96 -265q0 -65 -24 -144
q75 -11 147 -13h14l32 -200h-14q-108 0 -175.5 12t-181.5 50q-114 -62 -270 -62h-14q-49 0 -70 41t-21 84q0 75 60 75zM161 365q27 -77 153 -119q56 17 90 46.5t34 55.5q0 41 -46 95t-93 54q-46 0 -85.5 -39.5t-52.5 -92.5z" />
    <glyph glyph-name="uni06A3.fina" unicode="&#x6a3;" horiz-adv-x="1473" 
d="M921 883l73 132q79 -48 165 -119q-21 -75 -72 -126q-75 57 -166 113zM583 -333l76 137q77 -47 171 -123q-23 -81 -75 -131q-77 58 -172 117zM1500 0h-14q-176 0 -320 59q-288 -103 -543 -103q-267 0 -410.5 120.5t-143.5 335.5q0 91 25 176l68 -25q-10 -39 -10 -79
q0 -150 129 -233t356 -86q165 0 317 35q-46 108 -46 201q0 113 80 206q69 79 139 79q54 0 108 -64q97 -115 97 -273q0 -62 -23 -135q60 -14 145 -14h14zM979 365q28 -78 153 -121q56 17 90.5 47.5t34.5 56.5q0 41 -46.5 95t-93.5 54q-46 0 -85.5 -39.5t-52.5 -92.5z" />
    <glyph glyph-name="uni06A5.init" unicode="&#x6a5;" horiz-adv-x="582" 
d="M320 -271l84 107q78 -61 134 -124q-30 -58 -82 -102q-60 56 -136 119zM111 -280l84 107q77 -60 134 -124q-29 -55 -82 -102q-58 53 -136 119zM275 -491l84 107q73 -57 134 -124q-29 -55 -82 -102q-44 41 -136 119zM-4 200h53q182 0 265 11t83 48q0 11 -6 19
q-43 -5 -108 -5q-145 0 -220.5 60t-75.5 179q0 87 50 154q65 85 146 85q65 0 129.5 -71.5t109 -179t63.5 -224.5q6 -40 6 -73q0 -40 -10.5 -71t-27 -52.5t-48.5 -36t-64 -23t-84 -13t-98.5 -6t-117.5 -1.5h-14q-49 0 -70 41t-21 84q0 75 60 75zM343 428q-85 166 -181 166
q-45 0 -71.5 -18.5t-26.5 -42.5q0 -46 78.5 -73.5t200.5 -31.5z" />
    <glyph glyph-name="uni06A5.medi" unicode="&#x6a5;" horiz-adv-x="655" 
d="M382 -281l84 107q73 -57 134 -124q-29 -55 -82 -102q-58 53 -136 119zM172 -290l84 107q78 -61 134 -124q-30 -58 -82 -102q-60 56 -136 119zM337 -501l84 107q77 -60 134 -124q-29 -55 -82 -102q-58 53 -136 119zM-4 200h14q71 0 124 12q-42 105 -42 191q0 115 78 204
q69 79 139 79q54 0 108 -64q96 -113 96 -265q0 -65 -24 -144q75 -11 147 -13h14l32 -200h-14q-108 0 -175.5 12t-181.5 50q-114 -62 -270 -62h-14q-49 0 -70 41t-21 84q0 75 60 75zM161 365q27 -77 153 -119q56 17 90 46.5t34 55.5q0 41 -46 95t-93 54q-46 0 -85.5 -39.5
t-52.5 -92.5z" />
    <glyph glyph-name="uni06A5.fina" unicode="&#x6a5;" horiz-adv-x="1473" 
d="M1210 -271l84 107q78 -61 134 -124q-30 -58 -82 -102q-60 56 -136 119zM1001 -280l84 107q77 -60 134 -124q-29 -55 -82 -102q-58 53 -136 119zM1165 -491l84 107q73 -57 134 -124q-29 -55 -82 -102q-44 41 -136 119zM1500 0h-14q-176 0 -320 59q-288 -103 -543 -103
q-267 0 -410.5 120.5t-143.5 335.5q0 91 25 176l68 -25q-10 -39 -10 -79q0 -150 129 -233t356 -86q165 0 317 35q-46 108 -46 201q0 113 80 206q69 79 139 79q54 0 108 -64q97 -115 97 -273q0 -62 -23 -135q60 -14 145 -14h14zM979 365q28 -78 153 -121q56 17 90.5 47.5
t34.5 56.5q0 41 -46.5 95t-93.5 54q-46 0 -85.5 -39.5t-52.5 -92.5z" />
    <glyph glyph-name="uni06A7.init" unicode="&#x6a7;" horiz-adv-x="582" 
d="M-1 921l70 129q83 -51 162 -117q-23 -75 -71 -123q-53 41 -161 111zM-4 200h53q182 0 265 11t83 48q0 11 -6 19q-43 -5 -108 -5q-145 0 -220.5 60t-75.5 179q0 87 50 154q65 85 146 85q65 0 129.5 -71.5t109 -179t63.5 -224.5q6 -40 6 -73q0 -40 -10.5 -71t-27 -52.5
t-48.5 -36t-64 -23t-84 -13t-98.5 -6t-117.5 -1.5h-14q-49 0 -70 41t-21 84q0 75 60 75zM343 428q-85 166 -181 166q-45 0 -71.5 -18.5t-26.5 -42.5q0 -46 78.5 -73.5t200.5 -31.5z" />
    <glyph glyph-name="uni06A7.medi" unicode="&#x6a7;" horiz-adv-x="655" 
d="M113 879l72 129q85 -52 161 -117q-21 -74 -70 -123q-59 45 -163 111zM-4 200h14q71 0 124 12q-42 105 -42 191q0 115 78 204q69 79 139 79q54 0 108 -64q96 -113 96 -265q0 -65 -24 -144q75 -11 147 -13h14l32 -200h-14q-108 0 -175.5 12t-181.5 50q-114 -62 -270 -62
h-14q-49 0 -70 41t-21 84q0 75 60 75zM161 365q27 -77 153 -119q56 17 90 46.5t34 55.5q0 41 -46 95t-93 54q-46 0 -85.5 -39.5t-52.5 -92.5z" />
    <glyph glyph-name="uni06A7.fina" unicode="&#x6a7;" horiz-adv-x="1042" 
d="M469 748l73 132q76 -45 165 -119q-22 -77 -72 -126q-75 57 -166 113zM966 200h71l32 -200h-56q0 -100 -14 -151q-61 -115 -178.5 -183.5t-254.5 -68.5q-207 0 -332 149t-125 379q0 87 21 184l65 -22q-6 -50 -6 -95q0 -209 129 -313q95 -76 243 -76q132 0 258 82
q83 57 116 105l-7 10h-77q-165 0 -263 70.5t-98 218.5q0 84 47 153q61 89 147 89q83 0 154.5 -85.5t127.5 -245.5zM865 200q-89 167 -198 167q-42 0 -68 -22.5t-26 -46.5q0 -45 75.5 -73t177.5 -28q21 0 39 3z" />
    <glyph glyph-name="uni06A8.init" unicode="&#x6a8;" horiz-adv-x="582" 
d="M109 924l84 107q73 -57 134 -124q-29 -55 -82 -102q-44 41 -136 119zM-99 915l84 107q79 -63 132 -124q-30 -58 -82 -102q-51 49 -134 119zM-50 1131l83 107q78 -61 134 -124q-29 -55 -82 -102q-68 64 -135 119zM-4 200h53q182 0 265 11t83 48q0 11 -6 19q-43 -5 -108 -5
q-145 0 -220.5 60t-75.5 179q0 87 50 154q65 85 146 85q65 0 129.5 -71.5t109 -179t63.5 -224.5q6 -40 6 -73q0 -40 -10.5 -71t-27 -52.5t-48.5 -36t-64 -23t-84 -13t-98.5 -6t-117.5 -1.5h-14q-49 0 -70 41t-21 84q0 75 60 75zM343 428q-85 166 -181 166q-45 0 -71.5 -18.5
t-26.5 -42.5q0 -46 78.5 -73.5t200.5 -31.5z" />
    <glyph glyph-name="uni06A8.medi" unicode="&#x6a8;" horiz-adv-x="655" 
d="M239 864l84 107q78 -62 133 -124q-30 -57 -81 -102q-58 53 -136 119zM29 855l84 107q73 -57 134 -124q-29 -55 -82 -102q-58 53 -136 119zM79 1071l84 107q77 -60 134 -124q-29 -55 -82 -102q-58 53 -136 119zM-4 200h14q71 0 124 12q-42 105 -42 191q0 115 78 204
q69 79 139 79q54 0 108 -64q96 -113 96 -265q0 -65 -24 -144q75 -11 147 -13h14l32 -200h-14q-108 0 -175.5 12t-181.5 50q-114 -62 -270 -62h-14q-49 0 -70 41t-21 84q0 75 60 75zM161 365q27 -77 153 -119q56 17 90 46.5t34 55.5q0 41 -46 95t-93 54q-46 0 -85.5 -39.5
t-52.5 -92.5z" />
    <glyph glyph-name="uni06A8.fina" unicode="&#x6a8;" horiz-adv-x="1042" 
d="M586 754l84 107q73 -57 134 -124q-29 -55 -82 -102q-58 53 -136 119zM377 745l84 107q78 -62 133 -124q-30 -58 -82 -102q-54 50 -135 119zM426 961l84 107q73 -57 134 -124q-29 -55 -82 -102q-44 41 -136 119zM966 200h71l32 -200h-56q0 -100 -14 -151
q-61 -115 -178.5 -183.5t-254.5 -68.5q-207 0 -332 149t-125 379q0 87 21 184l65 -22q-6 -50 -6 -95q0 -209 129 -313q95 -76 243 -76q132 0 258 82q83 57 116 105l-7 10h-77q-165 0 -263 70.5t-98 218.5q0 84 47 153q61 89 147 89q83 0 154.5 -85.5t127.5 -245.5zM865 200
q-89 167 -198 167q-42 0 -68 -22.5t-26 -46.5q0 -45 75.5 -73t177.5 -28q21 0 39 3z" />
    <glyph glyph-name="uni06AA.init" unicode="&#x6aa;" horiz-adv-x="1417" 
d="M472 721l-18 -1q-30 33 -59 33q-41 0 -104 -30.5t-110.5 -73.5t-47.5 -74q0 -30 57 -48.5t142 -18.5q120 0 316.5 15.5t296.5 15.5q166 0 262 -73q52 -38 86.5 -97t34.5 -127q0 -50 -42 -181q-160 0 -563.5 -30.5t-639.5 -30.5h-56q-49 0 -70 41t-21 84q0 75 60 75h66
q294 1 637 22t483 21q-67 107 -264 107q-92 0 -294 -17.5t-304 -17.5q-139 0 -215 49t-76 146q0 56 22 125q39 125 150 219q115 101 200 101q83 0 97 -84q2 -10 2 -31q0 -51 -28 -119z" />
    <glyph glyph-name="uni06AA.medi" unicode="&#x6aa;" horiz-adv-x="1434" 
d="M1429 200l32 -200h-14q-110 0 -161 61q-160 0 -563.5 -30.5t-639.5 -30.5h-56q-49 0 -70 41t-21 84q0 75 60 75h66q294 1 637 22t483 21q-67 107 -264 107q-92 0 -294 -17.5t-304 -17.5q-139 0 -215 49t-76 146q0 56 22 125q39 125 150 219q115 101 200 101q83 0 97 -84
q2 -10 2 -31q0 -51 -28 -119l-18 -1q-30 33 -59 33q-41 0 -104 -30.5t-110.5 -73.5t-47.5 -74q0 -30 57 -48.5t142 -18.5q120 0 316.5 15.5t296.5 15.5q165 0 263 -72q60 -45 84.5 -92t24.5 -110q0 -13 -2 -33q38 -32 100 -32h14z" />
    <glyph glyph-name="uni06AA.fina" unicode="&#x6aa;" horiz-adv-x="1664" 
d="M1659 200l32 -200h-14q-110 0 -161 61q-170 0 -534 -30.5t-558 -30.5q-72 0 -132 12l-231 204l9 15q181 -31 390 -31q154 0 478 21.5t474 21.5q-67 107 -264 107q-92 0 -294 -17.5t-304 -17.5q-140 0 -216 49t-76 148q0 50 23 123q39 125 150 219q115 101 200 101
q84 0 97 -84q2 -10 2 -31q0 -51 -28 -119l-18 -1q-30 33 -59 33q-41 0 -104 -30.5t-110.5 -73.5t-47.5 -74q0 -30 57 -48.5t142 -18.5q120 0 316.5 15.5t296.5 15.5q165 0 263 -72q60 -45 84.5 -92t24.5 -110q0 -23 -2 -33q38 -32 100 -32h14z" />
    <glyph glyph-name="uni06AB.init" unicode="&#x6ab;" horiz-adv-x="638" 
d="M208 707l-21 -77q141 -104 194 -186.5t53 -180.5q0 -61 -23 -133q-42 -130 -370 -130h-14q-49 0 -70 41t-21 84q0 75 60 75h14q144 0 234 21t90 53q0 54 -108.5 147t-280.5 195q-42 102 -42 154q0 80 79 119q136 71 484 193l8 -7q-25 -81 -59 -166l-5 -2q24 -13 38 -40
t14 -55q0 -50 -35 -85t-85 -35t-85 35t-35 85q0 19 4 32q-125 -47 -229 -96v-6q90 -19 211 -35zM277 812q0 -27 19 -46t46 -19t46 19t19 46t-19 46t-46 19t-46 -19t-19 -46z" />
    <glyph glyph-name="uni06AB.medi" unicode="&#x6ab;" horiz-adv-x="770" 
d="M203 671l-29 -80q94 -63 189.5 -144t147.5 -129t115.5 -83t124.5 -35h14l32 -200h-14q-48 0 -85 7.5t-62 16.5t-58 36t-51.5 45.5t-64.5 67.5t-77 81h-3v-10q0 -107 -60 -178q-63 -66 -281 -66h-14q-49 0 -70 41t-21 84q0 75 60 75h14q118 0 187 10.5t84 43.5
q-30 103 -337 350q-35 58 -35 141q0 54 22 86q20 25 52 43q139 80 537 209l9 -8q-23 -75 -59 -161q-34 -10 -66 -21q21 -14 34.5 -40t13.5 -53q0 -50 -35 -85t-85 -35t-85 35t-35 85q0 18 3 27q-117 -44 -208 -91v-5q78 -27 196 -60zM267 800q0 -27 19 -46t46 -19t46 19
t19 46t-19 46t-46 19t-46 -19t-19 -46z" />
    <glyph glyph-name="uni06AB.fina" unicode="&#x6ab;" horiz-adv-x="1414" 
d="M847 671l-29 -80q94 -63 189.5 -144t147.5 -129t115.5 -83t124.5 -35h14l32 -200h-14q-41 0 -73.5 4.5t-62.5 18t-50.5 25.5t-49.5 39t-47 46t-55 59.5t-63 67.5h-5q-3 -86 -41 -155q-51 -50 -180 -84t-271 -34q-221 0 -339.5 102.5t-118.5 306.5q0 60 12 132l57 -15v-37
q0 -143 97.5 -213.5t280.5 -70.5q114 0 226 22t173 62q-53 107 -330 328q-35 58 -35 141q0 54 22 86q20 25 52 43q140 80 538 209l9 -8q-23 -75 -59 -161q-34 -10 -66 -21q21 -14 34.5 -40t13.5 -53q0 -50 -35 -85t-85 -35t-85 35t-35 85q0 18 3 27q-116 -43 -209 -91l2 -5
q91 -31 195 -60zM911 800q0 -27 19 -46t46 -19t46 19t19 46t-19 46t-46 19t-46 -19t-19 -46z" />
    <glyph glyph-name="uni06AC.init" unicode="&#x6ac;" horiz-adv-x="638" 
d="M-118 1142l71 129q79 -48 161 -117q-23 -75 -71 -123q-54 43 -161 111zM208 707l-21 -77q141 -104 194 -186.5t53 -180.5q0 -61 -23 -133q-42 -130 -370 -130h-14q-49 0 -70 41t-21 84q0 75 60 75h14q144 0 234 21t90 53q0 54 -108.5 147t-280.5 195q-42 102 -42 154
q0 80 79 119q136 71 484 193l8 -7q-25 -81 -59 -166q-258 -84 -418 -161v-6q90 -19 211 -35z" />
    <glyph glyph-name="uni06AC.medi" unicode="&#x6ac;" horiz-adv-x="770" 
d="M203 671l-29 -80q94 -63 189.5 -144t147.5 -129t115.5 -83t124.5 -35h14l32 -200h-14q-48 0 -85 7.5t-62 16.5t-58 36t-51.5 45.5t-64.5 67.5t-77 81h-3v-10q0 -107 -60 -178q-63 -66 -281 -66h-14q-49 0 -70 41t-21 84q0 75 60 75h14q118 0 187 10.5t84 43.5
q-30 103 -337 350q-35 58 -35 141q0 54 22 86q20 25 52 43q139 80 537 209l9 -8q-23 -75 -59 -161q-294 -90 -463 -178v-5q78 -27 196 -60zM-118 1142l71 129q79 -48 161 -117q-23 -75 -71 -123q-54 43 -161 111z" />
    <glyph glyph-name="uni06AC.fina" unicode="&#x6ac;" horiz-adv-x="1111" 
d="M558 1222l72 129q83 -52 161 -117q-21 -72 -70 -123q-59 45 -163 111zM781 1039l13 -8q49 -188 96 -494l24 -148q30 -189 178 -189h14l32 -200h-14q-192 0 -258 173h-4q-38 -58 -143 -111q-129 -62 -257 -62q-181 0 -288 118.5t-107 302.5q0 78 22 162l62 -19
q-3 -30 -3 -59q0 -144 81.5 -223.5t211.5 -79.5q103 0 204.5 36t164.5 95q-40 247 -126 590q59 78 97 116zM513 716l-10 -2q-15 13 -31 13q-36 0 -78 -57v-2h73q53 0 81.5 -26.5t28.5 -77.5q0 -16 -3 -39q-14 -102 -140 -102q-26 0 -52 5q-57 27 -98 52l3 16q221 15 221 54
q0 12 -36.5 14.5t-120.5 2.5h-15q-10 37 -10 72q0 82 53 137q53 53 86 53q52 0 52 -75q0 -12 -4 -38z" />
    <glyph glyph-name="uni06AE.init" unicode="&#x6ae;" horiz-adv-x="638" 
d="M289 -201l84 107q78 -61 134 -124q-29 -55 -82 -102q-60 56 -136 119zM80 -210l84 107q78 -62 133 -124q-30 -57 -81 -102q-58 53 -136 119zM244 -421l84 107q73 -57 134 -124q-29 -55 -82 -102q-44 41 -136 119zM208 707l-21 -77q141 -104 194 -186.5t53 -180.5
q0 -61 -23 -133q-42 -130 -370 -130h-14q-49 0 -70 41t-21 84q0 75 60 75h14q144 0 234 21t90 53q0 54 -108.5 147t-280.5 195q-42 102 -42 154q0 80 79 119q136 71 484 193l8 -7q-25 -81 -59 -166q-258 -84 -418 -161v-6q90 -19 211 -35z" />
    <glyph glyph-name="uni06AE.medi" unicode="&#x6ae;" horiz-adv-x="770" 
d="M203 671l-29 -80q94 -63 189.5 -144t147.5 -129t115.5 -83t124.5 -35h14l32 -200h-14q-48 0 -85 7.5t-62 16.5t-58 36t-51.5 45.5t-64.5 67.5t-77 81h-3v-10q0 -107 -60 -178q-63 -66 -281 -66h-14q-49 0 -70 41t-21 84q0 75 60 75h14q118 0 187 10.5t84 43.5
q-30 103 -337 350q-35 58 -35 141q0 54 22 86q20 25 52 43q139 80 537 209l9 -8q-23 -75 -59 -161q-294 -90 -463 -178v-5q78 -27 196 -60zM439 -201l84 107q78 -61 134 -124q-29 -55 -82 -102q-60 56 -136 119zM394 -421l84 107q73 -57 134 -124q-29 -55 -82 -102
q-44 41 -136 119zM230 -210l84 107q78 -62 133 -124q-30 -57 -81 -102q-58 53 -136 119z" />
    <glyph glyph-name="uni06AE.fina" unicode="&#x6ae;" horiz-adv-x="1111" 
d="M571 -211l84 107q77 -60 134 -124q-29 -55 -82 -102q-58 53 -136 119zM361 -220l84 107q78 -61 134 -124q-29 -55 -82 -102q-60 56 -136 119zM526 -431l84 107q78 -62 133 -124q-30 -57 -81 -102q-58 53 -136 119zM781 1039l13 -8q49 -188 96 -494l24 -148
q30 -189 178 -189h14l32 -200h-14q-192 0 -258 173h-4q-38 -58 -143 -111q-129 -62 -257 -62q-181 0 -288 118.5t-107 302.5q0 78 22 162l62 -19q-3 -30 -3 -59q0 -144 81.5 -223.5t211.5 -79.5q103 0 204.5 36t164.5 95q-40 247 -126 590q59 78 97 116zM513 716l-10 -2
q-15 13 -31 13q-36 0 -78 -57v-2h73q53 0 81.5 -26.5t28.5 -77.5q0 -16 -3 -39q-14 -102 -140 -102q-26 0 -52 5q-57 27 -98 52l3 16q221 15 221 54q0 12 -36.5 14.5t-120.5 2.5h-15q-10 37 -10 72q0 82 53 137q53 53 86 53q52 0 52 -75q0 -12 -4 -38z" />
    <glyph glyph-name="uni06B0.init" unicode="&#x6b0;" horiz-adv-x="648" 
d="M428 847l-1 -1q39 -37 39 -88q0 -50 -35 -85t-85 -35t-85 35t-35 85q0 14 2 22q-96 -37 -216 -90l1 -3q84 -15 197 -24l-20 -67q221 -139 244 -284q5 -29 5 -65q0 -88 -43 -155q-71 -92 -352 -92h-17q-49 0 -70 41t-21 84q0 75 60 75h32q95 0 168 10t109 25.5t33 33.5
q-6 41 -122.5 131.5t-254.5 153.5q-4 11 -12.5 31.5t-11.5 29t-8.5 23.5t-7.5 24.5t-3.5 22t-1.5 25.5q0 91 109 139q208 91 464 173l4 -5q-25 -80 -65 -170zM436 1153l-27 -80q-304 -100 -479 -197l-6 5q4 39 21 85q210 105 488 190zM281 758q0 -27 19 -46t46 -19t46 19
t19 46t-19 46t-46 19t-46 -19t-19 -46z" />
    <glyph glyph-name="uni06B0.medi" unicode="&#x6b0;" horiz-adv-x="770" 
d="M765 200l32 -200h-14q-60 0 -104.5 10.5t-82 37t-62 50.5t-69.5 72t-80 81h-4q-3 -65 -20 -110.5t-42.5 -73t-69.5 -42.5t-91 -20t-117 -5h-14q-49 0 -70 41t-21 84q0 75 60 75h14q119 0 194.5 16t75.5 41q0 33 -92.5 117.5t-234.5 173.5q-35 105 -35 150q0 55 32 85
q150 104 584 240l7 -6q-25 -80 -57 -160q-8 -3 -25 -8t-26 -8q44 -36 44 -92q0 -49 -35.5 -84.5t-84.5 -35.5t-84.5 35.5t-35.5 84.5q0 17 2 25q-103 -38 -220 -94v-4q76 -22 201 -47l-26 -77q151 -97 372 -279q46 -38 87.5 -55.5t97.5 -17.5h14zM469 1147l-35 -80
q-303 -98 -493 -198l-6 5q3 35 14 80q203 103 514 199zM292 749q0 -27 19 -46t46 -19t46 19t19 46t-19 46t-46 19t-46 -19t-19 -46z" />
    <glyph glyph-name="uni06B0.fina" unicode="&#x6b0;" horiz-adv-x="1413" 
d="M518 192q114 0 226 22t173 62q-24 44 -110 119t-212 153q-35 105 -35 150q0 55 32 85q152 105 585 240l7 -6q-25 -80 -57 -160q-10 -3 -27.5 -8.5t-22.5 -7.5q43 -37 43 -92q0 -49 -35 -84.5t-85 -35.5t-85 35.5t-35 84.5q0 17 2 25q-107 -39 -221 -94v-4q78 -22 202 -47
l-26 -77q151 -97 372 -279q46 -38 87.5 -55.5t97.5 -17.5h14l32 -200h-14q-60 0 -104.5 10.5t-82.5 37t-62.5 50.5t-69.5 72t-80 81h-6q-5 -82 -41 -146q-51 -50 -180 -84t-271 -34q-221 0 -339.5 102.5t-118.5 306.5q0 60 12 132l57 -15v-38q0 -283 378 -283zM1112 1147
l-35 -80q-302 -98 -494 -198l-6 5q3 35 14 80q205 103 515 199zM935 749q0 -27 19 -46t46 -19t46 19t19 46t-19 46t-46 19t-46 -19t-19 -46z" />
    <glyph glyph-name="uni06B2.init" unicode="&#x6b2;" horiz-adv-x="648" 
d="M436 1153l-27 -80q-304 -100 -479 -197l-6 5q4 39 21 85q210 105 488 190zM290 -271l84 107q78 -61 134 -124q-30 -58 -82 -102q-60 56 -136 119zM81 -280l84 107q77 -60 134 -124q-29 -55 -82 -102q-58 53 -136 119zM489 1022l4 -5q-25 -80 -65 -170q-198 -58 -416 -157
l1 -3q89 -15 211 -25l-23 -74q210 -132 233 -276q5 -29 5 -65q0 -88 -43 -155q-71 -92 -352 -92h-17q-49 0 -70 41t-21 84q0 75 60 75h32q95 0 168 10t109 25.5t33 33.5q-6 41 -122.5 131.5t-254.5 153.5q-4 11 -12.5 31.5t-11.5 29t-8.5 23.5t-7.5 24.5t-3.5 22t-1.5 25.5
q0 91 109 139q208 91 464 173z" />
    <glyph glyph-name="uni06B2.medi" unicode="&#x6b2;" horiz-adv-x="770" 
d="M469 1147l-35 -80q-303 -98 -493 -198l-6 5q3 35 14 80q203 103 514 199zM400 -271l84 107q78 -61 134 -124q-30 -58 -82 -102q-60 56 -136 119zM191 -280l84 107q77 -60 134 -124q-29 -55 -82 -102q-58 53 -136 119zM765 200l32 -200h-14q-60 0 -104.5 10.5t-82 37
t-62 50.5t-69.5 72t-80 81h-4q-3 -65 -20 -110.5t-42.5 -73t-69.5 -42.5t-91 -20t-117 -5h-14q-49 0 -70 41t-21 84q0 75 60 75h14q119 0 194.5 16t75.5 41q0 33 -92.5 117.5t-234.5 173.5q-35 105 -35 150q0 55 32 85q150 104 584 240l7 -6q-25 -80 -57 -160
q-257 -77 -465 -177v-4q76 -22 201 -47l-26 -77q151 -97 372 -279q46 -38 87.5 -55.5t97.5 -17.5h14z" />
    <glyph glyph-name="uni06B2.fina" unicode="&#x6b2;" horiz-adv-x="1413" 
d="M518 192q114 0 226 22t173 62q-24 44 -110 119t-212 153q-35 105 -35 150q0 55 32 85q152 105 585 240l7 -6q-25 -80 -57 -160q-256 -77 -466 -177v-4q78 -22 202 -47l-26 -77q151 -97 372 -279q46 -38 87.5 -55.5t97.5 -17.5h14l32 -200h-14q-60 0 -104.5 10.5t-82.5 37
t-62.5 50.5t-69.5 72t-80 81h-6q-5 -82 -41 -146q-51 -50 -180 -84t-271 -34q-221 0 -339.5 102.5t-118.5 306.5q0 60 12 132l57 -15v-38q0 -283 378 -283zM1112 1147l-35 -80q-302 -98 -494 -198l-6 5q3 35 14 80q205 103 515 199zM622 -290l84 125q88 -66 161 -129
q-29 -55 -79 -125q-87 73 -166 129zM382 -303l84 125q88 -66 161 -129q-29 -55 -79 -125q-87 73 -166 129z" />
    <glyph glyph-name="uni06B4.init" unicode="&#x6b4;" horiz-adv-x="648" 
d="M436 1153l-27 -80q-304 -100 -479 -197l-6 5q4 39 21 85q210 105 488 190zM-13 1210l74 99q69 -51 124 -107q-20 -46 -71 -98q-62 56 -127 106zM-210 1197l75 99q69 -51 124 -107q-20 -46 -71 -98q-64 58 -128 106zM-166 1393l75 99q71 -52 123 -107q-19 -45 -70 -98
q-64 58 -128 106zM489 1022l4 -5q-25 -80 -65 -170q-198 -58 -416 -157l1 -3q89 -15 211 -25l-23 -74q210 -132 233 -276q5 -29 5 -65q0 -88 -43 -155q-71 -92 -352 -92h-17q-49 0 -70 41t-21 84q0 75 60 75h32q95 0 168 10t109 25.5t33 33.5q-6 41 -122.5 131.5
t-254.5 153.5q-4 11 -12.5 31.5t-11.5 29t-8.5 23.5t-7.5 24.5t-3.5 22t-1.5 25.5q0 91 109 139q208 91 464 173z" />
    <glyph glyph-name="uni06B4.medi" unicode="&#x6b4;" horiz-adv-x="770" 
d="M469 1147l-35 -80q-303 -98 -493 -198l-6 5q3 35 14 80q203 103 514 199zM-13 1210l74 99q69 -51 124 -107q-20 -46 -71 -98q-62 56 -127 106zM-210 1197l75 99q69 -51 124 -107q-20 -46 -71 -98q-64 58 -128 106zM-166 1393l75 99q71 -52 123 -107q-19 -45 -70 -98
q-64 58 -128 106zM765 200l32 -200h-14q-60 0 -104.5 10.5t-82 37t-62 50.5t-69.5 72t-80 81h-4q-3 -65 -20 -110.5t-42.5 -73t-69.5 -42.5t-91 -20t-117 -5h-14q-49 0 -70 41t-21 84q0 75 60 75h14q119 0 194.5 16t75.5 41q0 33 -92.5 117.5t-234.5 173.5q-35 105 -35 150
q0 55 32 85q150 104 584 240l7 -6q-25 -80 -57 -160q-257 -77 -465 -177v-4q76 -22 201 -47l-26 -77q151 -97 372 -279q46 -38 87.5 -55.5t97.5 -17.5h14z" />
    <glyph glyph-name="uni06B4.fina" unicode="&#x6b4;" horiz-adv-x="1413" 
d="M518 192q114 0 226 22t173 62q-24 44 -110 119t-212 153q-35 105 -35 150q0 55 32 85q152 105 585 240l7 -6q-25 -80 -57 -160q-256 -77 -466 -177v-4q78 -22 202 -47l-26 -77q151 -97 372 -279q46 -38 87.5 -55.5t97.5 -17.5h14l32 -200h-14q-60 0 -104.5 10.5t-82.5 37
t-62.5 50.5t-69.5 72t-80 81h-6q-5 -82 -41 -146q-51 -50 -180 -84t-271 -34q-221 0 -339.5 102.5t-118.5 306.5q0 60 12 132l57 -15v-38q0 -283 378 -283zM1112 1147l-35 -80q-302 -98 -494 -198l-6 5q3 35 14 80q205 103 515 199zM463 1393l75 99q69 -51 124 -107
q-20 -46 -71 -98q-64 58 -128 106zM419 1197l75 99q69 -51 124 -107q-20 -46 -71 -98q-64 58 -128 106zM616 1210l75 99q69 -51 124 -107q-20 -46 -71 -98q-64 58 -128 106z" />
    <glyph glyph-name="uni06B5.init" unicode="&#x6b5;" horiz-adv-x="407" 
d="M134 1389h6q25 -47 39 -84q-96 -114 -119 -210l-26 -11q-35 70 -202 200l19 100h14q141 -122 167 -169h3q7 64 99 174zM109 1029l13 -8q7 -47 43.5 -109.5t108.5 -157.5l-78 -68q26 -125 48 -269q9 -50 9 -106q0 -58 -11 -115q-12 -63 -33 -106q-51 -90 -168 -90h-14
q-49 0 -70 41t-21 84q0 75 60 75h14q100 0 134 41q10 11 10 32q0 48 -29.5 186t-61.5 266.5t-33 135.5q-3 18 -3 33q0 36 15 60q28 43 67 75z" />
    <glyph glyph-name="uni06B5.medi" unicode="&#x6b5;" horiz-adv-x="430" 
d="M134 1389h6q25 -47 39 -84q-96 -114 -119 -210l-26 -11q-35 70 -202 200l19 100h14q141 -122 167 -169h3q7 64 99 174zM425 200l32 -200h-14q-152 0 -227 112h-4q-51 -112 -171 -112h-14q-49 0 -70 41t-21 84q0 75 60 75h22q127 0 127 103q0 47 -43 259t-82 364
q56 68 95 104l14 -6q41 -150 88 -448q8 -46 15 -94.5t13 -90t8 -55.5q12 -74 44 -105t108 -31h20z" />
    <glyph glyph-name="uni06B5.fina" unicode="&#x6b5;" horiz-adv-x="914" 
d="M618 1359h6q20 -36 40 -84q-96 -112 -119 -210l-26 -11q-39 72 -203 200l19 100h14q139 -121 168 -169h3q7 64 98 174zM909 200l32 -200h-14q-99 0 -165 69h-4q1 -9 1 -26q0 -59 -21 -125q-46 -78 -124 -121t-168 -43q-75 0 -136 25.5t-100 66t-65 95.5t-37 110.5
t-11 113.5q0 107 38 207l58 -24q-19 -82 -19 -131q0 -111 73 -186t182 -75q63 0 131.5 32.5t108.5 90.5q-4 37 -18 133q-30 188 -137 675q43 62 89 106l17 -8q55 -270 109 -605q16 -96 58 -138q46 -42 108 -42h14z" />
    <glyph glyph-name="uni06B6.init" unicode="&#x6b6;" horiz-adv-x="407" 
d="M-107 1209l72 129q79 -49 160 -117q-21 -72 -70 -123q-56 44 -162 111zM109 1029l13 -8q7 -47 43.5 -109.5t108.5 -157.5l-78 -68q26 -125 48 -269q9 -50 9 -106q0 -58 -11 -115q-12 -63 -33 -106q-51 -90 -168 -90h-14q-49 0 -70 41t-21 84q0 75 60 75h14q100 0 134 41
q10 11 10 32q0 48 -29.5 186t-61.5 266.5t-33 135.5q-3 18 -3 33q0 36 15 60q28 43 67 75z" />
    <glyph glyph-name="uni06B6.medi" unicode="&#x6b6;" horiz-adv-x="430" 
d="M-107 1209l72 129q79 -49 160 -117q-21 -72 -70 -123q-56 44 -162 111zM425 200l32 -200h-14q-152 0 -227 112h-4q-51 -112 -171 -112h-14q-49 0 -70 41t-21 84q0 75 60 75h22q127 0 127 103q0 47 -43 259t-82 364q56 68 95 104l14 -6q41 -150 88 -448q8 -46 15 -94.5
t13 -90t8 -55.5q12 -74 44 -105t108 -31h20z" />
    <glyph glyph-name="uni06B6.fina" unicode="&#x6b6;" horiz-adv-x="914" 
d="M377 1179l71 129q83 -51 162 -117q-21 -73 -71 -123q-56 44 -162 111zM909 200l32 -200h-14q-99 0 -165 69h-4q1 -9 1 -26q0 -59 -21 -125q-46 -78 -124 -121t-168 -43q-75 0 -136 25.5t-100 66t-65 95.5t-37 110.5t-11 113.5q0 107 38 207l58 -24q-19 -82 -19 -131
q0 -111 73 -186t182 -75q63 0 131.5 32.5t108.5 90.5q-4 37 -18 133q-30 188 -137 675q43 62 89 106l17 -8q55 -270 109 -605q16 -96 58 -138q46 -42 108 -42h14z" />
    <glyph glyph-name="uni06B7.init" unicode="&#x6b7;" horiz-adv-x="407" 
d="M32 1170l76 99q66 -48 123 -107q-20 -46 -71 -98q-71 64 -128 106zM-164 1157l76 99q66 -48 123 -107q-20 -46 -71 -98q-71 64 -128 106zM-120 1353l76 99q62 -46 122 -107q-20 -44 -70 -98q-71 64 -128 106zM109 1029l13 -8q7 -47 43.5 -109.5t108.5 -157.5l-78 -68
q26 -125 48 -269q9 -50 9 -106q0 -58 -11 -115q-12 -63 -33 -106q-51 -90 -168 -90h-14q-49 0 -70 41t-21 84q0 75 60 75h14q100 0 134 41q10 11 10 32q0 48 -29.5 186t-61.5 266.5t-33 135.5q-3 18 -3 33q0 36 15 60q28 43 67 75z" />
    <glyph glyph-name="uni06B7.medi" unicode="&#x6b7;" horiz-adv-x="430" 
d="M32 1170l76 99q66 -48 123 -107q-20 -46 -71 -98q-71 64 -128 106zM-164 1157l76 99q66 -48 123 -107q-20 -46 -71 -98q-71 64 -128 106zM-120 1353l76 99q62 -46 122 -107q-20 -44 -70 -98q-71 64 -128 106zM425 200l32 -200h-14q-152 0 -227 112h-4q-51 -112 -171 -112
h-14q-49 0 -70 41t-21 84q0 75 60 75h22q127 0 127 103q0 47 -43 259t-82 364q56 68 95 104l14 -6q41 -150 88 -448q8 -46 15 -94.5t13 -90t8 -55.5q12 -74 44 -105t108 -31h20z" />
    <glyph glyph-name="uni06B7.fina" unicode="&#x6b7;" horiz-adv-x="914" 
d="M525 1150l76 99q64 -47 124 -107q-22 -46 -72 -98q-71 64 -128 106zM328 1137l76 99q69 -51 124 -107q-22 -46 -72 -98q-62 57 -128 106zM372 1333l76 99q64 -47 124 -107q-22 -46 -72 -98q-71 64 -128 106zM909 200l32 -200h-14q-99 0 -165 69h-4q1 -9 1 -26
q0 -59 -21 -125q-46 -78 -124 -121t-168 -43q-75 0 -136 25.5t-100 66t-65 95.5t-37 110.5t-11 113.5q0 107 38 207l58 -24q-19 -82 -19 -131q0 -111 73 -186t182 -75q63 0 131.5 32.5t108.5 90.5q-4 37 -18 133q-30 188 -137 675q43 62 89 106l17 -8q55 -270 109 -605
q16 -96 58 -138q46 -42 108 -42h14z" />
    <glyph glyph-name="uni06B8.init" unicode="&#x6b8;" horiz-adv-x="463" 
d="M280 -271l84 107q78 -61 134 -124q-30 -58 -82 -102q-60 56 -136 119zM71 -280l84 107q77 -60 134 -124q-29 -55 -82 -102q-58 53 -136 119zM235 -491l84 107q73 -57 134 -124q-29 -55 -82 -102q-44 41 -136 119zM109 1029l13 -8q7 -47 43.5 -109.5t108.5 -157.5l-78 -68
q26 -125 48 -269q9 -50 9 -106q0 -58 -11 -115q-12 -63 -33 -106q-51 -90 -168 -90h-14q-49 0 -70 41t-21 84q0 75 60 75h14q100 0 134 41q10 11 10 32q0 48 -29.5 186t-61.5 266.5t-33 135.5q-3 18 -3 33q0 36 15 60q28 43 67 75z" />
    <glyph glyph-name="uni06B8.medi" unicode="&#x6b8;" horiz-adv-x="440" 
d="M287 -285l84 107q78 -62 133 -124q-30 -58 -82 -102q-54 50 -135 119zM77 -294l84 107q73 -57 134 -124q-29 -55 -82 -102q-58 53 -136 119zM241 -505l85 107q78 -62 133 -124q-30 -58 -82 -102q-60 56 -136 119zM435 200l32 -200h-24q-152 0 -227 112h-4
q-51 -112 -171 -112h-14q-49 0 -70 41t-21 84q0 75 60 75h22q127 0 127 103q0 47 -43 259t-82 364q56 68 95 104l14 -6q41 -150 88 -448q8 -46 15 -94.5t13 -90t8 -55.5q12 -74 44 -105t108 -31h30z" />
    <glyph glyph-name="uni06B8.fina" unicode="&#x6b8;" horiz-adv-x="914" 
d="M494 -405l84 107q78 -62 133 -124q-30 -58 -82 -102q-54 50 -135 119zM284 -414l84 107q73 -57 134 -124q-29 -55 -82 -102q-58 53 -136 119zM448 -625l85 107q78 -62 133 -124q-30 -58 -82 -102q-60 56 -136 119zM909 200l32 -200h-14q-99 0 -165 69h-4q1 -9 1 -26
q0 -59 -21 -125q-46 -78 -124 -121t-168 -43q-75 0 -136 25.5t-100 66t-65 95.5t-37 110.5t-11 113.5q0 107 38 207l58 -24q-19 -82 -19 -131q0 -111 73 -186t182 -75q63 0 131.5 32.5t108.5 90.5q-4 37 -18 133q-30 188 -137 675q43 62 89 106l17 -8q55 -270 109 -605
q16 -96 58 -138q46 -42 108 -42h14z" />
    <glyph glyph-name="uni06B9.init" unicode="&#x6b9;" horiz-adv-x="435" 
d="M-39 779l71 129q89 -55 161 -117q-21 -72 -70 -123q-63 49 -162 111zM171 -298l71 129q83 -51 162 -117q-21 -73 -71 -123q-56 44 -162 111zM176 599l10 -2q45 -67 59 -89.5t39 -65.5t32 -66t13.5 -56t6.5 -70q0 -59 -17 -114q-31 -78 -82 -102q-70 -34 -196 -34h-14
q-49 0 -70 41t-21 84q0 75 60 75h22q54 0 104.5 6.5t78.5 15t28 16.5q0 30 -131 205q38 89 78 156z" />
    <glyph glyph-name="uni06B9.medi" unicode="&#x6b9;" horiz-adv-x="468" 
d="M29 631l71 129q83 -51 162 -117q-23 -75 -71 -123q-63 49 -162 111zM179 -300l72 129q83 -52 161 -117q-21 -72 -70 -123q-59 45 -163 111zM463 200l32 -200h-13q-78 0 -139 23t-108 86h-3q-66 -109 -191 -109h-14q-49 0 -70 41t-21 84q0 75 60 75h14q80 0 129 34
q22 15 33 38.5t17 58.5t10 47q40 32 71 52l8 -6q-5 -48 -5 -70q0 -86 66 -125q50 -29 112 -29h12z" />
    <glyph glyph-name="uni06B9.fina" unicode="&#x6b9;" horiz-adv-x="965" 
d="M241 653l78 144q99 -57 184 -129q-31 -80 -79 -142q-79 62 -183 127zM449 -597l78 144q99 -57 184 -129q-31 -80 -79 -142q-79 62 -183 127zM643 480h13q29 -42 74.5 -119t68.5 -108q19 -24 64 -38.5t83 -14.5h14l32 -200h-14q-91 0 -148 36h-3q1 -13 1 -37
q0 -95 -31 -177q-114 -158 -322 -158q-155 0 -260 114t-105 300q0 104 41 212l58 -27q-23 -66 -23 -126q0 -127 79 -200t198 -73q98 0 186 55t96 107q-28 113 -173 307q32 80 71 147z" />
    <glyph glyph-name="uni06BC.init" unicode="&#x6bc;" horiz-adv-x="436" 
d="M-39 779l71 129q89 -55 161 -117q-21 -72 -70 -123q-63 49 -162 111zM297 91q47 -14 72 -49t25 -76q0 -54 -38 -92t-92 -38t-92 38t-38 92q0 27 6 40q-44 -6 -99 -6h-14q-49 0 -70 41t-21 84q0 75 60 75h22q54 0 104.5 6.5t78.5 15t28 16.5q0 30 -131 205q38 89 78 156
l10 -2q45 -67 59 -89.5t39 -65.5t32 -66t13.5 -56t6.5 -70q0 -59 -17 -114q-10 -25 -22 -45zM194 -34q0 -29 20.5 -49.5t49.5 -20.5t49.5 20.5t20.5 49.5t-21 50t-50 21t-49 -21t-20 -50z" />
    <glyph glyph-name="uni06BC.medi" unicode="&#x6bc;" horiz-adv-x="581" 
d="M141 631l71 129q83 -51 162 -117q-23 -75 -71 -123q-63 49 -162 111zM576 200l32 -200h-13q-78 0 -139 23t-108 86h-3q-22 -36 -51 -61q61 -39 61 -110q0 -54 -38 -92t-92 -38t-92 38t-38 92q0 33 14 62h-82q-49 0 -70 41t-21 84q0 75 60 75h127q80 0 129 34
q22 15 33 38.5t17 58.5t10 47q40 32 71 52l8 -6q-5 -48 -5 -70q0 -86 66 -125q50 -29 112 -29h12zM155 -62q0 -29 20.5 -49.5t49.5 -20.5t49.5 20.5t20.5 49.5t-20.5 49.5t-49.5 20.5t-49.5 -20.5t-20.5 -49.5z" />
    <glyph glyph-name="uni06BC.fina" unicode="&#x6bc;" horiz-adv-x="965" 
d="M643 480h13q29 -42 74.5 -119t68.5 -108q19 -24 64 -38.5t83 -14.5h14l32 -200h-14q-91 0 -148 36h-3q1 -13 1 -37q0 -95 -31 -177q-37 -51 -81 -83q35 -20 54.5 -55t19.5 -74q0 -62 -44 -106t-106 -44t-106 44t-44 106q0 27 10 55q-8 -1 -25 -1q-155 0 -260 114
t-105 300q0 104 41 212l58 -27q-23 -66 -23 -126q0 -127 79 -200t198 -73q98 0 186 55t96 107q-28 113 -173 307q32 80 71 147zM253 643l78 144q103 -60 183 -129q-28 -74 -78 -142q-86 66 -183 127zM560 -390q0 -33 23.5 -56.5t56.5 -23.5t56.5 23.5t23.5 56.5t-23.5 56.5
t-56.5 23.5t-56.5 -23.5t-23.5 -56.5z" />
    <glyph glyph-name="uni06BD.init" unicode="&#x6bd;" horiz-adv-x="473" 
d="M270 -271l84 107q78 -61 134 -124q-30 -58 -82 -102q-60 56 -136 119zM61 -280l84 107q77 -60 134 -124q-29 -55 -82 -102q-58 53 -136 119zM225 -491l84 107q73 -57 134 -124q-29 -55 -82 -102q-44 41 -136 119zM176 599l10 -2q45 -67 59 -89.5t39 -65.5t32 -66
t13.5 -56t6.5 -70q0 -59 -17 -114q-31 -78 -82 -102q-70 -34 -196 -34h-14q-49 0 -70 41t-21 84q0 75 60 75h22q54 0 104.5 6.5t78.5 15t28 16.5q0 30 -131 205q38 89 78 156z" />
    <glyph glyph-name="uni06BD.medi" unicode="&#x6bd;" horiz-adv-x="468" 
d="M287 -285l84 107q78 -62 133 -124q-30 -58 -82 -102q-54 50 -135 119zM77 -294l84 107q73 -57 134 -124q-29 -55 -82 -102q-58 53 -136 119zM241 -505l85 107q78 -62 133 -124q-30 -58 -82 -102q-60 56 -136 119zM463 200l32 -200h-13q-78 0 -139 23t-108 86h-3
q-66 -109 -191 -109h-14q-49 0 -70 41t-21 84q0 75 60 75h14q80 0 129 34q22 15 33 38.5t17 58.5t10 47q40 32 71 52l8 -6q-5 -48 -5 -70q0 -86 66 -125q50 -29 112 -29h12z" />
    <glyph glyph-name="uni06BD.fina" unicode="&#x6bd;" horiz-adv-x="965" 
d="M361 675l84 107q78 -62 133 -124q-30 -58 -82 -102q-54 50 -135 119zM151 666l84 107q73 -57 134 -124q-29 -55 -82 -102q-58 53 -136 119zM201 882l84 107q78 -62 133 -124q-27 -55 -81 -102q-58 53 -136 119zM643 480h13q29 -42 74.5 -119t68.5 -108q19 -24 64 -38.5
t83 -14.5h14l32 -200h-14q-91 0 -148 36h-3q1 -13 1 -37q0 -95 -31 -177q-114 -158 -322 -158q-155 0 -260 114t-105 300q0 104 41 212l58 -27q-23 -66 -23 -126q0 -127 79 -200t198 -73q98 0 186 55t96 107q-28 113 -173 307q32 80 71 147z" />
    <glyph glyph-name="uni06BF.init" unicode="&#x6bf;" horiz-adv-x="927" 
d="M494 331l-1 5q-165 53 -262 53q-56 0 -80 -18l-30 -105h-20l-84 127q4 89 55.5 134t133.5 45q95 0 288 -69q134 -47 254 -47h74l4 -8q-25 -69 -61 -139q-56 0 -92.5 -12.5t-69.5 -47.5q-64 -67 -112.5 -107.5t-114.5 -76t-147 -50.5t-188 -15h-14q-49 0 -70 41t-21 84
q0 75 60 75h14q162 0 270.5 28.5t213.5 102.5zM439 -201l84 107q78 -61 134 -124q-29 -55 -82 -102q-60 56 -136 119zM230 -210l84 107q78 -62 133 -124q-30 -57 -81 -102q-58 53 -136 119zM394 -421l84 107q73 -57 134 -124q-29 -55 -82 -102q-44 41 -136 119zM142 792
l72 129q89 -55 161 -117q-21 -72 -70 -123q-59 45 -163 111z" />
    <glyph glyph-name="uni06BF.medi" unicode="&#x6bf;" horiz-adv-x="902" 
d="M494 331l-1 5q-165 53 -262 53q-56 0 -80 -18l-30 -105h-20l-84 127q4 89 55.5 134t133.5 45q95 0 288 -69q134 -47 254 -47h74l4 -8q-25 -69 -61 -139q-56 0 -93 -12.5t-70 -47.5q-64 -67 -112.5 -107.5t-114 -76t-146.5 -50.5t-188 -15h-14q-49 0 -70 41t-21 84
q0 75 60 75h14q162 0 270.5 28.5t213.5 102.5zM642 241l48 44l6 -5q7 -27 24 -44t45 -24.5t53.5 -9.5t64.5 -2h14l32 -200h-14q-138 0 -190 41q-61 53 -75 141q-8 50 -8 59zM439 -201l84 107q78 -61 134 -124q-29 -55 -82 -102q-60 56 -136 119zM230 -210l84 107
q78 -62 133 -124q-30 -57 -81 -102q-58 53 -136 119zM394 -421l84 107q73 -57 134 -124q-29 -55 -82 -102q-44 41 -136 119zM142 792l72 129q89 -55 161 -117q-21 -72 -70 -123q-59 45 -163 111z" />
    <glyph glyph-name="uni06BF.fina" unicode="&#x6bf;" horiz-adv-x="973" 
d="M710 231l52 42q9 -25 28 -40.5t48 -22t52.5 -8.5t60.5 -2h17l32 -200h-14q-46 0 -74.5 2.5t-65 15t-59.5 36.5t-44 68.5t-33 108.5zM554 20l76 99q64 -47 124 -107q-22 -46 -72 -98q-71 64 -128 106zM357 7l76 99q64 -47 124 -107q-22 -46 -72 -98q-71 64 -128 106z
M507 -183l76 99q69 -51 124 -107q-22 -46 -72 -98q-62 57 -128 106zM200 803l79 144q103 -60 183 -129q-28 -75 -79 -142q-79 62 -183 127zM457 353l-1 3q-133 37 -195 37q-54 0 -82 -17l-29 -137h-19l-87 137q10 200 187 200q73 0 164.5 -30t182 -60t161.5 -30h114l9 -14
l-51 -131q-252 -50 -407 -147.5t-155 -209.5q0 -84 71 -153t194.5 -108t273.5 -39q134 0 246 27l15 -24q-104 -110 -183 -166q-43 -31 -173 -31q-248 0 -395 131t-147 350q0 141 86 250.5t220 161.5z" />
    <glyph glyph-name="uni06C2.fina" unicode="&#x6c2;" horiz-adv-x="818" 
d="M112 70l-19 15q31 133 63 216q194 147 306 147q77 0 113 -84q69 -164 219 -164h19l32 -200h-14q-216 0 -303 170q-14 25 -21.5 36.5t-23.5 21t-37 9.5q-66 0 -155.5 -44.5t-178.5 -122.5zM413 758h-13l-32 30q-14 14 -35 14q-26 0 -44 -10.5t-18 -22.5q0 -21 39.5 -38
t99.5 -17q48 0 100 3l6 -9q-10 -38 -29 -81q-167 -22 -237 -72l-14 12q12 39 27 75q-75 32 -75 92q0 51 47 101q53 53 115 53q35 0 58 -18.5t23 -48.5q0 -29 -18 -63z" />
    <glyph glyph-name="uni06C3.fina" unicode="&#x6c3;" horiz-adv-x="818" 
d="M112 70l-19 15q31 133 63 216q194 147 306 147q77 0 113 -84q69 -164 219 -164h19l32 -200h-14q-216 0 -303 170q-14 25 -21.5 36.5t-23.5 21t-37 9.5q-66 0 -155.5 -44.5t-178.5 -122.5zM341 697l84 107q73 -57 134 -124q-29 -55 -82 -102q-58 53 -136 119zM132 688
l84 107q78 -62 133 -124q-30 -58 -82 -102q-54 50 -135 119z" />
    <glyph glyph-name="uni06C4.fina" unicode="&#x6c4;" horiz-adv-x="696" 
d="M214 -249q16 0 24 1q-39 38 -39 89q0 49 35.5 84.5t84.5 35.5q47 0 81.5 -32.5t37.5 -83.5q74 66 103 155h-28q-87 0 -153.5 18.5t-105 47t-62.5 69t-32 77.5t-8 79q0 79 49 149q61 89 146 89q161 0 276 -329h68l32 -200h-75q-7 -95 -39 -180t-91.5 -144.5t-133.5 -59.5
q-132 0 -311 110l15 53q68 -28 126 -28zM522 200q-88 166 -197 166q-41 0 -65.5 -22.5t-24.5 -45.5q0 -45 73.5 -73t174.5 -28q21 0 39 3zM254 -159q0 -27 19 -46t46 -19t46 19t19 46t-19 46t-46 19t-46 -19t-19 -46z" />
    <glyph glyph-name="uni06CA.fina" unicode="&#x6ca;" horiz-adv-x="696" 
d="M254 767l84 107q73 -57 134 -124q-29 -55 -82 -102q-58 53 -136 119zM44 758l84 107q78 -61 134 -124q-30 -58 -82 -102q-60 56 -136 119zM623 200h68l32 -200h-75q-7 -93 -40 -174.5t-92.5 -136t-134.5 -54.5q-131 0 -311 111l14 53q70 -28 127 -28q114 0 234 102
q78 71 96 127h-28q-165 0 -263 70t-98 218q0 82 49 152q61 89 146 89q161 0 276 -329zM522 200q-88 166 -197 166q-41 0 -65.5 -22.5t-24.5 -45.5q0 -45 73.5 -73t174.5 -28q21 0 39 3z" />
    <glyph glyph-name="uni06CD.fina" unicode="&#x6cd;" horiz-adv-x="1267" 
d="M898 200h364l32 -200h-54q12 -38 12 -69q0 -49 -30 -125q-87 -89 -204.5 -136t-228.5 -47q-109 0 -193.5 39t-135.5 106t-76.5 149t-25.5 175q0 41 4 76l-5 3q-141 -67 -252 -134l-11 7l22 201q144 77 328 156l20 -20q-33 -129 -33 -203q0 -152 100.5 -250t257.5 -98
q205 0 359 120q-60 58 -301 68l-17 18z" />
    <glyph glyph-name="uni06CE.init" unicode="&#x6ce;" horiz-adv-x="473" 
d="M270 -271l84 107q78 -61 134 -124q-30 -58 -82 -102q-60 56 -136 119zM61 -280l84 107q77 -60 134 -124q-29 -55 -82 -102q-58 53 -136 119zM213 979h6q25 -43 40 -84q-96 -114 -119 -210l-26 -11q-40 74 -202 200l19 100h14q139 -122 167 -169h3q7 64 98 174zM176 599
l10 -2q45 -67 59 -89.5t39 -65.5t32 -66t13.5 -56t6.5 -70q0 -59 -17 -114q-31 -78 -82 -102q-70 -34 -196 -34h-14q-49 0 -70 41t-21 84q0 75 60 75h22q54 0 104.5 6.5t78.5 15t28 16.5q0 30 -131 205q38 89 78 156z" />
    <glyph glyph-name="uni06CE.medi" unicode="&#x6ce;" horiz-adv-x="468" 
d="M287 -285l84 107q78 -62 133 -124q-30 -58 -82 -102q-54 50 -135 119zM77 -294l84 107q73 -57 134 -124q-29 -55 -82 -102q-58 53 -136 119zM276 869h6q25 -47 39 -84q-96 -114 -119 -210l-26 -11q-18 34 -72 87.5t-130 112.5l20 100h14q138 -122 166 -169h3q9 65 99 174
zM463 200l32 -200h-13q-78 0 -139 23t-108 86h-3q-66 -109 -191 -109h-14q-49 0 -70 41t-21 84q0 75 60 75h14q80 0 129 34q22 15 33 38.5t17 58.5t10 47q40 32 71 52l8 -6q-5 -48 -5 -70q0 -86 66 -125q50 -29 112 -29h12z" />
    <glyph glyph-name="uni06CE.fina" unicode="&#x6ce;" horiz-adv-x="1025" 
d="M562 829h6q20 -36 40 -84q-98 -116 -119 -210l-26 -11q-39 72 -203 200l19 100h14q139 -121 168 -169h3q7 64 98 174zM656 200h364l32 -200h-54q12 -38 12 -69q0 -49 -30 -125q-87 -89 -204.5 -136t-228.5 -47q-197 0 -319 134t-122 343q0 133 57 293l61 -27
q-30 -108 -30 -183q0 -162 103 -257.5t250 -95.5q205 0 359 120q-60 58 -301 68l-17 18z" />
    <glyph glyph-name="uni06CF.fina" unicode="&#x6cf;" horiz-adv-x="696" 
d="M143 759l72 129q85 -52 161 -117q-21 -74 -70 -123q-59 45 -163 111zM623 200h68l32 -200h-75q-7 -93 -40 -174.5t-92.5 -136t-134.5 -54.5q-131 0 -311 111l14 53q70 -28 127 -28q114 0 234 102q78 71 96 127h-28q-165 0 -263 70t-98 218q0 82 49 152q61 89 146 89
q161 0 276 -329zM522 200q-88 166 -197 166q-41 0 -65.5 -22.5t-24.5 -45.5q0 -45 73.5 -73t174.5 -28q21 0 39 3z" />
    <glyph glyph-name="uni06D1.init" unicode="&#x6d1;" horiz-adv-x="473" 
d="M270 -271l84 107q78 -61 134 -124q-30 -58 -82 -102q-60 56 -136 119zM61 -280l84 107q77 -60 134 -124q-29 -55 -82 -102q-58 53 -136 119zM225 -491l84 107q73 -57 134 -124q-29 -55 -82 -102q-44 41 -136 119zM176 599l10 -2q45 -67 59 -89.5t39 -65.5t32 -66
t13.5 -56t6.5 -70q0 -59 -17 -114q-31 -78 -82 -102q-70 -34 -196 -34h-14q-49 0 -70 41t-21 84q0 75 60 75h22q54 0 104.5 6.5t78.5 15t28 16.5q0 30 -131 205q38 89 78 156z" />
    <glyph glyph-name="uni06D1.medi" unicode="&#x6d1;" horiz-adv-x="468" 
d="M287 -285l84 107q78 -62 133 -124q-30 -58 -82 -102q-54 50 -135 119zM77 -294l84 107q73 -57 134 -124q-29 -55 -82 -102q-58 53 -136 119zM241 -505l85 107q78 -62 133 -124q-30 -58 -82 -102q-60 56 -136 119zM463 200l32 -200h-13q-78 0 -139 23t-108 86h-3
q-66 -109 -191 -109h-14q-49 0 -70 41t-21 84q0 75 60 75h14q80 0 129 34q22 15 33 38.5t17 58.5t10 47q40 32 71 52l8 -6q-5 -48 -5 -70q0 -86 66 -125q50 -29 112 -29h12z" />
    <glyph glyph-name="uni06D1.fina" unicode="&#x6d1;" horiz-adv-x="1025" 
d="M595 -551l84 107q78 -62 133 -124q-30 -57 -81 -102q-58 53 -136 119zM385 -560l84 107q73 -57 134 -124q-29 -55 -82 -102q-44 41 -136 119zM550 -771l84 107q78 -62 133 -124q-30 -58 -82 -102q-54 50 -135 119zM656 200h364l32 -200h-54q12 -38 12 -69q0 -49 -30 -125
q-87 -89 -204.5 -136t-228.5 -47q-197 0 -319 134t-122 343q0 133 57 293l61 -27q-30 -108 -30 -183q0 -162 103 -257.5t250 -95.5q205 0 359 120q-60 58 -301 68l-17 18z" />
    <glyph glyph-name="uni06D5.fina" unicode="&#x6d5;" horiz-adv-x="702" 
d="M477 113q-93 -37 -178 -37q-97 0 -157.5 45t-60.5 138q0 56 20 113q24 81 87.5 145t162.5 125l-12 53q43 51 85 93l16 -5q26 -121 65 -370q12 -77 23.5 -117.5t34.5 -60.5q27 -20 51.5 -27.5t68.5 -7.5h14l32 -200h-14q-94 0 -145 23.5t-93 89.5zM427 282q-10 63 -36 204
q-94 -47 -149.5 -94t-55.5 -79q0 -52 110 -52q68 0 131 21z" />
    <glyph glyph-name="uni06EE.fina" unicode="&#x6ee;" horiz-adv-x="774" 
d="M207 841h-6q-25 47 -39 84q96 114 119 210l26 11q38 -72 203 -200l-19 -100h-14q-139 121 -168 169h-3q-7 -62 -99 -174zM769 200l32 -200h-14q-81 0 -141.5 38.5t-101.5 129.5h-3q-10 -71 -40 -97q-77 -71 -203 -71q-177 0 -214 233q-6 29 -12 85l64 6q27 -124 147 -124
q65 0 141 35q54 25 54 58q0 28 -43 131.5t-97 210.5q28 70 70 137l18 -5q68 -158 150 -401q55 -166 179 -166h14z" />
    <glyph glyph-name="uni06EF.fina" unicode="&#x6ef;" horiz-adv-x="656" 
d="M178 511h-6q-25 43 -40 84q96 114 119 210l26 11q39 -72 203 -200l-19 -100h-14q-139 121 -168 169h-3q-7 -64 -98 -174zM651 200l32 -200h-17q-45 0 -108 19q6 -41 6 -73q0 -76 -35 -153q-68 -145 -179 -145q-116 0 -281 99l14 50q52 -17 92 -17q120 0 204 92
q82 88 87 191q-77 82 -141 185q27 96 48 148h15q59 -98 115 -147t134 -49h14z" />
    <glyph glyph-name="uni06FA.init" unicode="&#x6fa;" horiz-adv-x="921" 
d="M461 658l77 113q78 -55 139 -118q-24 -56 -75 -107q-43 36 -141 112zM244 648l77 113q76 -55 139 -118q-24 -56 -75 -107q-56 47 -141 112zM294 868l77 113q81 -59 139 -118q-24 -56 -75 -107q-43 36 -141 112zM451 -298l71 129q83 -51 162 -117q-21 -73 -71 -123
q-56 44 -162 111zM751 512l15 -6q45 -133 59 -228q3 -17 3 -34q0 -71 -34 -141q-56 -100 -130 -100q-77 0 -153 85h-2q-70 -88 -151 -88q-93 0 -120 79h-3q-69 -79 -194 -79h-14q-49 0 -70 41t-21 84q0 75 60 75h14q132 0 178 54q11 12 21.5 28.5t23.5 41t17 31.5
q38 21 84 38l9 -11q-42 -84 -42 -125q0 -25 17.5 -42t37.5 -15q33 1 65 19q14 8 24.5 19t16 20t9.5 26.5t5 26t2.5 30.5t2.5 30q32 26 67 47l10 -7q-4 -23 -4 -49q0 -86 45 -126q38 -33 79 -33q39 0 46 19q-35 109 -64 173q58 78 91 117z" />
    <glyph glyph-name="uni06FA.medi" unicode="&#x6fa;" horiz-adv-x="1024" 
d="M504 638l78 113q78 -56 138 -118q-21 -53 -75 -107q-43 36 -141 112zM287 628l77 113q81 -59 139 -118q-24 -56 -75 -107q-43 36 -141 112zM337 848l77 113q81 -59 139 -118q-24 -56 -75 -107q-43 36 -141 112zM471 -298l71 129q83 -51 162 -117q-21 -73 -71 -123
q-56 44 -162 111zM1019 200l32 -200h-14q-180 0 -242 92h-4q-65 -92 -154 -92q-85 0 -125 85h-5q-37 -44 -70.5 -64.5t-80.5 -20.5q-83 0 -120 76q-82 -76 -195 -76h-14q-49 0 -70 41t-21 84q0 75 60 75h14q118 0 171 45q9 8 18.5 20.5t15.5 23t17 30.5t18 32q44 26 81 40
l12 -10q-41 -77 -41 -119q0 -30 17 -46t44 -16q54 0 89 39q14 17 22.5 37.5t15.5 48.5t13 44q34 22 75 40l9 -10q-25 -100 -25 -125q0 -33 17.5 -53.5t43.5 -20.5q61 0 93 51q10 16 15.5 38.5t10 55.5t7.5 47q49 36 73 49l8 -7q-10 -63 -10 -98q0 -70 44 -103t141 -33h14z
" />
    <glyph glyph-name="uni06FA.fina" unicode="&#x6fa;" horiz-adv-x="1475" 
d="M791 -5v-9q0 -127 -45 -198q-43 -66 -117 -104.5t-164 -38.5q-86 0 -156.5 36t-115.5 95.5t-69 134t-24 154.5q0 114 43 209l58 -27q-23 -78 -23 -132q0 -134 102 -210q76 -57 176 -57q102 0 185 63q71 54 72 98q-21 99 -149 255q28 85 69 165l11 -1q46 -72 97 -165
q20 -35 36.5 -49t48.5 -14q40 0 72 38q22 29 40 128q48 32 82 49l8 -7q-18 -108 -18 -135q0 -35 18 -53q19 -20 45 -20q59 0 93 52q6 10 11 21.5t9 30t5.5 27t5.5 35.5t5 33l68 46l11 -7q-9 -59 -9 -95q0 -39 13.5 -72t38.5 -43q52 -28 132 -28h14l32 -200h-14
q-84 0 -150.5 24t-91.5 72h-3q-72 -96 -153 -96q-83 0 -133 82h-4q-50 -87 -162 -87zM981 -298l71 129q83 -51 162 -117q-21 -73 -71 -123q-56 44 -162 111zM944 638l78 113q78 -56 138 -118q-21 -53 -75 -107q-43 36 -141 112zM777 848l77 113q81 -59 139 -118
q-24 -56 -75 -107q-43 36 -141 112zM727 628l77 113q81 -59 139 -118q-24 -56 -75 -107q-43 36 -141 112z" />
    <glyph glyph-name="uni06FB.init" unicode="&#x6fb;" horiz-adv-x="1060" 
d="M413 210q72 -10 141 -10q96 0 180.5 21.5t131.5 64.5q-25 64 -69.5 99t-96.5 35q-159 0 -287 -210zM399 812l71 129q83 -51 162 -117q-21 -73 -71 -123q-56 44 -162 111zM599 -288l72 129q89 -55 161 -117q-21 -72 -70 -123q-59 45 -163 111zM329 238q73 165 169 260.5
t203 95.5q93 0 164.5 -66.5t89.5 -174.5q3 -23 3 -48q0 -103 -45 -167q-50 -69 -147 -103.5t-258 -34.5q-197 0 -273 101h-5q-66 -101 -190 -101h-13q-49 0 -70 41t-21 84q0 75 60 75h14q113 0 143 60q9 17 29 119q2 1 27.5 22.5t39.5 32.5l8 -5q-3 -30 -3 -55
q0 -47 19 -84.5t56 -51.5z" />
    <glyph glyph-name="uni06FB.medi" unicode="&#x6fb;" horiz-adv-x="1073" 
d="M399 812l71 129q83 -51 162 -117q-21 -73 -71 -123q-56 44 -162 111zM581 -298l71 129q83 -51 162 -117q-21 -73 -71 -123q-56 44 -162 111zM249 434l8 -5q-3 -30 -3 -55q0 -46 19 -84t54 -51q172 340 370 340q92 0 167 -65t90 -159q4 -23 4 -50q0 -51 -16 -105h126
l32 -200h-14q-181 0 -344 28q-120 -28 -234 -28q-197 0 -273 101h-5q-66 -101 -190 -101h-13q-49 0 -70 41t-21 84q0 75 60 75h14q113 0 143 60q9 17 29 119q2 1 27.5 22.5t39.5 32.5zM415 214q49 -14 136 -14q117 0 212.5 28t95.5 55q0 29 -54.5 75t-125.5 46
q-142 0 -264 -190z" />
    <glyph glyph-name="uni06FB.fina" unicode="&#x6fb;" horiz-adv-x="1511" 
d="M742 792l72 129q89 -55 161 -117q-21 -72 -70 -123q-59 45 -163 111zM1011 -298l71 129q83 -51 162 -117q-21 -73 -71 -123q-56 44 -162 111zM760 231h4q165 348 376 348q90 0 164 -66t89 -160q4 -30 4 -46q0 -51 -17 -107h126l32 -200h-14q-185 0 -344 28
q-96 -28 -225 -28q-74 0 -163 12q-15 -157 -75 -223q-102 -114 -259 -114q-143 0 -248 120.5t-105 305.5q0 104 41 208l59 -25q-21 -73 -21 -132q0 -127 83 -204q77 -73 177 -73q103 0 170 48t90 103q-43 150 -153 302q36 85 80 153l13 -4q64 -103 116 -246zM843 210
q72 -10 141 -10q176 0 289 56q23 13 23 26q0 32 -53.5 77t-125.5 45q-74 0 -140 -51t-134 -143z" />
    <glyph glyph-name="uni06FC.init" unicode="&#x6fc;" horiz-adv-x="748" 
d="M36 852l71 129q83 -51 162 -117q-23 -75 -71 -123q-63 49 -162 111zM326 -280l71 129q83 -51 162 -117q-21 -73 -71 -123q-56 44 -162 111zM534 484l-26 -36q-87 58 -161 58q-51 0 -95.5 -12.5t-66 -26.5t-21.5 -23q0 -15 26.5 -48.5t60.5 -61.5q77 -58 133 -58
q74 0 271 75l16 -15q-21 -90 -51 -180q-51 -26 -173.5 -59.5t-150.5 -43.5q-151 -53 -255 -53h-14q-49 0 -70 41t-21 84q0 75 60 75h14q91 0 135 9v3q-99 82 -99 189q0 69 35 133q68 130 192 130q141 0 261 -180z" />
    <glyph glyph-name="uni06FC.medi" unicode="&#x6fc;" horiz-adv-x="752" 
d="M142 812l71 129q83 -51 162 -117q-21 -73 -71 -123q-56 44 -162 111zM349 -300l72 129q83 -52 161 -117q-21 -72 -70 -123q-59 45 -163 111zM507 243l1 -4q80 -39 225 -39h14l32 -200h-14q-100 0 -187 26t-185 94q-81 -69 -163.5 -94.5t-188.5 -25.5h-14q-49 0 -70 41
t-21 84q0 75 60 75h42q150 0 212 27l-1 4q-63 48 -141 116q-38 32 -71 32h-24l-3 3l30 163q2 0 112.5 18t203.5 18q157 0 292 -51q-4 -99 -10 -148q-27 -30 -131 -139zM530 398v5q-82 23 -163 23q-97 0 -163 -16v-5q107 -83 184 -127q63 44 142 120z" />
    <glyph glyph-name="uni06FC.fina" unicode="&#x6fc;" horiz-adv-x="862" 
d="M209 812l71 129q83 -51 162 -117q-21 -73 -71 -123q-56 44 -162 111zM416 -154l71 129q83 -51 162 -117q-21 -73 -71 -123q-56 44 -162 111zM458 276q87 58 163 127l-1 5q-84 21 -184 21q-95 0 -164 -15l1 -5q153 -111 185 -133zM462 124q-122 -59 -196 -126t-74 -120
q0 -95 143.5 -174t349.5 -79q130 0 271 24l14 -19q-74 -81 -206 -181q-82 -18 -160 -18q-131 0 -244 49t-185 147t-72 226q0 204 218 375q-27 22 -62.5 54.5t-53.5 48t-39.5 28t-39.5 12.5q-22 0 -47 -7l-11 10l32 164q15 3 63 13.5t77.5 15.5t80 10.5t100.5 5.5
q162 0 303 -50q0 -98 -5 -152q-64 -75 -134 -145l1 -3q47 -21 105 -27t152 -6h14l32 -200h-14q-141 0 -231 30.5t-182 93.5z" />
    <glyph glyph-name="uni06FF.init" unicode="&#x6ff;" horiz-adv-x="917" 
d="M323 63q-155 -63 -282 -63h-14q-49 0 -70 41t-21 84q0 75 60 75h14q40 0 140 16q-28 108 -28 166q0 148 116 243q1 45 14 111h17q111 -89 254 -177q50 -30 67.5 -41t58 -38t56.5 -41t43.5 -40.5t39.5 -47.5t24.5 -50t17.5 -60q4 -32 4 -49q0 -43 -14 -85
q-38 -107 -145 -107q-123 0 -352 63zM345 241q50 11 78 34.5t28 48.5q0 46 -42.5 101.5t-93.5 55.5q-43 0 -81 -38.5t-38 -75.5q0 -36 45.5 -73t103.5 -53zM100 811h-6q-25 47 -39 84q98 116 118 210l27 11q18 -34 72 -87.5t130 -112.5l-19 -100h-14q-141 123 -168 169h-3
q-7 -64 -98 -174zM500 200q104 -29 177 -29q57 0 57 21q0 26 -56.5 72.5t-152.5 97.5v-9q0 -76 -25 -153z" />
    <glyph glyph-name="uni06FF.medi" unicode="&#x6ff;" horiz-adv-x="632" 
d="M50 751h-6q-22 38 -39 84q95 115 118 210l26 11q39 -72 203 -200l-19 -100h-14q-139 121 -168 169h-3q-7 -64 -98 -174zM444 200h183l32 -200h-14q-27 0 -70 5q34 -71 34 -132q0 -48 -17.5 -92.5t-59.5 -77.5t-100 -33q-103 0 -202 90.5t-123 242.5q-41 -3 -80 -3
q-49 0 -70 41t-21 84q0 75 60 75h111q12 303 95 479h16l76 -99q135 -177 152 -282q4 -28 4 -41q0 -19 -6 -57zM179 200q89 0 132.5 7.5t43.5 28.5q0 42 -135 215h-4q-20 -113 -37 -251zM203 5q26 -65 102 -120t145 -55q45 0 45 25q0 18 -14.5 47t-36.5 53q-54 59 -138 59
q-48 0 -103 -9z" />
    <glyph glyph-name="uni06FF.fina" unicode="&#x6ff;" horiz-adv-x="836" 
d="M250 751h-6q-25 43 -40 84q96 114 119 210l26 11q39 -72 203 -200l-19 -100h-14q-139 121 -168 169h-3q-7 -64 -98 -174zM648 200h183l32 -200h-14q-27 0 -70 5q34 -66 34 -132q0 -48 -17.5 -92.5t-59.5 -77.5t-100 -33q-99 0 -195.5 84.5t-126.5 228.5
q-164 -28 -198 -97l-26 21q31 150 70 199q46 52 149 71q15 327 97 502h16l76 -99q135 -177 152 -282q4 -28 4 -41q0 -19 -6 -57zM382 186q177 16 177 52q0 45 -135 213h-4q-22 -120 -38 -265zM408 1q26 -63 101.5 -117t144.5 -54q45 0 45 25q0 19 -15 48t-36 52
q-56 59 -138 59q-33 0 -102 -13z" />
    <glyph glyph-name="uniFB50" unicode="&#x671;" horiz-adv-x="458" arabic-form="isolated" 
d="M-98 1048l-18 11l-16 97q25 69 49 69q13 0 44 -15q40 66 76 98.5t86 32.5q41 0 80 -37t39 -101q0 -21 -4.5 -41.5t-16.5 -44.5t-39.5 -39t-66.5 -15q-40 0 -78.5 8.5t-62.5 17.5t-28 9q-10 0 -44 -50zM7 1189q67 -25 115 -25q58 0 68 27q-10 30 -31 46.5t-48 16.5
q-60 0 -104 -65zM242 -28l-25 16q-1 89 -25 241q-53 336 -136 650q50 75 95 127l19 -9q62 -246 120 -612q24 -160 24 -232q0 -46 -9 -64q-24 -62 -63 -117z" />
    <glyph glyph-name="uniFB51" unicode="&#x671;" horiz-adv-x="443" arabic-form="final" 
d="M-100 1056l-17 11l-16 97q25 69 49 69q12 0 44 -15q40 66 76 98.5t86 32.5q37 0 72.5 -28.5t44.5 -88.5q2 -8 2 -23q0 -21 -4.5 -41.5t-17 -44t-39.5 -38t-66 -14.5q-40 0 -79 8.5t-63 17.5t-28 9q-8 0 -44 -50zM6 1197q66 -25 115 -25q58 0 68 27q-22 63 -79 63
q-60 0 -104 -65zM438 200l32 -200h-17q-233 0 -279 264q-56 336 -140 654q45 58 98 111l15 -7q41 -155 89 -448q7 -44 18 -119.5t18 -120.5q11 -74 46.5 -104t105.5 -30h14z" />
    <glyph glyph-name="uniFB52" unicode="&#x67b;" horiz-adv-x="1302" arabic-form="isolated" 
d="M664 -495l70 130q84 -51 163 -118q-21 -73 -71 -123q-60 47 -162 111zM593 -248l71 129q70 -41 163 -117q-27 -80 -71 -123q-70 54 -163 111zM1036 606l10 1q60 -79 102 -158.5t49 -121.5q3 -21 3 -47q0 -128 -47 -200q-95 -57 -238 -90t-286 -33q-216 0 -365 83
q-93 52 -144 152t-51 218q0 85 25 172l65 -21q-7 -49 -7 -78q0 -144 125 -231t367 -87q121 0 263.5 27t187.5 52q-39 76 -132 206q41 99 73 156z" />
    <glyph glyph-name="uniFB53" unicode="&#x67b;" horiz-adv-x="1368" arabic-form="final" 
d="M664 -495l70 130q84 -51 163 -118q-21 -73 -71 -123q-60 47 -162 111zM593 -248l71 129q70 -41 163 -117q-27 -80 -71 -123q-70 54 -163 111zM1363 200l32 -200h-14q-152 0 -225 81h-3q-265 -125 -524 -125q-215 0 -365 84q-93 52 -144 152t-51 218q0 85 25 172l65 -21
q-7 -49 -7 -78q0 -144 125.5 -231.5t367.5 -87.5q106 0 225.5 21.5t206.5 57.5l26 130q37 31 71 54l11 -8q-8 -51 -8 -88q0 -65 47 -98t125 -33h14z" />
    <glyph glyph-name="uniFB54" unicode="&#x67b;" horiz-adv-x="451" arabic-form="initial" 
d="M184 -447l68 123q78 -47 153 -111q-20 -71 -66 -117q-62 48 -155 105zM118 -217l67 123q78 -46 154 -111q-22 -74 -67 -117q-59 46 -154 105zM176 599l10 -2q45 -67 59 -89.5t39 -65.5t32 -66t13.5 -56t6.5 -70q0 -59 -17 -114q-31 -78 -82 -102q-70 -34 -196 -34h-14
q-49 0 -70 41t-21 84q0 75 60 75h22q54 0 104.5 6.5t78.5 15t28 16.5q0 30 -131 205q38 89 78 156z" />
    <glyph glyph-name="uniFB55" unicode="&#x67b;" horiz-adv-x="468" arabic-form="medial" 
d="M236 -457l67 123q78 -46 154 -111q-22 -73 -66 -117q-62 47 -155 105zM169 -227l68 123q75 -46 154 -111q-22 -72 -67 -117q-62 48 -155 105zM463 200l32 -200h-13q-78 0 -139 23t-108 86h-3q-66 -109 -191 -109h-14q-49 0 -70 41t-21 84q0 75 60 75h14q80 0 129 34
q22 15 33 38.5t17 58.5t10 47q40 32 71 52l8 -6q-5 -48 -5 -70q0 -86 66 -125q50 -29 112 -29h12z" />
    <glyph glyph-name="uniFB56" unicode="&#x67e;" horiz-adv-x="1302" arabic-form="isolated" 
d="M506 -265l80 120q68 -49 156 -124q-26 -52 -76 -121q-68 58 -160 125zM739 -253l79 121q90 -67 156 -125q-32 -59 -77 -120q-76 64 -158 124zM696 -489l81 121q76 -56 155 -124q-26 -49 -76 -121q-91 76 -160 124zM1036 606l10 1q60 -79 102 -158.5t49 -121.5
q3 -21 3 -47q0 -128 -47 -200q-95 -57 -238 -90t-286 -33q-216 0 -365 83q-93 52 -144 152t-51 218q0 85 25 172l65 -21q-7 -49 -7 -78q0 -144 125 -231t367 -87q121 0 263.5 27t187.5 52q-39 76 -132 206q41 99 73 156z" />
    <glyph glyph-name="uniFB57" unicode="&#x67e;" horiz-adv-x="1368" arabic-form="final" 
d="M506 -265l80 120q68 -49 156 -124q-26 -52 -76 -121q-68 58 -160 125zM739 -253l79 121q90 -67 156 -125q-32 -59 -77 -120q-76 64 -158 124zM696 -489l81 121q76 -56 155 -124q-26 -49 -76 -121q-91 76 -160 124zM1363 200l32 -200h-14q-152 0 -225 81h-3
q-265 -125 -524 -125q-215 0 -365 84q-93 52 -144 152t-51 218q0 85 25 172l65 -21q-7 -49 -7 -78q0 -144 125.5 -231.5t367.5 -87.5q106 0 225.5 21.5t206.5 57.5l26 130q37 31 71 54l11 -8q-8 -51 -8 -88q0 -65 47 -98t125 -33h14z" />
    <glyph glyph-name="uniFB58" unicode="&#x67e;" horiz-adv-x="473" arabic-form="initial" 
d="M270 -271l84 107q78 -61 134 -124q-30 -58 -82 -102q-60 56 -136 119zM61 -280l84 107q77 -60 134 -124q-29 -55 -82 -102q-58 53 -136 119zM225 -491l84 107q73 -57 134 -124q-29 -55 -82 -102q-44 41 -136 119zM176 599l10 -2q45 -67 59 -89.5t39 -65.5t32 -66
t13.5 -56t6.5 -70q0 -59 -17 -114q-31 -78 -82 -102q-70 -34 -196 -34h-14q-49 0 -70 41t-21 84q0 75 60 75h22q54 0 104.5 6.5t78.5 15t28 16.5q0 30 -131 205q38 89 78 156z" />
    <glyph glyph-name="uniFB59" unicode="&#x67e;" horiz-adv-x="468" arabic-form="medial" 
d="M287 -285l84 107q78 -62 133 -124q-30 -58 -82 -102q-54 50 -135 119zM77 -294l84 107q73 -57 134 -124q-29 -55 -82 -102q-58 53 -136 119zM241 -505l85 107q78 -62 133 -124q-30 -58 -82 -102q-60 56 -136 119zM463 200l32 -200h-13q-78 0 -139 23t-108 86h-3
q-66 -109 -191 -109h-14q-49 0 -70 41t-21 84q0 75 60 75h14q80 0 129 34q22 15 33 38.5t17 58.5t10 47q40 32 71 52l8 -6q-5 -48 -5 -70q0 -86 66 -125q50 -29 112 -29h12z" />
    <glyph glyph-name="uniFB5A" unicode="&#x680;" horiz-adv-x="1302" arabic-form="isolated" 
d="M782 -454l86 110q71 -55 136 -127q-31 -58 -83 -104q-80 73 -139 121zM566 -463l86 109q73 -57 136 -126q-30 -57 -84 -104q-61 56 -138 121zM710 -221l85 109q80 -62 136 -126q-30 -59 -83 -104q-59 54 -138 121zM493 -230l86 109q80 -63 136 -127q-29 -55 -84 -104
q-44 42 -138 122zM1036 606l10 1q60 -79 102 -158.5t49 -121.5q3 -21 3 -47q0 -128 -47 -200q-95 -57 -238 -90t-286 -33q-216 0 -365 83q-93 52 -144 152t-51 218q0 85 25 172l65 -21q-7 -49 -7 -78q0 -144 125 -231t367 -87q121 0 263.5 27t187.5 52q-39 76 -132 206
q41 99 73 156z" />
    <glyph glyph-name="uniFB5B" unicode="&#x680;" horiz-adv-x="1368" arabic-form="final" 
d="M782 -454l86 110q71 -55 136 -127q-31 -58 -83 -104q-80 73 -139 121zM566 -463l86 109q73 -57 136 -126q-30 -57 -84 -104q-61 56 -138 121zM710 -221l85 109q80 -62 136 -126q-30 -59 -83 -104q-59 54 -138 121zM493 -230l86 109q80 -63 136 -127q-29 -55 -84 -104
q-44 42 -138 122zM1363 200l32 -200h-14q-152 0 -225 81h-3q-265 -125 -524 -125q-215 0 -365 84q-93 52 -144 152t-51 218q0 85 25 172l65 -21q-7 -49 -7 -78q0 -144 125.5 -231.5t367.5 -87.5q106 0 225.5 21.5t206.5 57.5l26 130q37 31 71 54l11 -8q-8 -51 -8 -88
q0 -65 47 -98t125 -33h14z" />
    <glyph glyph-name="uniFB5C" unicode="&#x680;" horiz-adv-x="478" arabic-form="initial" 
d="M332 -486l85 107q78 -62 133 -124q-30 -58 -82 -102q-60 56 -136 119zM120 -495l84 107q77 -60 134 -124q-29 -55 -82 -102q-58 53 -136 119zM261 -258l84 107q78 -61 134 -124q-29 -55 -82 -102q-60 56 -136 119zM49 -267l84 107q78 -62 133 -124q-30 -57 -81 -102
q-58 53 -136 119zM176 599l10 -2q45 -67 59 -89.5t39 -65.5t32 -66t13.5 -56t6.5 -70q0 -59 -17 -114q-31 -78 -82 -102q-70 -34 -196 -34h-14q-49 0 -70 41t-21 84q0 75 60 75h22q54 0 104.5 6.5t78.5 15t28 16.5q0 30 -131 205q38 89 78 156z" />
    <glyph glyph-name="uniFB5D" unicode="&#x680;" horiz-adv-x="468" arabic-form="medial" 
d="M360 -513l84 107q78 -62 133 -124q-30 -57 -81 -102q-58 53 -136 119zM147 -522l84 107q73 -57 134 -124q-29 -55 -82 -102q-44 41 -136 119zM289 -285l84 107q78 -62 133 -124q-30 -58 -82 -102q-54 50 -135 119zM76 -294l84 107q73 -57 134 -124q-29 -55 -82 -102
q-58 53 -136 119zM463 200l32 -200h-13q-78 0 -139 23t-108 86h-3q-66 -109 -191 -109h-14q-49 0 -70 41t-21 84q0 75 60 75h14q80 0 129 34q22 15 33 38.5t17 58.5t10 47q40 32 71 52l8 -6q-5 -48 -5 -70q0 -86 66 -125q50 -29 112 -29h12z" />
    <glyph glyph-name="uniFB5E" unicode="&#x67a;" horiz-adv-x="1302" arabic-form="isolated" 
d="M431 725l70 130q84 -51 163 -118q-24 -76 -71 -123q-60 47 -162 111zM360 972l71 129q70 -41 163 -117q-27 -80 -71 -123q-71 54 -163 111zM1036 606l10 1q60 -79 102 -158.5t49 -121.5q3 -21 3 -47q0 -128 -47 -200q-95 -57 -238 -90t-286 -33q-216 0 -365 83
q-93 52 -144 152t-51 218q0 85 25 172l65 -21q-7 -49 -7 -78q0 -144 125 -231t367 -87q121 0 263.5 27t187.5 52q-39 76 -132 206q41 99 73 156z" />
    <glyph glyph-name="uniFB5F" unicode="&#x67a;" horiz-adv-x="1368" arabic-form="final" 
d="M482 715l71 130q90 -55 162 -118q-22 -75 -70 -123q-63 48 -163 111zM411 962l72 129q76 -45 162 -117q-25 -79 -70 -123q-74 55 -164 111zM1363 200l32 -200h-14q-152 0 -225 81h-3q-265 -125 -524 -125q-215 0 -365 84q-93 52 -144 152t-51 218q0 85 25 172l65 -21
q-7 -49 -7 -78q0 -144 125.5 -231.5t367.5 -87.5q106 0 225.5 21.5t206.5 57.5l26 130q37 31 71 54l11 -8q-8 -51 -8 -88q0 -65 47 -98t125 -33h14z" />
    <glyph glyph-name="uniFB60" unicode="&#x67a;" horiz-adv-x="451" arabic-form="initial" 
d="M-35 753l67 123q78 -47 153 -111q-20 -71 -66 -117q-74 56 -154 105zM-101 983l67 123q74 -44 153 -111q-22 -74 -67 -117q-57 45 -153 105zM176 599l10 -2q45 -67 59 -89.5t39 -65.5t32 -66t13.5 -56t6.5 -70q0 -59 -17 -114q-31 -78 -82 -102q-70 -34 -196 -34h-14
q-49 0 -70 41t-21 84q0 75 60 75h22q54 0 104.5 6.5t78.5 15t28 16.5q0 30 -131 205q38 89 78 156z" />
    <glyph glyph-name="uniFB61" unicode="&#x67a;" horiz-adv-x="468" arabic-form="medial" 
d="M46 613l68 123q75 -46 154 -111q-22 -72 -67 -117q-62 48 -155 105zM-19 843l67 123q78 -47 153 -111q-22 -73 -66 -117q-67 51 -154 105zM463 200l32 -200h-13q-78 0 -139 23t-108 86h-3q-66 -109 -191 -109h-14q-49 0 -70 41t-21 84q0 75 60 75h14q80 0 129 34
q22 15 33 38.5t17 58.5t10 47q40 32 71 52l8 -6q-5 -48 -5 -70q0 -86 66 -125q50 -29 112 -29h12z" />
    <glyph glyph-name="uniFB62" unicode="&#x67f;" horiz-adv-x="1302" arabic-form="isolated" 
d="M564 736l86 110q75 -59 136 -127q-30 -57 -84 -104q-78 71 -138 121zM347 727l86 109q70 -53 136 -126q-31 -58 -83 -104q-68 62 -139 121zM491 969l86 109q78 -62 136 -126q-29 -57 -84 -104q-44 41 -138 121zM274 960l86 109q81 -63 136 -127q-30 -57 -83 -104
q-62 58 -139 122zM1036 606l10 1q60 -79 102 -158.5t49 -121.5q3 -21 3 -47q0 -128 -47 -200q-95 -57 -238 -90t-286 -33q-216 0 -365 83q-93 52 -144 152t-51 218q0 85 25 172l65 -21q-7 -49 -7 -78q0 -144 125 -231t367 -87q121 0 263.5 27t187.5 52q-39 76 -132 206
q41 99 73 156z" />
    <glyph glyph-name="uniFB63" unicode="&#x67f;" horiz-adv-x="1368" arabic-form="final" 
d="M617 716l86 110q75 -59 136 -127q-30 -57 -84 -104q-63 58 -138 121zM401 707l85 109q75 -57 136 -126q-31 -58 -83 -104q-61 56 -138 121zM544 949l86 109q75 -58 136 -126q-30 -59 -84 -104q-61 57 -138 121zM328 940l85 109q81 -63 136 -127q-30 -57 -83 -104
q-55 52 -138 122zM1363 200l32 -200h-14q-152 0 -225 81h-3q-265 -125 -524 -125q-215 0 -365 84q-93 52 -144 152t-51 218q0 85 25 172l65 -21q-7 -49 -7 -78q0 -144 125.5 -231.5t367.5 -87.5q106 0 225.5 21.5t206.5 57.5l26 130q37 31 71 54l11 -8q-8 -51 -8 -88
q0 -65 47 -98t125 -33h14z" />
    <glyph glyph-name="uniFB64" unicode="&#x67f;" horiz-adv-x="451" arabic-form="initial" 
d="M96 754l84 107q73 -57 134 -124q-29 -55 -82 -102q-58 53 -136 119zM-115 745l84 107q75 -59 132 -124q-30 -57 -81 -102q-54 50 -135 119zM26 982l83 107q73 -57 134 -124q-29 -55 -82 -102q-45 41 -135 119zM-187 973l84 107q80 -62 133 -124q-27 -55 -81 -102
q-60 56 -136 119zM176 599l10 -2q45 -67 59 -89.5t39 -65.5t32 -66t13.5 -56t6.5 -70q0 -59 -17 -114q-31 -78 -82 -102q-70 -34 -196 -34h-14q-49 0 -70 41t-21 84q0 75 60 75h22q54 0 104.5 6.5t78.5 15t28 16.5q0 30 -131 205q38 89 78 156z" />
    <glyph glyph-name="uniFB65" unicode="&#x67f;" horiz-adv-x="468" arabic-form="medial" 
d="M145 634l84 107q73 -57 134 -124q-29 -55 -82 -102q-58 53 -136 119zM-66 625l84 107q79 -63 132 -124q-30 -58 -82 -102q-51 49 -134 119zM74 862l84 107q73 -57 134 -124q-29 -55 -82 -102q-58 53 -136 119zM-138 853l84 107q75 -58 133 -124q-29 -54 -81 -102
q-60 56 -136 119zM463 200l32 -200h-13q-78 0 -139 23t-108 86h-3q-66 -109 -191 -109h-14q-49 0 -70 41t-21 84q0 75 60 75h14q80 0 129 34q22 15 33 38.5t17 58.5t10 47q40 32 71 52l8 -6q-5 -48 -5 -70q0 -86 66 -125q50 -29 112 -29h12z" />
    <glyph glyph-name="uniFB66" unicode="&#x679;" horiz-adv-x="1302" arabic-form="isolated" 
d="M468 621l-130 95l7 20q52 -5 102 -5q3 13 3 30q0 16 -5 48q-11 75 -25 121q-2 9 -10 33.5t-10 37.5q-1 3 -1 10q0 38 55 81l7 -3q9 -37 66 -114l-37 -42q8 -51 8 -85q0 -13 -1 -17l2 -3q56 100 135 100q50 0 84.5 -44.5t34.5 -98.5q0 -88 -55 -126t-173 -38h-57zM498 729
q148 3 202 46q-28 50 -83 50q-64 0 -119 -96zM1036 606l10 1q60 -79 102 -158.5t49 -121.5q3 -21 3 -47q0 -128 -47 -200q-95 -57 -238 -90t-286 -33q-216 0 -365 83q-93 52 -144 152t-51 218q0 85 25 172l65 -21q-7 -49 -7 -78q0 -144 125 -231t367 -87q121 0 263.5 27
t187.5 52q-39 76 -132 206q41 99 73 156z" />
    <glyph glyph-name="uniFB67" unicode="&#x679;" horiz-adv-x="1368" arabic-form="final" 
d="M506 611l-130 95l7 20q52 -5 102 -5q3 13 3 30q0 16 -5 48q-11 75 -25 121q-2 9 -10 33.5t-10 37.5q-1 3 -1 10q0 38 55 81l7 -3q9 -37 66 -114l-37 -42q8 -51 8 -85q0 -13 -1 -17l2 -3q56 100 135 100q50 0 84.5 -44.5t34.5 -98.5q0 -88 -55 -126t-173 -38h-57zM536 719
q148 3 202 46q-28 50 -83 50q-64 0 -119 -96zM1363 200l32 -200h-14q-152 0 -225 81h-3q-265 -125 -524 -125q-215 0 -365 84q-93 52 -144 152t-51 218q0 85 25 172l65 -21q-7 -49 -7 -78q0 -144 125.5 -231.5t367.5 -87.5q106 0 225.5 21.5t206.5 57.5l26 130q37 31 71 54
l11 -8q-8 -51 -8 -88q0 -65 47 -98t125 -33h14z" />
    <glyph glyph-name="uniFB68" unicode="&#x679;" horiz-adv-x="451" arabic-form="initial" 
d="M-3 665l-130 95l7 20q52 -5 102 -5q3 13 3 30q0 16 -5 48q-11 75 -25 121q-2 9 -10 33.5t-10 37.5q-1 3 -1 10q0 38 55 81l7 -3q9 -37 66 -114l-37 -42q8 -51 8 -85q0 -13 -1 -17l2 -3q56 100 135 100q50 0 84.5 -44.5t34.5 -98.5q0 -88 -55 -126t-173 -38h-57zM27 773
q148 3 202 46q-28 50 -83 50q-64 0 -119 -96zM176 599l10 -2q45 -67 59 -89.5t39 -65.5t32 -66t13.5 -56t6.5 -70q0 -59 -17 -114q-31 -78 -82 -102q-70 -34 -196 -34h-14q-49 0 -70 41t-21 84q0 75 60 75h22q54 0 104.5 6.5t78.5 15t28 16.5q0 30 -131 205q38 89 78 156z
" />
    <glyph glyph-name="uniFB69" unicode="&#x679;" horiz-adv-x="468" arabic-form="medial" 
d="M49 525l-130 95l7 20q52 -5 102 -5q3 13 3 30q0 16 -5 48q-11 75 -25 121q-2 9 -10 33.5t-10 37.5q-1 3 -1 10q0 38 55 81l7 -3q9 -37 66 -114l-37 -42q8 -51 8 -85q0 -13 -1 -17l2 -3q56 100 135 100q50 0 84.5 -44.5t34.5 -98.5q0 -88 -55 -126t-173 -38h-57zM79 633
q148 3 202 46q-28 50 -83 50q-64 0 -119 -96zM463 200l32 -200h-13q-78 0 -139 23t-108 86h-3q-66 -109 -191 -109h-14q-49 0 -70 41t-21 84q0 75 60 75h14q80 0 129 34q22 15 33 38.5t17 58.5t10 47q40 32 71 52l8 -6q-5 -48 -5 -70q0 -86 66 -125q50 -29 112 -29h12z" />
    <glyph glyph-name="uniFB6A" unicode="&#x6a4;" horiz-adv-x="1338" arabic-form="isolated" 
d="M859 924l84 107q73 -57 134 -124q-29 -55 -82 -102q-44 41 -136 119zM650 915l84 107q78 -62 133 -124q-30 -58 -82 -102q-54 50 -135 119zM699 1131l84 107q78 -61 134 -124q-29 -55 -82 -102q-60 56 -136 119zM1144 276q-35 -3 -106 -3q-145 0 -221.5 60t-76.5 179
q0 86 51 154q65 85 146 85q65 0 128 -67t106 -167.5t60 -209.5q6 -36 6 -77q0 -78 -24 -154q-33 -30 -137 -60q-214 -60 -458 -60q-143 0 -250 35t-171 98.5t-95.5 145.5t-31.5 183q0 83 24 172l68 -24q-9 -42 -9 -77q0 -149 127.5 -236.5t365.5 -87.5q231 0 449 58
q50 15 50 45q0 5 -1 8zM1097 428q-85 166 -181 166q-45 0 -71.5 -18.5t-26.5 -42.5q0 -45 78 -72.5t201 -32.5z" />
    <glyph glyph-name="uniFB6B" unicode="&#x6a4;" horiz-adv-x="1473" arabic-form="final" 
d="M1049 864l84 107q78 -62 133 -124q-30 -57 -81 -102q-58 53 -136 119zM839 855l84 107q73 -57 134 -124q-29 -55 -82 -102q-58 53 -136 119zM889 1071l84 107q77 -60 134 -124q-29 -55 -82 -102q-58 53 -136 119zM1500 0h-14q-176 0 -320 59q-288 -103 -543 -103
q-267 0 -410.5 120.5t-143.5 335.5q0 91 25 176l68 -25q-10 -39 -10 -79q0 -150 129 -233t356 -86q165 0 317 35q-46 108 -46 201q0 113 80 206q69 79 139 79q54 0 108 -64q97 -115 97 -273q0 -62 -23 -135q60 -14 145 -14h14zM979 365q28 -78 153 -121q56 17 90.5 47.5
t34.5 56.5q0 41 -46.5 95t-93.5 54q-46 0 -85.5 -39.5t-52.5 -92.5z" />
    <glyph glyph-name="uniFB6C" unicode="&#x6a4;" horiz-adv-x="582" arabic-form="initial" 
d="M109 924l84 107q73 -57 134 -124q-29 -55 -82 -102q-44 41 -136 119zM-99 915l84 107q79 -63 132 -124q-30 -58 -82 -102q-51 49 -134 119zM-50 1131l83 107q78 -61 134 -124q-29 -55 -82 -102q-68 64 -135 119zM-4 200h53q182 0 265 11t83 48q0 11 -6 19q-43 -5 -108 -5
q-145 0 -220.5 60t-75.5 179q0 87 50 154q65 85 146 85q65 0 129.5 -71.5t109 -179t63.5 -224.5q6 -40 6 -73q0 -40 -10.5 -71t-27 -52.5t-48.5 -36t-64 -23t-84 -13t-98.5 -6t-117.5 -1.5h-14q-49 0 -70 41t-21 84q0 75 60 75zM343 428q-85 166 -181 166q-45 0 -71.5 -18.5
t-26.5 -42.5q0 -46 78.5 -73.5t200.5 -31.5z" />
    <glyph glyph-name="uniFB6D" unicode="&#x6a4;" horiz-adv-x="655" arabic-form="medial" 
d="M239 864l84 107q78 -62 133 -124q-30 -57 -81 -102q-58 53 -136 119zM29 855l84 107q73 -57 134 -124q-29 -55 -82 -102q-58 53 -136 119zM79 1071l84 107q77 -60 134 -124q-29 -55 -82 -102q-58 53 -136 119zM-4 200h14q71 0 124 12q-42 105 -42 191q0 115 78 204
q69 79 139 79q54 0 108 -64q96 -113 96 -265q0 -65 -24 -144q75 -11 147 -13h14l32 -200h-14q-108 0 -175.5 12t-181.5 50q-114 -62 -270 -62h-14q-49 0 -70 41t-21 84q0 75 60 75zM161 365q27 -77 153 -119q56 17 90 46.5t34 55.5q0 41 -46 95t-93 54q-46 0 -85.5 -39.5
t-52.5 -92.5z" />
    <glyph glyph-name="uniFB6E" unicode="&#x6a6;" horiz-adv-x="1338" arabic-form="isolated" 
d="M871 914l84 107q78 -62 133 -124q-30 -57 -81 -102q-58 53 -136 119zM658 905l84 107q73 -57 134 -124q-29 -55 -82 -102q-44 41 -136 119zM800 1142l84 107q78 -62 133 -124q-30 -58 -82 -102q-54 50 -135 119zM587 1133l84 107q73 -57 134 -124q-29 -55 -82 -102
q-58 53 -136 119zM1144 276q-35 -3 -106 -3q-145 0 -221.5 60t-76.5 179q0 86 51 154q65 85 146 85q65 0 128 -67t106 -167.5t60 -209.5q6 -36 6 -77q0 -78 -24 -154q-33 -30 -137 -60q-214 -60 -458 -60q-143 0 -250 35t-171 98.5t-95.5 145.5t-31.5 183q0 83 24 172
l68 -24q-9 -42 -9 -77q0 -149 127.5 -236.5t365.5 -87.5q231 0 449 58q50 15 50 45q0 5 -1 8zM1097 428q-85 166 -181 166q-45 0 -71.5 -18.5t-26.5 -42.5q0 -45 78 -72.5t201 -32.5z" />
    <glyph glyph-name="uniFB6F" unicode="&#x6a6;" horiz-adv-x="1473" arabic-form="final" 
d="M1049 864l84 107q78 -62 133 -124q-30 -57 -81 -102q-58 53 -136 119zM836 855l84 107q73 -57 134 -124q-29 -55 -82 -102q-58 53 -136 119zM978 1092l84 107q78 -62 133 -124q-30 -58 -82 -102q-54 50 -135 119zM765 1083l84 107q73 -57 134 -124q-29 -55 -82 -102
q-58 53 -136 119zM1500 0h-14q-176 0 -320 59q-288 -103 -543 -103q-267 0 -410.5 120.5t-143.5 335.5q0 91 25 176l68 -25q-10 -39 -10 -79q0 -150 129 -233t356 -86q165 0 317 35q-46 108 -46 201q0 113 80 206q69 79 139 79q54 0 108 -64q97 -115 97 -273q0 -62 -23 -135
q60 -14 145 -14h14zM979 365q28 -78 153 -121q56 17 90.5 47.5t34.5 56.5q0 41 -46.5 95t-93.5 54q-46 0 -85.5 -39.5t-52.5 -92.5z" />
    <glyph glyph-name="uniFB70" unicode="&#x6a6;" horiz-adv-x="582" arabic-form="initial" 
d="M111 914l84 107q78 -62 133 -124q-30 -57 -81 -102q-58 53 -136 119zM-101 905l84 107q73 -58 133 -124q-29 -55 -82 -102q-43 41 -135 119zM40 1142l84 107q78 -62 133 -124q-30 -58 -82 -102q-54 50 -135 119zM-172 1133l84 107q75 -58 133 -124q-27 -55 -81 -102
q-58 53 -136 119zM-4 200h53q182 0 265 11t83 48q0 11 -6 19q-43 -5 -108 -5q-145 0 -220.5 60t-75.5 179q0 87 50 154q65 85 146 85q65 0 129.5 -71.5t109 -179t63.5 -224.5q6 -40 6 -73q0 -40 -10.5 -71t-27 -52.5t-48.5 -36t-64 -23t-84 -13t-98.5 -6t-117.5 -1.5h-14
q-49 0 -70 41t-21 84q0 75 60 75zM343 428q-85 166 -181 166q-45 0 -71.5 -18.5t-26.5 -42.5q0 -46 78.5 -73.5t200.5 -31.5z" />
    <glyph glyph-name="uniFB71" unicode="&#x6a6;" horiz-adv-x="655" arabic-form="medial" 
d="M229 864l84 107q78 -62 133 -124q-30 -57 -81 -102q-58 53 -136 119zM17 855l83 107q73 -57 134 -124q-29 -55 -82 -102q-45 41 -135 119zM158 1092l84 107q78 -62 133 -124q-30 -58 -82 -102q-54 50 -135 119zM-54 1083l83 107q73 -57 134 -124q-29 -55 -82 -102
q-72 65 -135 119zM-4 200h14q71 0 124 12q-42 105 -42 191q0 115 78 204q69 79 139 79q54 0 108 -64q96 -113 96 -265q0 -65 -24 -144q75 -11 147 -13h14l32 -200h-14q-108 0 -175.5 12t-181.5 50q-114 -62 -270 -62h-14q-49 0 -70 41t-21 84q0 75 60 75zM161 365
q27 -77 153 -119q56 17 90 46.5t34 55.5q0 41 -46 95t-93 54q-46 0 -85.5 -39.5t-52.5 -92.5z" />
    <glyph glyph-name="uniFB72" unicode="&#x684;" horiz-adv-x="983" arabic-form="isolated" 
d="M552 -183l68 123q75 -46 154 -111q-22 -72 -67 -117q-62 48 -155 105zM486 47l68 123q78 -47 153 -111q-22 -73 -66 -117q-69 52 -155 105zM457 353l-1 3q-133 37 -195 37q-54 0 -82 -17l-29 -137h-19l-87 137q10 200 187 200q73 0 164.5 -30t182 -60t161.5 -30h114
l9 -14l-51 -131q-250 -49 -402.5 -146.5t-152.5 -209.5q0 -85 71 -154t194.5 -108t273.5 -39q134 0 246 27l15 -24q-104 -110 -183 -166q-43 -31 -173 -31q-250 0 -396 131.5t-146 352.5q0 141 83 249.5t216 159.5z" />
    <glyph glyph-name="uniFB73" unicode="&#x684;" horiz-adv-x="973" arabic-form="final" 
d="M507 -187l64 118q73 -45 146 -106q-21 -70 -63 -112q-61 46 -147 100zM443 33l65 117q71 -42 147 -106q-20 -68 -64 -112q-64 49 -148 101zM670 231l52 42q18 -47 67 -60t141 -13h38l32 -200h-14q-55 0 -86.5 2t-69.5 9t-59.5 21.5t-43.5 40t-35 64.5t-22 94zM457 353
l-1 3q-133 37 -195 37q-54 0 -82 -17l-29 -137h-19l-87 137q10 200 187 200q73 0 164.5 -30t182 -60t161.5 -30h114l9 -14l-51 -131q-252 -50 -407 -147.5t-155 -209.5q0 -84 71 -153t194.5 -108t273.5 -39q134 0 246 27l15 -24q-104 -110 -183 -166q-43 -31 -173 -31
q-248 0 -395 131t-147 350q0 141 86 250.5t220 161.5z" />
    <glyph glyph-name="uniFB74" unicode="&#x684;" horiz-adv-x="927" arabic-form="initial" 
d="M494 331l-1 5q-165 53 -262 53q-56 0 -80 -18l-30 -105h-20l-84 127q4 89 55.5 134t133.5 45q95 0 288 -69q134 -47 254 -47h74l4 -8q-25 -69 -61 -139q-56 0 -92.5 -12.5t-69.5 -47.5q-64 -67 -112.5 -107.5t-114.5 -76t-147 -50.5t-188 -15h-14q-49 0 -70 41t-21 84
q0 75 60 75h14q162 0 270.5 28.5t213.5 102.5zM380 -417l67 123q75 -46 154 -111q-22 -72 -67 -117q-59 46 -154 105zM313 -187l68 123q78 -47 153 -111q-20 -71 -66 -117q-69 52 -155 105z" />
    <glyph glyph-name="uniFB75" unicode="&#x684;" horiz-adv-x="902" arabic-form="medial" 
d="M494 331l-1 5q-165 53 -262 53q-56 0 -80 -18l-30 -105h-20l-84 127q4 89 55.5 134t133.5 45q95 0 288 -69q134 -47 254 -47h74l4 -8q-25 -69 -61 -139q-56 0 -93 -12.5t-70 -47.5q-64 -67 -112.5 -107.5t-114 -76t-146.5 -50.5t-188 -15h-14q-49 0 -70 41t-21 84
q0 75 60 75h14q162 0 270.5 28.5t213.5 102.5zM642 241l48 44l6 -5q7 -27 24 -44t45 -24.5t53.5 -9.5t64.5 -2h14l32 -200h-14q-138 0 -190 41q-61 53 -75 141q-8 50 -8 59zM380 -417l67 123q75 -46 154 -111q-22 -72 -67 -117q-59 46 -154 105zM313 -187l68 123
q78 -47 153 -111q-20 -71 -66 -117q-69 52 -155 105z" />
    <glyph glyph-name="uniFB76" unicode="&#x683;" horiz-adv-x="983" arabic-form="isolated" 
d="M424 -60l83 125q85 -63 162 -129q-37 -66 -80 -125q-74 64 -165 129zM664 -47l83 125q85 -63 162 -129q-37 -66 -80 -125q-74 64 -165 129zM457 353l-1 3q-133 37 -195 37q-54 0 -82 -17l-29 -137h-19l-87 137q10 200 187 200q73 0 164.5 -30t182 -60t161.5 -30h114
l9 -14l-51 -131q-250 -49 -402.5 -146.5t-152.5 -209.5q0 -85 71 -154t194.5 -108t273.5 -39q134 0 246 27l15 -24q-104 -110 -183 -166q-43 -31 -173 -31q-250 0 -396 131.5t-146 352.5q0 141 83 249.5t216 159.5z" />
    <glyph glyph-name="uniFB77" unicode="&#x683;" horiz-adv-x="973" arabic-form="final" 
d="M583 -75l84 107q78 -61 134 -124q-29 -55 -82 -102q-60 56 -136 119zM374 -84l84 107q78 -62 133 -124q-27 -55 -81 -102q-58 53 -136 119zM670 231l52 42q18 -47 67 -60t141 -13h38l32 -200h-14q-55 0 -86.5 2t-69.5 9t-59.5 21.5t-43.5 40t-35 64.5t-22 94zM457 353
l-1 3q-133 37 -195 37q-54 0 -82 -17l-29 -137h-19l-87 137q10 200 187 200q73 0 164.5 -30t182 -60t161.5 -30h114l9 -14l-51 -131q-252 -50 -407 -147.5t-155 -209.5q0 -84 71 -153t194.5 -108t273.5 -39q134 0 246 27l15 -24q-104 -110 -183 -166q-43 -31 -173 -31
q-248 0 -395 131t-147 350q0 141 86 250.5t220 161.5z" />
    <glyph glyph-name="uniFB78" unicode="&#x683;" horiz-adv-x="927" arabic-form="initial" 
d="M494 331l-1 5q-165 53 -262 53q-56 0 -80 -18l-30 -105h-20l-84 127q4 89 55.5 134t133.5 45q95 0 288 -69q134 -47 254 -47h74l4 -8q-25 -69 -61 -139q-56 0 -92.5 -12.5t-69.5 -47.5q-64 -67 -112.5 -107.5t-114.5 -76t-147 -50.5t-188 -15h-14q-49 0 -70 41t-21 84
q0 75 60 75h14q162 0 270.5 28.5t213.5 102.5zM427 -225l84 107q73 -57 134 -124q-29 -55 -82 -102q-58 53 -136 119zM218 -234l84 107q78 -62 133 -124q-30 -58 -82 -102q-54 50 -135 119z" />
    <glyph glyph-name="uniFB79" unicode="&#x683;" horiz-adv-x="902" arabic-form="medial" 
d="M494 331l-1 5q-165 53 -262 53q-56 0 -80 -18l-30 -105h-20l-84 127q4 89 55.5 134t133.5 45q95 0 288 -69q134 -47 254 -47h74l4 -8q-25 -69 -61 -139q-56 0 -93 -12.5t-70 -47.5q-64 -67 -112.5 -107.5t-114 -76t-146.5 -50.5t-188 -15h-14q-49 0 -70 41t-21 84
q0 75 60 75h14q162 0 270.5 28.5t213.5 102.5zM642 241l48 44l6 -5q7 -27 24 -44t45 -24.5t53.5 -9.5t64.5 -2h14l32 -200h-14q-138 0 -190 41q-61 53 -75 141q-8 50 -8 59zM427 -225l84 107q73 -57 134 -124q-29 -55 -82 -102q-58 53 -136 119zM218 -234l84 107
q78 -62 133 -124q-30 -58 -82 -102q-54 50 -135 119z" />
    <glyph glyph-name="uniFB7A" unicode="&#x686;" horiz-adv-x="983" arabic-form="isolated" 
d="M600 45l84 107q78 -61 134 -124q-29 -55 -82 -102q-60 56 -136 119zM391 36l84 107q78 -62 133 -124q-27 -55 -81 -102q-58 53 -136 119zM555 -175l84 107q73 -57 134 -124q-29 -55 -82 -102q-44 41 -136 119zM457 353l-1 3q-133 37 -195 37q-54 0 -82 -17l-29 -137h-19
l-87 137q10 200 187 200q73 0 164.5 -30t182 -60t161.5 -30h114l9 -14l-51 -131q-250 -49 -402.5 -146.5t-152.5 -209.5q0 -85 71 -154t194.5 -108t273.5 -39q134 0 246 27l15 -24q-104 -110 -183 -166q-43 -31 -173 -31q-250 0 -396 131.5t-146 352.5q0 141 83 249.5
t216 159.5z" />
    <glyph glyph-name="uniFB7B" unicode="&#x686;" horiz-adv-x="973" arabic-form="final" 
d="M710 231l52 42q9 -25 28 -40.5t48 -22t52.5 -8.5t60.5 -2h17l32 -200h-14q-46 0 -74.5 2.5t-65 15t-59.5 36.5t-44 68.5t-33 108.5zM554 20l76 99q64 -47 124 -107q-22 -46 -72 -98q-71 64 -128 106zM357 7l76 99q64 -47 124 -107q-22 -46 -72 -98q-71 64 -128 106z
M507 -183l76 99q69 -51 124 -107q-22 -46 -72 -98q-62 57 -128 106zM457 353l-1 3q-133 37 -195 37q-54 0 -82 -17l-29 -137h-19l-87 137q10 200 187 200q73 0 164.5 -30t182 -60t161.5 -30h114l9 -14l-51 -131q-252 -50 -407 -147.5t-155 -209.5q0 -84 71 -153t194.5 -108
t273.5 -39q134 0 246 27l15 -24q-104 -110 -183 -166q-43 -31 -173 -31q-248 0 -395 131t-147 350q0 141 86 250.5t220 161.5z" />
    <glyph glyph-name="uniFB7C" unicode="&#x686;" horiz-adv-x="927" arabic-form="initial" 
d="M494 331l-1 5q-165 53 -262 53q-56 0 -80 -18l-30 -105h-20l-84 127q4 89 55.5 134t133.5 45q95 0 288 -69q134 -47 254 -47h74l4 -8q-25 -69 -61 -139q-56 0 -92.5 -12.5t-69.5 -47.5q-64 -67 -112.5 -107.5t-114.5 -76t-147 -50.5t-188 -15h-14q-49 0 -70 41t-21 84
q0 75 60 75h14q162 0 270.5 28.5t213.5 102.5zM439 -201l84 107q78 -61 134 -124q-29 -55 -82 -102q-60 56 -136 119zM230 -210l84 107q78 -62 133 -124q-30 -57 -81 -102q-58 53 -136 119zM394 -421l84 107q73 -57 134 -124q-29 -55 -82 -102q-44 41 -136 119z" />
    <glyph glyph-name="uniFB7D" unicode="&#x686;" horiz-adv-x="902" arabic-form="medial" 
d="M494 331l-1 5q-165 53 -262 53q-56 0 -80 -18l-30 -105h-20l-84 127q4 89 55.5 134t133.5 45q95 0 288 -69q134 -47 254 -47h74l4 -8q-25 -69 -61 -139q-56 0 -93 -12.5t-70 -47.5q-64 -67 -112.5 -107.5t-114 -76t-146.5 -50.5t-188 -15h-14q-49 0 -70 41t-21 84
q0 75 60 75h14q162 0 270.5 28.5t213.5 102.5zM642 241l48 44l6 -5q7 -27 24 -44t45 -24.5t53.5 -9.5t64.5 -2h14l32 -200h-14q-138 0 -190 41q-61 53 -75 141q-8 50 -8 59zM439 -201l84 107q78 -61 134 -124q-29 -55 -82 -102q-60 56 -136 119zM230 -210l84 107
q78 -62 133 -124q-30 -57 -81 -102q-58 53 -136 119zM394 -421l84 107q73 -57 134 -124q-29 -55 -82 -102q-44 41 -136 119z" />
    <glyph glyph-name="uniFB7E" unicode="&#x687;" horiz-adv-x="983" arabic-form="isolated" 
d="M602 57l79 96q62 -47 122 -110q-23 -45 -75 -95q-64 61 -126 109zM405 52l79 96q67 -52 121 -110q-21 -44 -74 -95q-64 61 -126 109zM642 -156l79 96q67 -52 121 -110q-22 -45 -75 -95q-60 59 -125 109zM445 -161l79 96q67 -52 121 -110q-22 -45 -75 -95q-69 65 -125 109
zM457 353l-1 3q-133 37 -195 37q-54 0 -82 -17l-29 -137h-19l-87 137q10 200 187 200q73 0 164.5 -30t182 -60t161.5 -30h114l9 -14l-51 -131q-250 -49 -402.5 -146.5t-152.5 -209.5q0 -85 71 -154t194.5 -108t273.5 -39q134 0 246 27l15 -24q-104 -110 -183 -166
q-43 -31 -173 -31q-250 0 -396 131.5t-146 352.5q0 141 83 249.5t216 159.5z" />
    <glyph glyph-name="uniFB7F" unicode="&#x687;" horiz-adv-x="965" arabic-form="final" 
d="M447 353l-1 3q-133 37 -195 37q-54 0 -82 -17l-29 -137h-19l-87 137q10 200 187 200q73 0 164.5 -30t182 -60t161.5 -30h114l9 -14l-51 -130q-252 -39 -404.5 -134t-152.5 -218q0 -134 134.5 -224t354.5 -90q63 0 151 10.5t147 24.5l15 -24q-104 -110 -183 -166
q-43 -31 -173 -31q-250 0 -396 131.5t-146 352.5q0 141 83 249.5t216 159.5zM708 237l56 46q36 -81 146 -83h50l32 -200h-26q-192 0 -258 237zM554 49l79 96q67 -52 121 -110q-21 -42 -75 -95q-62 59 -125 109zM357 44l78 96q62 -47 122 -110q-23 -45 -75 -95
q-62 59 -125 109zM593 -164l79 96q62 -47 122 -110q-23 -45 -75 -95q-64 61 -126 109zM396 -169l79 96q67 -52 121 -110q-21 -44 -74 -95q-64 61 -126 109z" />
    <glyph glyph-name="uniFB80" unicode="&#x687;" horiz-adv-x="927" arabic-form="initial" 
d="M494 331l-1 5q-165 53 -262 53q-56 0 -80 -18l-30 -105h-20l-84 127q4 89 55.5 134t133.5 45q95 0 288 -69q134 -47 254 -47h74l4 -8q-25 -69 -61 -139q-56 0 -92.5 -12.5t-69.5 -47.5q-64 -67 -112.5 -107.5t-114.5 -76t-147 -50.5t-188 -15h-14q-49 0 -70 41t-21 84
q0 75 60 75h14q162 0 270.5 28.5t213.5 102.5zM505 -423l85 107q78 -62 133 -124q-30 -58 -82 -102q-60 56 -136 119zM293 -432l84 107q77 -60 134 -124q-29 -55 -82 -102q-58 53 -136 119zM434 -195l84 107q78 -61 134 -124q-29 -55 -82 -102q-60 56 -136 119zM222 -204
l84 107q77 -60 134 -124q-29 -55 -82 -102q-58 53 -136 119z" />
    <glyph glyph-name="uniFB81" unicode="&#x687;" horiz-adv-x="902" arabic-form="medial" 
d="M494 331l-1 5q-165 53 -262 53q-56 0 -80 -18l-30 -105h-20l-84 127q4 89 55.5 134t133.5 45q95 0 288 -69q134 -47 254 -47h74l4 -8q-25 -69 -61 -139q-56 0 -93 -12.5t-70 -47.5q-64 -67 -112.5 -107.5t-114 -76t-146.5 -50.5t-188 -15h-14q-49 0 -70 41t-21 84
q0 75 60 75h14q162 0 270.5 28.5t213.5 102.5zM642 241l48 44l6 -5q7 -27 24 -44t45 -24.5t53.5 -9.5t64.5 -2h14l32 -200h-14q-138 0 -190 41q-61 53 -75 141q-8 50 -8 59zM505 -423l85 107q78 -62 133 -124q-30 -58 -82 -102q-60 56 -136 119zM293 -432l84 107
q77 -60 134 -124q-29 -55 -82 -102q-58 53 -136 119zM434 -195l84 107q78 -61 134 -124q-29 -55 -82 -102q-60 56 -136 119zM222 -204l84 107q77 -60 134 -124q-29 -55 -82 -102q-58 53 -136 119z" />
    <glyph glyph-name="uniFB82" unicode="&#x68d;" horiz-adv-x="691" arabic-form="isolated" 
d="M430 -282l77 113q81 -59 139 -118q-24 -56 -75 -107q-43 36 -141 112zM213 -292l77 113q76 -55 139 -118q-23 -54 -76 -107q-53 45 -140 112zM75 313h64q11 -68 51.5 -97.5t113.5 -29.5q108 0 208 56q-68 161 -309 284q-36 19 -50.5 33.5t-14.5 37.5q0 41 40 142h7
q173 -99 287 -215q108 -110 131 -250q5 -33 5 -59q0 -67 -25 -129q-110 -99 -264 -99q-198 0 -233 217q-9 62 -11 109z" />
    <glyph glyph-name="uniFB83" unicode="&#x68d;" horiz-adv-x="774" arabic-form="final" 
d="M430 -282l77 113q81 -59 139 -118q-24 -56 -75 -107q-43 36 -141 112zM213 -292l77 113q76 -55 139 -118q-23 -54 -76 -107q-53 45 -140 112zM769 200l32 -200h-14q-81 0 -141.5 38.5t-101.5 129.5h-3q-10 -71 -40 -97q-77 -71 -203 -71q-177 0 -214 233q-6 29 -12 85
l64 6q27 -124 147 -124q65 0 141 35q54 25 54 58q0 28 -43 131.5t-97 210.5q28 70 70 137l18 -5q68 -158 150 -401q55 -166 179 -166h14z" />
    <glyph glyph-name="uniFB84" unicode="&#x68c;" horiz-adv-x="691" arabic-form="isolated" 
d="M157 949l84 107q73 -57 134 -124q-29 -55 -82 -102q-44 41 -136 119zM-51 940l83 107q78 -62 133 -124q-30 -58 -82 -102q-64 60 -134 119zM75 313h64q11 -68 51.5 -97.5t113.5 -29.5q108 0 208 56q-68 161 -309 284q-36 19 -50.5 33.5t-14.5 37.5q0 41 40 142h7
q173 -99 287 -215q108 -110 131 -250q5 -33 5 -59q0 -67 -25 -129q-110 -99 -264 -99q-198 0 -233 217q-9 62 -11 109z" />
    <glyph glyph-name="uniFB85" unicode="&#x68c;" horiz-adv-x="774" arabic-form="final" 
d="M314 969l84 107q73 -57 134 -124q-29 -55 -82 -102q-58 53 -136 119zM104 960l85 107q78 -62 133 -124q-30 -58 -82 -102q-60 56 -136 119zM769 200l32 -200h-14q-81 0 -141.5 38.5t-101.5 129.5h-3q-10 -71 -40 -97q-77 -71 -203 -71q-177 0 -214 233q-6 29 -12 85l64 6
q27 -124 147 -124q65 0 141 35q54 25 54 58q0 28 -43 131.5t-97 210.5q28 70 70 137l18 -5q68 -158 150 -401q55 -166 179 -166h14z" />
    <glyph glyph-name="uniFB86" unicode="&#x68e;" horiz-adv-x="691" arabic-form="isolated" 
d="M159 924l84 107q73 -57 134 -124q-29 -55 -82 -102q-44 41 -136 119zM-49 915l83 107q78 -62 133 -124q-30 -58 -82 -102q-64 60 -134 119zM0 1131l83 107q78 -61 134 -124q-29 -55 -82 -102q-54 50 -135 119zM75 313h64q11 -68 51.5 -97.5t113.5 -29.5q108 0 208 56
q-68 161 -309 284q-36 19 -50.5 33.5t-14.5 37.5q0 41 40 142h7q173 -99 287 -215q108 -110 131 -250q5 -33 5 -59q0 -67 -25 -129q-110 -99 -264 -99q-198 0 -233 217q-9 62 -11 109z" />
    <glyph glyph-name="uniFB87" unicode="&#x68e;" horiz-adv-x="774" arabic-form="final" 
d="M326 944l84 107q73 -57 134 -124q-29 -55 -82 -102q-58 53 -136 119zM116 935l84 107q78 -61 134 -124q-30 -58 -82 -102q-60 56 -136 119zM166 1151l84 107q73 -57 134 -124q-29 -55 -82 -102q-44 41 -136 119zM769 200l32 -200h-14q-81 0 -141.5 38.5t-101.5 129.5h-3
q-10 -71 -40 -97q-77 -71 -203 -71q-177 0 -214 233q-6 29 -12 85l64 6q27 -124 147 -124q65 0 141 35q54 25 54 58q0 28 -43 131.5t-97 210.5q28 70 70 137l18 -5q68 -158 150 -401q55 -166 179 -166h14z" />
    <glyph glyph-name="uniFB88" unicode="&#x688;" horiz-adv-x="691" arabic-form="isolated" 
d="M63 815l-130 95l7 20q52 -5 102 -5q3 13 3 30q0 16 -5 48q-11 75 -25 121q-2 9 -10 33.5t-10 37.5q-1 3 -1 10q0 38 55 81l7 -3q9 -37 66 -114l-37 -42q8 -51 8 -85q0 -13 -1 -17l2 -3q56 100 135 100q50 0 84.5 -44.5t34.5 -98.5q0 -88 -55 -126t-173 -38h-57zM93 923
q148 3 202 46q-28 50 -83 50q-64 0 -119 -96zM75 313h64q11 -68 51.5 -97.5t113.5 -29.5q108 0 208 56q-68 161 -309 284q-36 19 -50.5 33.5t-14.5 37.5q0 41 40 142h7q173 -99 287 -215q108 -110 131 -250q5 -33 5 -59q0 -67 -25 -129q-110 -99 -264 -99q-198 0 -233 217
q-9 62 -11 109z" />
    <glyph glyph-name="uniFB89" unicode="&#x688;" horiz-adv-x="774" arabic-form="final" 
d="M211 825l-130 95l7 20q52 -5 102 -5q3 13 3 30q0 16 -5 48q-11 75 -25 121q-2 9 -10 33.5t-10 37.5q-1 3 -1 10q0 38 55 81l7 -3q9 -37 66 -114l-37 -42q8 -51 8 -85q0 -13 -1 -17l2 -3q56 100 135 100q50 0 84.5 -44.5t34.5 -98.5q0 -88 -55 -126t-173 -38h-57zM241 933
q148 3 202 46q-28 50 -83 50q-64 0 -119 -96zM769 200l32 -200h-14q-81 0 -141.5 38.5t-101.5 129.5h-3q-10 -71 -40 -97q-77 -71 -203 -71q-177 0 -214 233q-6 29 -12 85l64 6q27 -124 147 -124q65 0 141 35q54 25 54 58q0 28 -43 131.5t-97 210.5q28 70 70 137l18 -5
q68 -158 150 -401q55 -166 179 -166h14z" />
    <glyph glyph-name="uniFB8A" unicode="&#x698;" horiz-adv-x="651" arabic-form="isolated" 
d="M288 744l84 107q78 -62 133 -124q-30 -57 -81 -102q-58 53 -136 119zM78 735l84 107q73 -57 134 -124q-29 -55 -82 -102q-58 53 -136 119zM128 951l84 107q77 -60 134 -124q-29 -55 -82 -102q-58 53 -136 119zM373 530h19q83 -108 122 -179.5t49 -132.5q4 -27 7 -56
t4 -36q8 -56 8 -101q0 -91 -30 -164q-74 -169 -201 -169q-59 0 -136.5 23t-150.5 64l10 53q46 -12 102 -12q119 0 224 121q39 46 61 90.5t22 71.5q0 28 -37.5 82t-136.5 175q24 74 64 170z" />
    <glyph glyph-name="uniFB8B" unicode="&#x698;" horiz-adv-x="656" arabic-form="final" 
d="M280 604l84 107q77 -60 134 -124q-29 -55 -82 -102q-58 53 -136 119zM70 595l84 107q73 -57 134 -124q-29 -55 -82 -102q-44 41 -136 119zM120 811l84 107q73 -57 134 -124q-29 -55 -82 -102q-58 53 -136 119zM651 200l32 -200h-17q-45 0 -108 19q6 -41 6 -73
q0 -76 -35 -153q-68 -145 -179 -145q-116 0 -281 99l14 50q52 -17 92 -17q120 0 204 92q82 88 87 191q-77 82 -141 185q27 96 48 148h15q59 -98 115 -147t134 -49h14z" />
    <glyph glyph-name="uniFB8C" unicode="&#x691;" horiz-adv-x="651" arabic-form="isolated" 
d="M174 615l-130 95l7 20q52 -5 102 -5q3 13 3 30q0 16 -5 48q-11 75 -25 121q-2 9 -10 33.5t-10 37.5q-1 3 -1 10q0 38 55 81l7 -3q9 -37 66 -114l-37 -42q8 -51 8 -85q0 -13 -1 -17l2 -3q56 100 135 100q50 0 84.5 -44.5t34.5 -98.5q0 -88 -55 -126t-173 -38h-57zM204 723
q148 3 202 46q-28 50 -83 50q-64 0 -119 -96zM373 530h19q83 -108 122 -179.5t49 -132.5q4 -27 7 -56t4 -36q8 -56 8 -101q0 -91 -30 -164q-74 -169 -201 -169q-59 0 -136.5 23t-150.5 64l10 53q46 -12 102 -12q119 0 224 121q39 46 61 90.5t22 71.5q0 28 -37.5 82
t-136.5 175q24 74 64 170z" />
    <glyph glyph-name="uniFB8D" unicode="&#x691;" horiz-adv-x="656" arabic-form="final" 
d="M183 495l-130 95l7 20q52 -5 102 -5q3 13 3 30q0 16 -5 48q-11 75 -25 121q-2 9 -10 33.5t-10 37.5q-1 3 -1 10q0 38 55 81l7 -3q9 -37 66 -114l-37 -42q8 -51 8 -85q0 -13 -1 -17l2 -3q56 100 135 100q50 0 84.5 -44.5t34.5 -98.5q0 -88 -55 -126t-173 -38h-57zM213 603
q148 3 202 46q-28 50 -83 50q-64 0 -119 -96zM651 200l32 -200h-17q-45 0 -108 19q6 -41 6 -73q0 -76 -35 -153q-68 -145 -179 -145q-116 0 -281 99l14 50q52 -17 92 -17q120 0 204 92q82 88 87 191q-77 82 -141 185q27 96 48 148h15q59 -98 115 -147t134 -49h14z" />
    <glyph glyph-name="uniFB8E" unicode="&#x6a9;" horiz-adv-x="1223" arabic-form="isolated" 
d="M793 707l-21 -77q127 -97 179 -165.5t66 -153.5q4 -20 4 -51q0 -98 -54 -180q-68 -41 -192 -67t-250 -26q-106 0 -187 22t-131 59t-81 90.5t-42.5 109t-11.5 123.5q0 69 13 137l58 -15q-2 -26 -2 -39q0 -144 100.5 -216t278.5 -71q118 0 229.5 19.5t171.5 52.5
q-11 72 -111 159.5t-281 197.5q-42 102 -42 154q0 80 79 119q138 72 485 193l8 -7q-25 -81 -59 -166q-256 -84 -419 -161l1 -6q94 -19 211 -35z" />
    <glyph glyph-name="uniFB8F" unicode="&#x6a9;" horiz-adv-x="1414" arabic-form="final" 
d="M847 671l-29 -80q94 -63 189.5 -144t147.5 -129t115.5 -83t124.5 -35h14l32 -200h-14q-41 0 -73.5 4.5t-62.5 18t-50.5 25.5t-49.5 39t-47 46t-55 59.5t-63 67.5h-5q-3 -86 -41 -155q-51 -50 -180 -84t-271 -34q-221 0 -339.5 102.5t-118.5 306.5q0 60 12 132l57 -15v-37
q0 -143 97.5 -213.5t280.5 -70.5q114 0 226 22t173 62q-53 107 -330 328q-35 58 -35 141q0 54 22 86q20 25 52 43q140 80 538 209l9 -8q-23 -75 -59 -161q-293 -89 -464 -178l2 -5q91 -31 195 -60z" />
    <glyph glyph-name="uniFB90" unicode="&#x6a9;" horiz-adv-x="638" arabic-form="initial" 
d="M208 707l-21 -77q141 -104 194 -186.5t53 -180.5q0 -61 -23 -133q-42 -130 -370 -130h-14q-49 0 -70 41t-21 84q0 75 60 75h14q144 0 234 21t90 53q0 54 -108.5 147t-280.5 195q-42 102 -42 154q0 80 79 119q136 71 484 193l8 -7q-25 -81 -59 -166q-258 -84 -418 -161v-6
q90 -19 211 -35z" />
    <glyph glyph-name="uniFB91" unicode="&#x6a9;" horiz-adv-x="770" arabic-form="medial" 
d="M203 671l-29 -80q94 -63 189.5 -144t147.5 -129t115.5 -83t124.5 -35h14l32 -200h-14q-48 0 -85 7.5t-62 16.5t-58 36t-51.5 45.5t-64.5 67.5t-77 81h-3v-10q0 -107 -60 -178q-63 -66 -281 -66h-14q-49 0 -70 41t-21 84q0 75 60 75h14q118 0 187 10.5t84 43.5
q-30 103 -337 350q-35 58 -35 141q0 54 22 86q20 25 52 43q139 80 537 209l9 -8q-23 -75 -59 -161q-294 -90 -463 -178v-5q78 -27 196 -60z" />
    <glyph glyph-name="uniFB92" unicode="&#x6af;" horiz-adv-x="1231" arabic-form="isolated" 
d="M923 259q-8 49 -121.5 138.5t-258.5 156.5q-4 11 -12.5 31.5t-11.5 29t-8.5 23.5t-7.5 24.5t-3.5 22t-1.5 25.5q0 91 109 139q211 92 465 173l4 -5q-25 -80 -65 -170q-197 -58 -417 -157l1 -3q91 -15 212 -25l-23 -74q210 -132 233 -276q4 -30 4 -50q0 -100 -54 -182
q-68 -41 -192 -67t-250 -26q-106 0 -187 22t-131 59t-81 90.5t-42.5 109t-11.5 123.5q0 69 13 137l58 -15q-2 -26 -2 -39q0 -144 100.5 -216t278.5 -71q118 0 230 19.5t173 52.5zM1019 1153l-27 -80q-303 -100 -480 -197l-6 5q4 39 21 85q211 106 489 190z" />
    <glyph glyph-name="uniFB93" unicode="&#x6af;" horiz-adv-x="1413" arabic-form="final" 
d="M518 192q114 0 226 22t173 62q-24 44 -110 119t-212 153q-35 105 -35 150q0 55 32 85q152 105 585 240l7 -6q-25 -80 -57 -160q-256 -77 -466 -177v-4q78 -22 202 -47l-26 -77q151 -97 372 -279q46 -38 87.5 -55.5t97.5 -17.5h14l32 -200h-14q-60 0 -104.5 10.5t-82.5 37
t-62.5 50.5t-69.5 72t-80 81h-6q-5 -82 -41 -146q-51 -50 -180 -84t-271 -34q-221 0 -339.5 102.5t-118.5 306.5q0 60 12 132l57 -15v-38q0 -283 378 -283zM1112 1147l-35 -80q-302 -98 -494 -198l-6 5q3 35 14 80q205 103 515 199z" />
    <glyph glyph-name="uniFB94" unicode="&#x6af;" horiz-adv-x="648" arabic-form="initial" 
d="M489 1022l4 -5q-25 -80 -65 -170q-198 -58 -416 -157l1 -3q89 -15 211 -25l-23 -74q210 -132 233 -276q5 -29 5 -65q0 -88 -43 -155q-71 -92 -352 -92h-17q-49 0 -70 41t-21 84q0 75 60 75h32q95 0 168 10t109 25.5t33 33.5q-6 41 -122.5 131.5t-254.5 153.5
q-4 11 -12.5 31.5t-11.5 29t-8.5 23.5t-7.5 24.5t-3.5 22t-1.5 25.5q0 91 109 139q208 91 464 173zM436 1153l-27 -80q-304 -100 -479 -197l-6 5q4 39 21 85q210 105 488 190z" />
    <glyph glyph-name="uniFB95" unicode="&#x6af;" horiz-adv-x="770" arabic-form="medial" 
d="M765 200l32 -200h-14q-60 0 -104.5 10.5t-82 37t-62 50.5t-69.5 72t-80 81h-4q-3 -65 -20 -110.5t-42.5 -73t-69.5 -42.5t-91 -20t-117 -5h-14q-49 0 -70 41t-21 84q0 75 60 75h14q119 0 194.5 16t75.5 41q0 33 -92.5 117.5t-234.5 173.5q-35 105 -35 150q0 55 32 85
q150 104 584 240l7 -6q-25 -80 -57 -160q-257 -77 -465 -177v-4q76 -22 201 -47l-26 -77q151 -97 372 -279q46 -38 87.5 -55.5t97.5 -17.5h14zM469 1147l-35 -80q-303 -98 -493 -198l-6 5q3 35 14 80q203 103 514 199z" />
    <glyph glyph-name="uniFB96" unicode="&#x6b3;" horiz-adv-x="1231" arabic-form="isolated" 
d="M1019 1153l-27 -80q-303 -100 -480 -197l-6 5q4 39 21 85q211 106 489 190zM568 -455l70 130q84 -51 163 -118q-24 -76 -71 -123q-60 46 -162 111zM496 -208l72 129q70 -41 163 -117q-27 -80 -71 -123q-74 56 -164 111zM923 259q-8 49 -121.5 138.5t-258.5 156.5
q-4 11 -12.5 31.5t-11.5 29t-8.5 23.5t-7.5 24.5t-3.5 22t-1.5 25.5q0 91 109 139q211 92 465 173l4 -5q-25 -80 -65 -170q-197 -58 -417 -157l1 -3q91 -15 212 -25l-23 -74q210 -132 233 -276q4 -30 4 -50q0 -100 -54 -182q-68 -41 -192 -67t-250 -26q-106 0 -187 22
t-131 59t-81 90.5t-42.5 109t-11.5 123.5q0 69 13 137l58 -15q-2 -26 -2 -39q0 -144 100.5 -216t278.5 -71q118 0 230 19.5t173 52.5z" />
    <glyph glyph-name="uniFB97" unicode="&#x6b3;" horiz-adv-x="1413" arabic-form="final" 
d="M518 192q114 0 226 22t173 62q-24 44 -110 119t-212 153q-35 105 -35 150q0 55 32 85q152 105 585 240l7 -6q-25 -80 -57 -160q-256 -77 -466 -177v-4q78 -22 202 -47l-26 -77q151 -97 372 -279q46 -38 87.5 -55.5t97.5 -17.5h14l32 -200h-14q-60 0 -104.5 10.5t-82.5 37
t-62.5 50.5t-69.5 72t-80 81h-6q-5 -82 -41 -146q-51 -50 -180 -84t-271 -34q-221 0 -339.5 102.5t-118.5 306.5q0 60 12 132l57 -15v-38q0 -283 378 -283zM1112 1147l-35 -80q-302 -98 -494 -198l-6 5q3 35 14 80q205 103 515 199zM496 -208l72 129q70 -41 163 -117
q-27 -80 -71 -123q-74 56 -164 111zM568 -455l70 130q84 -51 163 -118q-24 -76 -71 -123q-60 46 -162 111z" />
    <glyph glyph-name="uniFB98" unicode="&#x6b3;" horiz-adv-x="648" arabic-form="initial" 
d="M436 1153l-27 -80q-304 -100 -479 -197l-6 5q4 39 21 85q210 105 488 190zM224 -447l68 123q78 -47 153 -111q-20 -71 -66 -117q-62 48 -155 105zM158 -217l67 123q78 -46 154 -111q-22 -74 -67 -117q-59 46 -154 105zM489 1022l4 -5q-25 -80 -65 -170
q-198 -58 -416 -157l1 -3q89 -15 211 -25l-23 -74q210 -132 233 -276q5 -29 5 -65q0 -88 -43 -155q-71 -92 -352 -92h-17q-49 0 -70 41t-21 84q0 75 60 75h32q95 0 168 10t109 25.5t33 33.5q-6 41 -122.5 131.5t-254.5 153.5q-4 11 -12.5 31.5t-11.5 29t-8.5 23.5t-7.5 24.5
t-3.5 22t-1.5 25.5q0 91 109 139q208 91 464 173z" />
    <glyph glyph-name="uniFB99" unicode="&#x6b3;" horiz-adv-x="770" arabic-form="medial" 
d="M469 1147l-35 -80q-303 -98 -493 -198l-6 5q3 35 14 80q203 103 514 199zM374 -447l68 123q78 -47 153 -111q-20 -71 -66 -117q-62 48 -155 105zM308 -217l67 123q78 -46 154 -111q-22 -74 -67 -117q-59 46 -154 105zM765 200l32 -200h-14q-60 0 -104.5 10.5t-82 37
t-62 50.5t-69.5 72t-80 81h-4q-3 -65 -20 -110.5t-42.5 -73t-69.5 -42.5t-91 -20t-117 -5h-14q-49 0 -70 41t-21 84q0 75 60 75h14q119 0 194.5 16t75.5 41q0 33 -92.5 117.5t-234.5 173.5q-35 105 -35 150q0 55 32 85q150 104 584 240l7 -6q-25 -80 -57 -160
q-257 -77 -465 -177v-4q76 -22 201 -47l-26 -77q151 -97 372 -279q46 -38 87.5 -55.5t97.5 -17.5h14z" />
    <glyph glyph-name="uniFB9A" unicode="&#x6b1;" horiz-adv-x="1231" arabic-form="isolated" 
d="M1019 1153l-27 -80q-303 -100 -480 -197l-6 5q4 39 21 85q211 106 489 190zM536 1210l75 99q69 -51 124 -107q-20 -46 -71 -98q-64 58 -128 106zM339 1197l75 99q69 -51 124 -107q-20 -46 -71 -98q-64 58 -128 106zM923 259q-8 49 -121.5 138.5t-258.5 156.5
q-4 11 -12.5 31.5t-11.5 29t-8.5 23.5t-7.5 24.5t-3.5 22t-1.5 25.5q0 91 109 139q211 92 465 173l4 -5q-25 -80 -65 -170q-197 -58 -417 -157l1 -3q91 -15 212 -25l-23 -74q210 -132 233 -276q4 -30 4 -50q0 -100 -54 -182q-68 -41 -192 -67t-250 -26q-106 0 -187 22
t-131 59t-81 90.5t-42.5 109t-11.5 123.5q0 69 13 137l58 -15q-2 -26 -2 -39q0 -144 100.5 -216t278.5 -71q118 0 230 19.5t173 52.5z" />
    <glyph glyph-name="uniFB9B" unicode="&#x6b1;" horiz-adv-x="1413" arabic-form="final" 
d="M518 192q114 0 226 22t173 62q-24 44 -110 119t-212 153q-35 105 -35 150q0 55 32 85q152 105 585 240l7 -6q-25 -80 -57 -160q-256 -77 -466 -177v-4q78 -22 202 -47l-26 -77q151 -97 372 -279q46 -38 87.5 -55.5t97.5 -17.5h14l32 -200h-14q-60 0 -104.5 10.5t-82.5 37
t-62.5 50.5t-69.5 72t-80 81h-6q-5 -82 -41 -146q-51 -50 -180 -84t-271 -34q-221 0 -339.5 102.5t-118.5 306.5q0 60 12 132l57 -15v-38q0 -283 378 -283zM1112 1147l-35 -80q-302 -98 -494 -198l-6 5q3 35 14 80q205 103 515 199zM419 1197l75 99q69 -51 124 -107
q-20 -46 -71 -98q-64 58 -128 106zM616 1210l75 99q69 -51 124 -107q-20 -46 -71 -98q-64 58 -128 106z" />
    <glyph glyph-name="uniFB9C" unicode="&#x6b1;" horiz-adv-x="648" arabic-form="initial" 
d="M436 1153l-27 -80q-304 -100 -479 -197l-6 5q4 39 21 85q210 105 488 190zM-13 1210l74 99q69 -51 124 -107q-20 -46 -71 -98q-62 56 -127 106zM-210 1197l75 99q69 -51 124 -107q-20 -46 -71 -98q-64 58 -128 106zM489 1022l4 -5q-25 -80 -65 -170q-198 -58 -416 -157
l1 -3q89 -15 211 -25l-23 -74q210 -132 233 -276q5 -29 5 -65q0 -88 -43 -155q-71 -92 -352 -92h-17q-49 0 -70 41t-21 84q0 75 60 75h32q95 0 168 10t109 25.5t33 33.5q-6 41 -122.5 131.5t-254.5 153.5q-4 11 -12.5 31.5t-11.5 29t-8.5 23.5t-7.5 24.5t-3.5 22t-1.5 25.5
q0 91 109 139q208 91 464 173z" />
    </font>
</defs>
</svg>
